<?xml version="1.0" encoding="UTF-8"?><svg id="Capa_2" xmlns="http://www.w3.org/2000/svg" xmlns:xlink="http://www.w3.org/1999/xlink" viewBox="0 0 912.85 410.14"><defs><style>.cls-1{fill:#fff;}.cls-2{fill:#900;}.cls-3{filter:url(#drop-shadow-1);}</style><filter id="drop-shadow-1" filterUnits="userSpaceOnUse"><feOffset dx="8.44" dy="8.44"/><feGaussianBlur result="blur" stdDeviation="3.62"/><feFlood flood-color="#000" flood-opacity=".3"/><feComposite in2="blur" operator="in"/><feComposite in="SourceGraphic"/></filter></defs><g id="tiutlo_juego"><g class="cls-3"><rect class="cls-2" x=".15" y="118.65" width="902.53" height="145.28"/><rect class="cls-2" y="373.62" width="902.53" height="18.86"/><g><path class="cls-1" d="M30.03,20.55c5.53-5.65,12.57-8.48,21.11-8.48,11.43,0,19.79,3.79,25.08,11.37,2.92,4.26,4.49,8.53,4.7,12.81h-14.35c-.91-3.29-2.08-5.78-3.52-7.46-2.56-2.98-6.35-4.47-11.37-4.47s-9.15,2.1-12.1,6.31c-2.95,4.21-4.43,10.17-4.43,17.87s1.56,13.48,4.67,17.31c3.11,3.84,7.07,5.75,11.87,5.75s8.68-1.65,11.26-4.94c1.43-1.77,2.61-4.43,3.56-7.97h14.26c-1.23,7.49-4.37,13.58-9.43,18.27-5.06,4.69-11.53,7.04-19.43,7.04-9.77,0-17.46-3.17-23.05-9.51-5.59-6.37-8.39-15.1-8.39-26.19,0-11.99,3.18-21.23,9.54-27.73Z"/><path class="cls-1" d="M89.64,13.37h14.58V55.56c0,4.72,.56,8.16,1.67,10.34,1.73,3.85,5.51,5.77,11.33,5.77s9.55-1.92,11.28-5.77c1.11-2.17,1.67-5.62,1.67-10.34V13.37h14.59V55.59c0,7.3-1.13,12.99-3.4,17.05-4.22,7.46-12.27,11.18-24.14,11.18s-19.94-3.73-24.19-11.18c-2.26-4.07-3.4-9.75-3.4-17.05V13.37Z"/><path class="cls-1" d="M207.43,25.54h-36.35v14.58h33.36v11.93h-33.36v17.66h38.02v12.35h-52.05V13.37h50.37v12.16Z"/><path class="cls-1" d="M228.42,60.86c.44,3.14,1.32,5.48,2.62,7.04,2.38,2.83,6.45,4.24,12.23,4.24,3.46,0,6.26-.37,8.42-1.12,4.09-1.43,6.14-4.08,6.14-7.97,0-2.27-1-4.02-3.01-5.27-2-1.21-5.18-2.28-9.54-3.22l-7.44-1.63c-7.31-1.61-12.33-3.37-15.06-5.27-4.63-3.17-6.94-8.12-6.94-14.86,0-6.15,2.26-11.26,6.79-15.33,4.53-4.07,11.18-6.1,19.95-6.1,7.33,0,13.58,1.92,18.75,5.75,5.17,3.84,7.89,9.41,8.14,16.71h-13.79c-.25-4.13-2.1-7.07-5.54-8.81-2.29-1.15-5.14-1.72-8.55-1.72-3.79,0-6.82,.75-9.08,2.24-2.26,1.49-3.39,3.57-3.39,6.24,0,2.45,1.11,4.29,3.34,5.5,1.43,.81,4.47,1.76,9.13,2.84l12.05,2.84c5.28,1.24,9.24,2.9,11.88,4.99,4.09,3.23,6.14,7.91,6.14,14.03s-2.43,11.49-7.28,15.63c-4.85,4.15-11.7,6.22-20.56,6.22s-16.16-2.04-21.34-6.13c-5.18-4.08-7.77-9.7-7.77-16.85h13.7Z"/><path class="cls-1" d="M330.22,13.37v12.16h-20.55v56.52h-14.45V25.54h-20.64V13.37h55.64Z"/><path class="cls-1" d="M350.58,82.06h-14.26V13.37h14.26V82.06Z"/><path class="cls-1" d="M415.62,75.96c-5.19,5.34-12.69,8.02-22.51,8.02s-17.32-2.67-22.51-8.02c-6.96-6.55-10.44-16-10.44-28.33s3.48-22.02,10.44-28.33c5.19-5.34,12.69-8.01,22.51-8.01s17.32,2.67,22.51,8.01c6.93,6.31,10.39,15.75,10.39,28.33s-3.46,21.78-10.39,28.33Zm-8.97-10.44c3.34-4.19,5.01-10.16,5.01-17.89s-1.67-13.66-5.01-17.87c-3.34-4.21-7.85-6.31-13.54-6.31s-10.22,2.1-13.61,6.29c-3.39,4.19-5.08,10.16-5.08,17.89s1.69,13.7,5.08,17.89c3.39,4.19,7.92,6.29,13.61,6.29s10.2-2.1,13.54-6.29Z"/><path class="cls-1" d="M435.44,13.37h15.05l27.27,47.89V13.37h13.37V82.06h-14.35l-27.96-48.74v48.74h-13.37V13.37Z"/><path class="cls-1" d="M522.32,13.37h16.24l24.3,68.69h-15.56l-4.53-14.12h-25.29l-4.66,14.12h-15.01l24.52-68.69Zm-.95,42.73h17.59l-8.68-27.03-8.91,27.03Z"/><path class="cls-1" d="M613.43,15.14c2.53,1.09,4.67,2.69,6.43,4.8,1.45,1.74,2.61,3.67,3.45,5.78,.85,2.11,1.27,4.52,1.27,7.22,0,3.26-.82,6.47-2.47,9.62-1.65,3.15-4.37,5.38-8.15,6.69,3.17,1.27,5.41,3.08,6.73,5.43,1.32,2.35,1.98,5.93,1.98,10.74v4.61c0,3.14,.13,5.27,.38,6.38,.38,1.77,1.26,3.08,2.65,3.91v1.72h-15.84c-.44-1.52-.75-2.75-.93-3.68-.37-1.93-.58-3.9-.61-5.92l-.09-6.38c-.06-4.38-.82-7.3-2.27-8.76-1.45-1.46-4.18-2.19-8.18-2.19h-14.02v26.93h-14.03V13.37h32.85c4.69,.09,8.31,.68,10.84,1.77Zm-29.66,10.16v18.45h15.45c3.07,0,5.37-.37,6.9-1.12,2.71-1.31,4.07-3.88,4.07-7.74,0-4.16-1.31-6.96-3.94-8.39-1.48-.81-3.69-1.21-6.64-1.21h-15.84Z"/><path class="cls-1" d="M649.7,82.06h-14.26V13.37h14.26V82.06Z"/><path class="cls-1" d="M714.74,75.96c-5.19,5.34-12.69,8.02-22.51,8.02s-17.32-2.67-22.51-8.02c-6.96-6.55-10.44-16-10.44-28.33s3.48-22.02,10.44-28.33c5.19-5.34,12.69-8.01,22.51-8.01s17.32,2.67,22.51,8.01c6.93,6.31,10.39,15.75,10.39,28.33s-3.46,21.78-10.39,28.33Zm-8.97-10.44c3.34-4.19,5.01-10.16,5.01-17.89s-1.67-13.66-5.01-17.87c-3.34-4.21-7.85-6.31-13.54-6.31s-10.22,2.1-13.61,6.29c-3.39,4.19-5.08,10.16-5.08,17.89s1.69,13.7,5.08,17.89c3.39,4.19,7.92,6.29,13.61,6.29s10.2-2.1,13.54-6.29Z"/><path class="cls-1" d="M802.85,14.86c4.82,1.58,8.72,4.49,11.71,8.71,2.39,3.42,4.03,7.11,4.9,11.09,.87,3.98,1.31,7.77,1.31,11.37,0,9.13-1.83,16.87-5.5,23.21-4.97,8.54-12.65,12.81-23.04,12.81h-29.61V13.37h29.61c4.26,.06,7.8,.56,10.63,1.49Zm-26.31,10.44v44.83h13.25c6.78,0,11.51-3.34,14.19-10.02,1.46-3.67,2.19-8.03,2.19-13.09,0-6.99-1.1-12.36-3.29-16.1-2.19-3.74-6.56-5.62-13.09-5.62h-13.25Z"/><path class="cls-1" d="M880.74,25.54h-36.35v14.58h33.36v11.93h-33.36v17.66h38.02v12.35h-52.05V13.37h50.37v12.16Z"/><path class="cls-1" d="M113.05,146.42c3.45,4.79,5.18,10.53,5.18,17.21s-1.74,12.42-5.22,16.6c-1.95,2.35-4.81,4.49-8.6,6.43,5.75,2.09,10.1,5.41,13.03,9.95,2.93,4.54,4.39,10.05,4.39,16.53s-1.67,12.67-5.02,17.98c-2.13,3.52-4.79,6.48-7.99,8.88-3.6,2.75-7.85,4.64-12.74,5.66-4.89,1.02-10.21,1.53-15.94,1.53H29.33v-112.77h54.5c13.75,.2,23.49,4.21,29.23,12.01Zm-61.23,7.57v24.86h27.41c4.9,0,8.87-.93,11.93-2.79,3.05-1.86,4.58-5.16,4.58-9.91,0-5.25-2.02-8.72-6.06-10.4-3.48-1.17-7.93-1.76-13.33-1.76h-24.53Zm0,43.53v30.07h27.38c4.89,0,8.7-.66,11.42-1.99,4.94-2.45,7.41-7.14,7.41-14.08,0-5.86-2.4-9.89-7.18-12.09-2.67-1.22-6.43-1.86-11.27-1.91h-27.76Z"/><path class="cls-1" d="M137.45,134.41h23.95v69.26c0,7.75,.91,13.4,2.74,16.97,2.84,6.32,9.05,9.48,18.6,9.48s15.68-3.16,18.52-9.48c1.83-3.57,2.74-9.22,2.74-16.97v-69.26h23.95v69.31c0,11.99-1.86,21.32-5.58,28-6.92,12.24-20.14,18.36-39.64,18.36s-32.74-6.12-39.72-18.36c-3.72-6.68-5.58-16.01-5.58-28v-69.31Zm71.46-31.9l-23.26,22.88h-15.76l14.69-22.88h24.33Z"/><path class="cls-1" d="M264.65,212.37c.73,5.15,2.16,9,4.3,11.55,3.91,4.64,10.6,6.96,20.08,6.96,5.68,0,10.29-.61,13.83-1.84,6.72-2.35,10.08-6.71,10.08-13.08,0-3.72-1.65-6.6-4.94-8.65-3.29-1.99-8.51-3.75-15.66-5.28l-12.21-2.68c-12-2.65-20.24-5.53-24.73-8.65-7.6-5.2-11.4-13.34-11.4-24.41,0-10.1,3.72-18.49,11.15-25.17,7.44-6.68,18.36-10.02,32.76-10.02,12.03,0,22.29,3.15,30.79,9.45,8.49,6.3,12.95,15.44,13.36,27.43h-22.65c-.42-6.78-3.45-11.6-9.1-14.46-3.77-1.89-8.44-2.83-14.04-2.83-6.22,0-11.19,1.22-14.9,3.67s-5.57,5.87-5.57,10.25c0,4.03,1.83,7.04,5.49,9.03,2.35,1.33,7.35,2.88,14.98,4.67l19.79,4.67c8.67,2.04,15.17,4.77,19.5,8.19,6.72,5.31,10.08,12.98,10.08,23.03s-3.98,18.86-11.95,25.67-19.22,10.21-33.75,10.21-26.52-3.35-35.03-10.06c-8.51-6.71-12.76-15.93-12.76-27.66h22.49Z"/><path class="cls-1" d="M449.45,214.21c-1.98,6.47-4.91,11.84-8.77,16.11l12.95,12.19-12.29,12.82-13.54-12.85c-4.14,2.51-7.71,4.28-10.72,5.3-5.05,1.69-11.1,2.53-18.15,2.53-14.7,0-26.85-4.39-36.45-13.16-11.64-10.56-17.46-26.06-17.46-46.52s5.97-36.19,17.9-46.75c9.74-8.62,21.85-12.93,36.34-12.93s26.83,4.56,36.72,13.69c11.42,10.56,17.14,25.32,17.14,44.3,0,10.05-1.22,18.46-3.67,25.25Zm-42.75,15.15c1.38-.36,3.14-1,5.28-1.92l-11.42-10.86,12.11-12.64,11.46,10.79c1.78-3.67,3.03-6.88,3.75-9.64,1.12-4.13,1.68-8.95,1.68-14.46,0-12.65-2.59-22.43-7.77-29.34-5.18-6.91-12.74-10.37-22.68-10.37-9.33,0-16.78,3.32-22.34,9.95-5.56,6.63-8.34,16.55-8.34,29.76,0,15.45,3.98,26.52,11.94,33.2,5.15,4.34,11.33,6.5,18.52,6.5,2.7,0,5.31-.33,7.81-1Z"/><path class="cls-1" d="M468.36,134.41h23.95v69.26c0,7.75,.91,13.4,2.74,16.97,2.84,6.32,9.05,9.48,18.6,9.48s15.68-3.16,18.52-9.48c1.83-3.57,2.74-9.22,2.74-16.97v-69.26h23.95v69.31c0,11.99-1.86,21.32-5.58,28-6.92,12.24-20.14,18.36-39.64,18.36s-32.74-6.12-39.72-18.36c-3.72-6.68-5.58-16.01-5.58-28v-69.31Z"/><path class="cls-1" d="M661.76,154.38h-59.67v23.95h54.78v19.59h-54.78v29h62.43v20.27h-85.46v-112.77h82.7v19.97Z"/><path class="cls-1" d="M745.69,136.86c7.91,2.6,14.32,7.37,19.22,14.31,3.93,5.61,6.61,11.68,8.04,18.21,1.43,6.53,2.14,12.75,2.14,18.67,0,15-3.01,27.69-9.04,38.1-8.17,14.03-20.77,21.04-37.82,21.04h-48.62v-112.77h48.62c6.99,.1,12.81,.92,17.46,2.45Zm-43.2,17.14v73.6h21.76c11.14,0,18.9-5.48,23.29-16.45,2.4-6.02,3.6-13.18,3.6-21.5,0-11.48-1.8-20.29-5.4-26.43-3.6-6.15-10.77-9.22-21.49-9.22h-21.76Z"/><path class="cls-1" d="M816.55,134.41h26.66l39.9,112.77h-25.55l-7.44-23.18h-41.53l-7.64,23.18h-24.65l40.26-112.77Zm-1.55,70.16h28.88l-14.25-44.37-14.64,44.37Z"/><path class="cls-1" d="M76.79,275.88c5.72,1.88,10.35,5.33,13.9,10.34,2.84,4.06,4.78,8.45,5.81,13.17,1.03,4.72,1.55,9.22,1.55,13.5,0,10.84-2.18,20.03-6.53,27.55-5.91,10.14-15.02,15.21-27.35,15.21H29.01v-81.54h35.16c5.06,.07,9.26,.66,12.62,1.77Zm-31.24,12.39v53.22h15.74c8.05,0,13.67-3.96,16.84-11.89,1.74-4.35,2.6-9.53,2.6-15.54,0-8.3-1.3-14.67-3.91-19.11-2.6-4.44-7.78-6.67-15.54-6.67h-15.74Z"/><path class="cls-1" d="M169.27,288.55h-43.15v17.31h39.61v14.16h-39.61v20.97h45.14v14.66h-61.79v-81.54h59.8v14.44Z"/><path class="cls-1" d="M276.31,288.55h-43.15v17.31h39.61v14.16h-39.61v20.97h45.14v14.66h-61.79v-81.54h59.8v14.44Z"/><path class="cls-1" d="M337.6,274.11h17.7l-27.8,81.54h-16.1l-27.58-81.54h18.2l17.7,61.9,17.87-61.9Z"/><path class="cls-1" d="M379.55,355.65h-16.93v-81.54h16.93v81.54Z"/><path class="cls-1" d="M441.72,275.88c5.72,1.88,10.35,5.33,13.9,10.34,2.84,4.06,4.78,8.45,5.81,13.17,1.03,4.72,1.55,9.22,1.55,13.5,0,10.84-2.18,20.03-6.53,27.55-5.91,10.14-15.02,15.21-27.35,15.21h-35.16v-81.54h35.16c5.06,.07,9.26,.66,12.62,1.77Zm-31.24,12.39v53.22h15.74c8.05,0,13.67-3.96,16.84-11.89,1.74-4.35,2.6-9.53,2.6-15.54,0-8.3-1.3-14.67-3.91-19.11-2.6-4.44-7.78-6.67-15.54-6.67h-15.74Z"/><path class="cls-1" d="M534.2,288.55h-43.15v17.31h39.61v14.16h-39.61v20.97h45.14v14.66h-61.79v-81.54h59.8v14.44Z"/><path class="cls-1" d="M547.02,274.11h17.86l32.37,56.86v-56.86h15.88v81.54h-17.03l-33.2-57.86v57.86h-15.88v-81.54Z"/><path class="cls-1" d="M635.54,282.63c6.57-6.71,14.92-10.07,25.07-10.07,13.57,0,23.5,4.5,29.77,13.5,3.47,5.05,5.33,10.12,5.58,15.21h-17.04c-1.08-3.91-2.48-6.86-4.17-8.85-3.03-3.54-7.53-5.31-13.49-5.31s-10.86,2.5-14.36,7.5c-3.5,5-5.26,12.07-5.26,21.21s1.85,16,5.55,20.55c3.7,4.56,8.4,6.83,14.1,6.83s10.3-1.95,13.37-5.86c1.69-2.1,3.1-5.26,4.22-9.46h16.93c-1.46,8.89-5.19,16.12-11.19,21.69-6,5.57-13.69,8.35-23.07,8.35-11.6,0-20.72-3.76-27.36-11.29-6.64-7.56-9.96-17.92-9.96-31.09,0-14.24,3.78-25.21,11.33-32.92Z"/><path class="cls-1" d="M723.36,355.65h-16.93v-81.54h16.93v81.54Z"/><path class="cls-1" d="M760.35,274.11h19.28l28.85,81.54h-18.48l-5.38-16.76h-30.03l-5.53,16.76h-17.82l29.11-81.54Zm-1.12,50.73h20.88l-10.3-32.09-10.58,32.09Z"/><path class="cls-1" d="M827.5,330.48c.53,3.73,1.56,6.51,3.11,8.35,2.82,3.36,7.66,5.03,14.52,5.03,4.1,0,7.44-.44,10-1.33,4.86-1.7,7.29-4.85,7.29-9.46,0-2.69-1.19-4.78-3.57-6.25-2.38-1.44-6.15-2.71-11.32-3.82l-8.83-1.94c-8.68-1.92-14.64-4-17.88-6.25-5.5-3.76-8.24-9.64-8.24-17.65,0-7.3,2.69-13.37,8.06-18.2,5.38-4.83,13.27-7.25,23.69-7.25,8.7,0,16.12,2.28,22.26,6.83,6.14,4.56,9.36,11.17,9.66,19.83h-16.37c-.3-4.9-2.5-8.39-6.58-10.46-2.72-1.36-6.11-2.05-10.15-2.05-4.5,0-8.09,.89-10.78,2.66-2.68,1.77-4.03,4.24-4.03,7.41,0,2.91,1.32,5.09,3.97,6.53,1.7,.96,5.31,2.08,10.83,3.37l14.31,3.37c6.27,1.48,10.97,3.45,14.1,5.92,4.86,3.84,7.29,9.39,7.29,16.65s-2.88,13.64-8.64,18.56c-5.76,4.92-13.89,7.39-24.41,7.39s-19.18-2.42-25.33-7.27c-6.15-4.85-9.23-11.52-9.23-20h16.26Z"/></g></g></g></svg>