<?xml version="1.0" encoding="UTF-8"?><svg id="Capa_2" xmlns="http://www.w3.org/2000/svg" xmlns:xlink="http://www.w3.org/1999/xlink" viewBox="0 0 1923.86 1097.78"><defs><style>.cls-1,.cls-2{fill:none;}.cls-3{font-family:Helvetica, Helvetica;font-size:30px;}.cls-4{clip-path:url(#clippath);}.cls-2{stroke:#0a1318;stroke-linecap:round;stroke-miterlimit:10;stroke-width:.43px;}.cls-5{fill:#030607;}.cls-6{fill:#693d2c;}.cls-7{fill:#683726;}.cls-8{fill:#ede9df;}.cls-9{fill:#f3d9b5;}.cls-10{fill:#fff;}.cls-11{fill:#fbfeeb;}.cls-12{fill:#969595;}.cls-13{fill:#7d4115;}.cls-14{fill:#9f9aa1;}.cls-15{fill:#304353;}.cls-16{fill:#8e8791;}.cls-17{fill:#865038;}.cls-18{fill:#b52937;}.cls-19{fill:#ccc;}.cls-20{fill:#dbdbd7;}.cls-21{fill:#e2d9bf;}.cls-22{fill:#424859;}.cls-23{fill:#191d29;}.cls-24{fill:#0a1318;}.cls-25{fill:#1b2933;}.cls-26{fill:#565b6f;}.cls-27{fill:#5b5b5b;}.cls-28{fill:#284251;}.cls-29{fill:#79757a;}.cls-30{fill:#46080d;}.cls-31{clip-path:url(#clippath-1);}.cls-32{clip-path:url(#clippath-3);}.cls-33{clip-path:url(#clippath-2);}.cls-34{letter-spacing:-.07em;}.cls-35{letter-spacing:-.05em;}</style><clipPath id="clippath"><rect class="cls-1" width="1549.86" height="1097.78"/></clipPath><clipPath id="clippath-1"><rect class="cls-1" x="1451.78" y="268.09" width="472.08" height="828.44"/></clipPath><clipPath id="clippath-2"><path class="cls-1" d="M1773.93,496.3c0,1.06,.77,2.09,5.72,4.52,4.94,2.44,8,3.86,13.07,1.7s11.84-4.8,12.86-7.32,.38-2.76-6.44-4.23c-6.82-1.48-8.81-2.17-14.63-.32-5.82,1.85-10.58,4.31-10.57,5.65Z"/></clipPath><clipPath id="clippath-3"><path class="cls-1" d="M1709.7,493.36c-.11,1.05,.54,2.16,5.18,5.12,4.64,2.97,7.52,4.72,12.8,3.14,5.28-1.59,12.3-3.46,13.59-5.85,1.29-2.39,.68-2.7-5.94-4.92-6.62-2.22-8.52-3.13-14.51-1.93-5.99,1.2-10.99,3.12-11.13,4.45Z"/></clipPath></defs><g id="Pantalla_de_Proyector"><g class="cls-4"><g><g><g><rect class="cls-25" x="761.85" y="954.32" width="27.03" height="645.27"/><polygon class="cls-25" points="999.53 1599.59 894.01 931.29 867.32 935.52 972.18 1599.59 999.53 1599.59"/><polygon class="cls-25" points="558.66 1599.59 663.51 935.52 636.83 931.29 531.3 1599.59 558.66 1599.59"/></g><rect class="cls-17" x="632.36" y="866.49" width="279.24" height="79.95"/><rect class="cls-6" x="632.36" y="866.49" width="279.24" height="39.99"/><rect class="cls-13" x="415.05" y="849.6" width="713.87" height="33.78"/><rect class="cls-15" x="730.32" y="926.18" width="90.08" height="56.3"/></g><polygon class="cls-19" points="77.65 90.52 77.02 83.55 771.98 21.28 1461.65 83.55 1461.02 90.52 771.98 28.31 77.65 90.52"/><rect class="cls-9" x="37.81" y="77.9" width="1468.34" height="775.16"/><rect class="cls-14" x="28.78" y="834.79" width="1486.41" height="18.27"/><rect class="cls-14" x="28.78" y="77.9" width="1486.41" height="18.27"/><g><path class="cls-29" d="M771.98,27.07h0c6.08,0,11.01,4.93,11.01,11.01v39.82h-22.02V38.08c0-6.08,4.93-11.01,11.01-11.01Z"/><path d="M771.98,24.8h0c7.48,0,13.56,6.08,13.56,13.56v10.56h-27.12v-10.56c0-7.48,6.08-13.56,13.56-13.56Z"/></g></g></g></g><g id="Texto"><g><path d="M248.62,399.63c-2.59,1.72-5.4,2.58-8.44,2.58-3.95,0-7.21-.94-9.77-2.82-2.56-1.88-3.84-4.62-3.84-8.23,0-2.24,.55-4.14,1.66-5.69,.67-.95,1.94-2.14,3.8-3.57l1.84-1.42c1-.77,1.67-1.68,1.99-2.71,.21-.65,.32-1.66,.34-3.02h6.99c-.1,2.86-.38,4.85-.84,5.98-.46,1.13-1.6,2.42-3.44,3.86l-1.88,1.47c-1.07,.84-1.79,1.74-2.17,2.69-.24,.59-.36,1.27-.36,2.04,0,1.57,.46,2.82,1.38,3.75,.92,.93,2.17,1.4,3.76,1.4,2.34,0,3.99-.95,4.96-2.85,.5-1.02,.75-2.11,.75-3.29h7.48c-.21,4.83-1.6,8.1-4.19,9.82Zm-5.25-28.48h-7.74v-7.48h7.74v7.48Z"/><path d="M287.87,353.6v6.75h-11.41v31.39h-8.02v-31.39h-11.46v-6.75h30.9Z"/><path d="M306.41,364.11c1.97,.88,3.59,2.27,4.88,4.17,1.16,1.68,1.9,3.62,2.25,5.83,.2,1.3,.28,3.16,.24,5.6h-20.54c.11,2.83,1.1,4.81,2.95,5.95,1.13,.71,2.48,1.06,4.07,1.06,1.68,0,3.04-.43,4.1-1.29,.57-.47,1.08-1.11,1.52-1.94h7.53c-.2,1.67-1.11,3.37-2.73,5.1-2.53,2.74-6.06,4.11-10.61,4.11-3.75,0-7.07-1.16-9.94-3.47-2.87-2.31-4.3-6.08-4.3-11.29,0-4.89,1.29-8.63,3.89-11.24,2.59-2.61,5.95-3.91,10.09-3.91,2.46,0,4.67,.44,6.63,1.32Zm-11.03,6.37c-1.04,1.07-1.7,2.53-1.96,4.37h12.71c-.13-1.96-.79-3.44-1.96-4.46-1.18-1.01-2.63-1.52-4.37-1.52-1.89,0-3.36,.54-4.4,1.61Z"/><path d="M343.9,353.26c.38,.03,.9,.06,1.55,.12v6c-.41-.05-1.11-.09-2.08-.12-.97-.03-1.65,.19-2.02,.65s-.56,.96-.56,1.51v2.38h4.84v5.2h-4.84v22.75h-7.32v-22.75h-4.14v-5.2h4.04v-1.81c0-3.02,.51-5.1,1.53-6.24,1.07-1.69,3.65-2.54,7.74-2.54,.47,0,.89,.01,1.27,.04Z"/><path d="M361.05,374.59c1.37-.17,2.35-.39,2.95-.65,1.06-.45,1.59-1.15,1.59-2.1,0-1.16-.41-1.95-1.22-2.39-.81-.44-2.01-.66-3.58-.66-1.77,0-3.02,.43-3.75,1.29-.52,.64-.87,1.5-1.05,2.59h-7.12c.16-2.47,.85-4.49,2.08-6.08,1.96-2.48,5.32-3.73,10.08-3.73,3.1,0,5.86,.61,8.27,1.84,2.41,1.23,3.61,3.54,3.61,6.94v12.94c0,.9,.02,1.98,.05,3.26,.05,.97,.2,1.62,.44,1.97,.24,.35,.6,.63,1.09,.85v1.09h-8.02c-.22-.57-.38-1.1-.47-1.6-.09-.5-.16-1.07-.21-1.71-1.02,1.1-2.2,2.04-3.54,2.82-1.6,.91-3.4,1.37-5.41,1.37-2.57,0-4.69-.73-6.36-2.19-1.67-1.46-2.51-3.52-2.51-6.2,0-3.47,1.35-5.98,4.04-7.53,1.48-.85,3.65-1.45,6.52-1.81l2.53-.31Zm4.51,3.44c-.47,.29-.95,.53-1.43,.71-.48,.18-1.14,.35-1.98,.5l-1.68,.31c-1.57,.28-2.7,.61-3.39,1.01-1.16,.67-1.74,1.72-1.74,3.13,0,1.26,.35,2.17,1.06,2.73,.71,.56,1.57,.84,2.59,.84,1.61,0,3.1-.47,4.45-1.4,1.36-.93,2.06-2.63,2.12-5.1v-2.74Z"/><path d="M386.89,391.75h-7.38v-38.15h7.38v38.15Z"/><path d="M391.18,369.05v-5.25h3.93v-7.87h7.3v7.87h4.58v5.25h-4.58v14.91c0,1.16,.15,1.88,.44,2.16,.29,.29,1.19,.43,2.69,.43,.22,0,.46,0,.71-.01,.25,0,.5-.02,.74-.04v5.51l-3.49,.13c-3.49,.12-5.87-.48-7.14-1.81-.83-.85-1.24-2.15-1.24-3.91v-17.36h-3.93Z"/><path d="M422.9,374.59c1.37-.17,2.35-.39,2.95-.65,1.06-.45,1.59-1.15,1.59-2.1,0-1.16-.41-1.95-1.22-2.39-.81-.44-2.01-.66-3.58-.66-1.77,0-3.02,.43-3.75,1.29-.52,.64-.87,1.5-1.05,2.59h-7.12c.16-2.47,.85-4.49,2.08-6.08,1.96-2.48,5.32-3.73,10.08-3.73,3.1,0,5.86,.61,8.27,1.84,2.41,1.23,3.61,3.54,3.61,6.94v12.94c0,.9,.02,1.98,.05,3.26,.05,.97,.2,1.62,.44,1.97,.24,.35,.6,.63,1.09,.85v1.09h-8.02c-.22-.57-.38-1.1-.47-1.6-.09-.5-.16-1.07-.21-1.71-1.02,1.1-2.2,2.04-3.54,2.82-1.6,.91-3.4,1.37-5.41,1.37-2.57,0-4.69-.73-6.36-2.19-1.67-1.46-2.51-3.52-2.51-6.2,0-3.47,1.35-5.98,4.04-7.53,1.48-.85,3.65-1.45,6.52-1.81l2.53-.31Zm4.51,3.44c-.47,.29-.95,.53-1.43,.71-.48,.18-1.14,.35-1.98,.5l-1.68,.31c-1.57,.28-2.7,.61-3.39,1.01-1.16,.67-1.74,1.72-1.74,3.13,0,1.26,.35,2.17,1.06,2.73,.71,.56,1.57,.84,2.59,.84,1.61,0,3.1-.47,4.45-1.4,1.36-.93,2.06-2.63,2.12-5.1v-2.74Z"/><path d="M474.31,364.11c1.97,.88,3.59,2.27,4.88,4.17,1.16,1.68,1.9,3.62,2.25,5.83,.2,1.3,.28,3.16,.24,5.6h-20.54c.11,2.83,1.1,4.81,2.95,5.95,1.13,.71,2.48,1.06,4.07,1.06,1.68,0,3.04-.43,4.1-1.29,.57-.47,1.08-1.11,1.52-1.94h7.53c-.2,1.67-1.11,3.37-2.73,5.1-2.53,2.74-6.06,4.11-10.61,4.11-3.75,0-7.07-1.16-9.94-3.47-2.87-2.31-4.3-6.08-4.3-11.29,0-4.89,1.29-8.63,3.89-11.24,2.59-2.61,5.95-3.91,10.09-3.91,2.46,0,4.67,.44,6.63,1.32Zm-11.03,6.37c-1.04,1.07-1.7,2.53-1.96,4.37h12.71c-.13-1.96-.79-3.44-1.96-4.46-1.18-1.01-2.63-1.52-4.37-1.52-1.89,0-3.36,.54-4.4,1.61Z"/><path d="M492.94,391.75h-7.38v-38.15h7.38v38.15Z"/><path d="M526.03,374.59c1.37-.17,2.35-.39,2.95-.65,1.06-.45,1.59-1.15,1.59-2.1,0-1.16-.41-1.95-1.22-2.39-.81-.44-2.01-.66-3.58-.66-1.77,0-3.02,.43-3.75,1.29-.53,.64-.88,1.5-1.05,2.59h-7.12c.16-2.47,.85-4.49,2.08-6.08,1.96-2.48,5.32-3.73,10.08-3.73,3.1,0,5.86,.61,8.26,1.84,2.41,1.23,3.61,3.54,3.61,6.94v12.94c0,.9,.02,1.98,.05,3.26,.05,.97,.2,1.62,.44,1.97,.24,.35,.6,.63,1.09,.85v1.09h-8.02c-.22-.57-.38-1.1-.47-1.6-.09-.5-.16-1.07-.21-1.71-1.02,1.1-2.2,2.04-3.54,2.82-1.6,.91-3.4,1.37-5.42,1.37-2.57,0-4.69-.73-6.36-2.19-1.67-1.46-2.51-3.52-2.51-6.2,0-3.47,1.35-5.98,4.04-7.53,1.48-.85,3.65-1.45,6.52-1.81l2.53-.31Zm4.51,3.44c-.47,.29-.95,.53-1.43,.71-.48,.18-1.14,.35-1.98,.5l-1.68,.31c-1.57,.28-2.7,.61-3.39,1.01-1.16,.67-1.74,1.72-1.74,3.13,0,1.26,.35,2.17,1.06,2.73,.71,.56,1.57,.84,2.59,.84,1.61,0,3.1-.47,4.45-1.4,1.36-.93,2.06-2.63,2.12-5.1v-2.74Z"/><path d="M551.92,360.18h-7.48v-6.81h7.48v6.81Zm-7.48,3.36h7.48v28.21h-7.48v-28.21Z"/><path d="M574.73,362.88c.09,0,.31,.02,.63,.04v7.56c-.47-.05-.88-.09-1.24-.1-.36-.02-.66-.03-.88-.03-2.97,0-4.96,.97-5.98,2.9-.57,1.09-.85,2.76-.85,5.02v13.48h-7.43v-28.21h7.04v4.92c1.14-1.88,2.13-3.17,2.98-3.86,1.38-1.16,3.17-1.73,5.38-1.73,.14,0,.25,0,.35,.01Z"/><path d="M598.07,364.11c1.97,.88,3.59,2.27,4.88,4.17,1.16,1.68,1.9,3.62,2.25,5.83,.2,1.3,.28,3.16,.24,5.6h-20.54c.11,2.83,1.1,4.81,2.95,5.95,1.13,.71,2.48,1.06,4.07,1.06,1.68,0,3.04-.43,4.1-1.29,.57-.47,1.08-1.11,1.52-1.94h7.53c-.2,1.67-1.11,3.37-2.73,5.1-2.53,2.74-6.06,4.11-10.61,4.11-3.75,0-7.07-1.16-9.94-3.47-2.87-2.31-4.3-6.08-4.3-11.29,0-4.89,1.29-8.63,3.89-11.24,2.59-2.61,5.95-3.91,10.09-3.91,2.46,0,4.67,.44,6.63,1.32Zm-11.03,6.37c-1.04,1.07-1.7,2.53-1.96,4.37h12.71c-.13-1.96-.79-3.44-1.96-4.46-1.18-1.01-2.63-1.52-4.37-1.52-1.89,0-3.36,.54-4.4,1.61Z"/><path d="M640.76,373.66c-.14-1.05-.49-2-1.06-2.85-.83-1.14-2.12-1.71-3.87-1.71-2.49,0-4.19,1.23-5.11,3.7-.48,1.31-.73,3.05-.73,5.21s.24,3.73,.73,4.98c.88,2.35,2.54,3.52,4.98,3.52,1.73,0,2.96-.47,3.68-1.4s1.17-2.14,1.32-3.62h7.53c-.17,2.24-.98,4.37-2.43,6.37-2.31,3.23-5.74,4.84-10.28,4.84s-7.88-1.35-10.03-4.04-3.21-6.18-3.21-10.47c0-4.84,1.18-8.6,3.55-11.3,2.37-2.69,5.63-4.04,9.79-4.04,3.54,0,6.44,.79,8.69,2.38,2.25,1.59,3.59,4.39,4,8.41h-7.56Z"/><path d="M660.71,363.54v17c0,1.6,.19,2.81,.57,3.62,.67,1.43,1.98,2.15,3.94,2.15,2.51,0,4.22-1.02,5.15-3.05,.48-1.1,.72-2.56,.72-4.37v-15.35h7.48v28.21h-7.17v-3.99c-.07,.09-.24,.35-.52,.78-.28,.43-.6,.81-.98,1.14-1.15,1.04-2.27,1.74-3.34,2.12s-2.34,.57-3.78,.57c-4.16,0-6.97-1.5-8.41-4.5-.81-1.66-1.21-4.1-1.21-7.32v-17h7.56Z"/><path d="M696.91,374.59c1.37-.17,2.35-.39,2.95-.65,1.06-.45,1.59-1.15,1.59-2.1,0-1.16-.41-1.95-1.22-2.39-.81-.44-2.01-.66-3.58-.66-1.77,0-3.02,.43-3.75,1.29-.52,.64-.87,1.5-1.05,2.59h-7.12c.16-2.47,.85-4.49,2.08-6.08,1.96-2.48,5.32-3.73,10.08-3.73,3.1,0,5.86,.61,8.27,1.84,2.41,1.23,3.61,3.54,3.61,6.94v12.94c0,.9,.02,1.98,.05,3.26,.05,.97,.2,1.62,.44,1.97,.24,.35,.6,.63,1.09,.85v1.09h-8.02c-.22-.57-.38-1.1-.47-1.6-.09-.5-.16-1.07-.21-1.71-1.02,1.1-2.2,2.04-3.54,2.82-1.6,.91-3.4,1.37-5.41,1.37-2.57,0-4.69-.73-6.36-2.19-1.67-1.46-2.51-3.52-2.51-6.2,0-3.47,1.35-5.98,4.04-7.53,1.48-.85,3.65-1.45,6.52-1.81l2.53-.31Zm4.51,3.44c-.47,.29-.95,.53-1.43,.71-.48,.18-1.14,.35-1.98,.5l-1.68,.31c-1.57,.28-2.7,.61-3.39,1.01-1.16,.67-1.74,1.72-1.74,3.13,0,1.26,.35,2.17,1.06,2.73,.71,.56,1.57,.84,2.59,.84,1.61,0,3.1-.47,4.45-1.4,1.36-.93,2.06-2.63,2.12-5.1v-2.74Z"/><path d="M737.96,365.16c1.85,1.53,2.77,4.06,2.77,7.6v19h-7.56v-17.16c0-1.48-.2-2.62-.59-3.42-.72-1.45-2.09-2.17-4.11-2.17-2.48,0-4.19,1.06-5.11,3.18-.48,1.12-.72,2.55-.72,4.3v15.27h-7.38v-28.16h7.14v4.11c.95-1.45,1.84-2.49,2.68-3.13,1.51-1.14,3.43-1.71,5.75-1.71,2.9,0,5.28,.76,7.13,2.29Z"/><path d="M762.55,364c1.33,.75,2.41,1.79,3.23,3.12v-13.46h7.48v38.09h-7.17v-3.91c-1.05,1.67-2.25,2.89-3.6,3.65s-3.02,1.14-5.02,1.14c-3.3,0-6.07-1.33-8.32-4-2.25-2.67-3.38-6.09-3.38-10.26,0-4.81,1.11-8.6,3.33-11.36,2.22-2.76,5.18-4.14,8.89-4.14,1.71,0,3.23,.38,4.55,1.13Zm1.81,20.09c1.09-1.55,1.63-3.56,1.63-6.03,0-3.45-.87-5.92-2.61-7.4-1.07-.9-2.31-1.35-3.73-1.35-2.16,0-3.74,.81-4.75,2.45-1.01,1.63-1.51,3.65-1.51,6.07,0,2.61,.51,4.69,1.54,6.25s2.58,2.34,4.67,2.34,3.67-.78,4.76-2.33Z"/><path d="M803.49,388.3c-2.38,2.94-6,4.41-10.84,4.41s-8.46-1.47-10.84-4.41-3.57-6.48-3.57-10.61,1.19-7.59,3.57-10.57c2.38-2.98,6-4.47,10.84-4.47s8.46,1.49,10.84,4.47c2.38,2.98,3.57,6.51,3.57,10.57s-1.19,7.68-3.57,10.61Zm-5.9-4.08c1.16-1.53,1.73-3.71,1.73-6.54s-.58-5-1.73-6.52c-1.16-1.52-2.81-2.29-4.97-2.29s-3.82,.76-4.98,2.29c-1.17,1.52-1.75,3.7-1.75,6.52s.58,5,1.75,6.54c1.16,1.53,2.82,2.3,4.98,2.3s3.81-.77,4.97-2.3Z"/><path d="M847.33,363.7c1.42,.6,2.58,1.53,3.49,2.77,.77,1.05,1.25,2.14,1.42,3.25,.17,1.11,.26,2.93,.26,5.45v16.58h-7.53v-17.18c0-1.52-.26-2.75-.77-3.68-.67-1.31-1.94-1.97-3.8-1.97s-3.4,.65-4.41,1.96c-1,1.3-1.5,3.17-1.5,5.58v15.29h-7.38v-38.02h7.38v13.46c1.06-1.64,2.3-2.78,3.7-3.43,1.4-.65,2.87-.97,4.42-.97,1.74,0,3.31,.3,4.73,.91Z"/><path d="M870.61,374.59c1.37-.17,2.35-.39,2.95-.65,1.06-.45,1.59-1.15,1.59-2.1,0-1.16-.41-1.95-1.22-2.39-.81-.44-2.01-.66-3.58-.66-1.77,0-3.02,.43-3.75,1.29-.52,.64-.87,1.5-1.05,2.59h-7.12c.16-2.47,.85-4.49,2.08-6.08,1.96-2.48,5.32-3.73,10.08-3.73,3.1,0,5.86,.61,8.27,1.84,2.41,1.23,3.61,3.54,3.61,6.94v12.94c0,.9,.02,1.98,.05,3.26,.05,.97,.2,1.62,.44,1.97,.24,.35,.6,.63,1.09,.85v1.09h-8.02c-.22-.57-.38-1.1-.47-1.6-.09-.5-.16-1.07-.21-1.71-1.02,1.1-2.2,2.04-3.54,2.82-1.6,.91-3.4,1.37-5.41,1.37-2.57,0-4.69-.73-6.36-2.19-1.67-1.46-2.51-3.52-2.51-6.2,0-3.47,1.35-5.98,4.04-7.53,1.48-.85,3.65-1.45,6.52-1.81l2.53-.31Zm4.51,3.44c-.47,.29-.95,.53-1.43,.71-.48,.18-1.14,.35-1.98,.5l-1.68,.31c-1.57,.28-2.7,.61-3.39,1.01-1.16,.67-1.74,1.72-1.74,3.13,0,1.26,.35,2.17,1.06,2.73,.71,.56,1.57,.84,2.59,.84,1.61,0,3.1-.47,4.45-1.4,1.36-.93,2.06-2.63,2.12-5.1v-2.74Z"/><path d="M905.78,373.66c-.14-1.05-.49-2-1.06-2.85-.83-1.14-2.12-1.71-3.87-1.71-2.49,0-4.19,1.23-5.11,3.7-.48,1.31-.73,3.05-.73,5.21s.24,3.73,.73,4.98c.88,2.35,2.54,3.52,4.98,3.52,1.73,0,2.96-.47,3.68-1.4,.73-.93,1.17-2.14,1.32-3.62h7.53c-.17,2.24-.98,4.37-2.44,6.37-2.31,3.23-5.74,4.84-10.28,4.84s-7.88-1.35-10.02-4.04c-2.14-2.69-3.21-6.18-3.21-10.47,0-4.84,1.18-8.6,3.55-11.3s5.63-4.04,9.79-4.04c3.54,0,6.44,.79,8.69,2.38,2.25,1.59,3.59,4.39,4,8.41h-7.56Z"/><path d="M936.77,364.11c1.97,.88,3.59,2.27,4.88,4.17,1.16,1.68,1.9,3.62,2.25,5.83,.2,1.3,.28,3.16,.24,5.6h-20.54c.11,2.83,1.1,4.81,2.95,5.95,1.13,.71,2.48,1.06,4.07,1.06,1.68,0,3.04-.43,4.1-1.29,.57-.47,1.08-1.11,1.52-1.94h7.53c-.2,1.67-1.11,3.37-2.73,5.1-2.53,2.74-6.06,4.11-10.61,4.11-3.75,0-7.07-1.16-9.94-3.47-2.87-2.31-4.3-6.08-4.3-11.29,0-4.89,1.29-8.63,3.89-11.24,2.59-2.61,5.95-3.91,10.09-3.91,2.46,0,4.67,.44,6.63,1.32Zm-11.03,6.37c-1.04,1.07-1.7,2.53-1.96,4.37h12.71c-.13-1.96-.79-3.44-1.96-4.46-1.18-1.01-2.63-1.52-4.37-1.52-1.89,0-3.36,.54-4.4,1.61Z"/><path d="M953.58,382.74c.16,1.31,.49,2.24,1.01,2.79,.92,.98,2.62,1.48,5.1,1.48,1.46,0,2.61-.22,3.47-.65,.86-.43,1.29-1.08,1.29-1.94s-.35-1.46-1.04-1.89c-.69-.43-3.26-1.17-7.72-2.23-3.21-.79-5.46-1.79-6.77-2.98-1.31-1.17-1.97-2.86-1.97-5.07,0-2.6,1.02-4.84,3.07-6.72s4.93-2.81,8.65-2.81,6.4,.7,8.62,2.11c2.22,1.41,3.5,3.83,3.83,7.29h-7.38c-.1-.95-.37-1.7-.8-2.25-.81-1-2.2-1.5-4.15-1.5-1.61,0-2.75,.25-3.44,.75-.68,.5-1.03,1.09-1.03,1.76,0,.85,.36,1.46,1.09,1.84,.73,.4,3.29,1.08,7.7,2.04,2.94,.69,5.14,1.73,6.61,3.13,1.45,1.42,2.17,3.18,2.17,5.31,0,2.79-1.04,5.08-3.12,6.84-2.08,1.77-5.3,2.65-9.66,2.65s-7.72-.94-9.84-2.81c-2.12-1.87-3.18-4.26-3.18-7.16h7.48Z"/><path d="M1003.24,374.59c1.37-.17,2.35-.39,2.95-.65,1.06-.45,1.59-1.15,1.59-2.1,0-1.16-.41-1.95-1.22-2.39-.81-.44-2.01-.66-3.58-.66-1.77,0-3.02,.43-3.75,1.29-.53,.64-.88,1.5-1.05,2.59h-7.12c.16-2.47,.85-4.49,2.08-6.08,1.96-2.48,5.32-3.73,10.08-3.73,3.1,0,5.86,.61,8.26,1.84,2.41,1.23,3.61,3.54,3.61,6.94v12.94c0,.9,.02,1.98,.05,3.26,.05,.97,.2,1.62,.44,1.97,.24,.35,.6,.63,1.09,.85v1.09h-8.02c-.22-.57-.38-1.1-.47-1.6-.09-.5-.16-1.07-.21-1.71-1.02,1.1-2.2,2.04-3.54,2.82-1.6,.91-3.4,1.37-5.42,1.37-2.57,0-4.69-.73-6.36-2.19-1.67-1.46-2.51-3.52-2.51-6.2,0-3.47,1.35-5.98,4.04-7.53,1.48-.85,3.65-1.45,6.52-1.81l2.53-.31Zm4.51,3.44c-.47,.29-.95,.53-1.43,.71-.48,.18-1.14,.35-1.98,.5l-1.68,.31c-1.57,.28-2.7,.61-3.39,1.01-1.16,.67-1.74,1.72-1.74,3.13,0,1.26,.35,2.17,1.06,2.73,.71,.56,1.57,.84,2.59,.84,1.61,0,3.1-.47,4.45-1.4,1.36-.93,2.06-2.63,2.12-5.1v-2.74Z"/><path d="M1038.41,373.66c-.14-1.05-.49-2-1.06-2.85-.83-1.14-2.12-1.71-3.87-1.71-2.49,0-4.19,1.23-5.11,3.7-.48,1.31-.73,3.05-.73,5.21s.24,3.73,.73,4.98c.88,2.35,2.54,3.52,4.98,3.52,1.73,0,2.96-.47,3.68-1.4s1.17-2.14,1.32-3.62h7.53c-.17,2.24-.98,4.37-2.43,6.37-2.31,3.23-5.74,4.84-10.28,4.84s-7.88-1.35-10.03-4.04-3.21-6.18-3.21-10.47c0-4.84,1.18-8.6,3.55-11.3,2.37-2.69,5.63-4.04,9.79-4.04,3.54,0,6.44,.79,8.69,2.38,2.25,1.59,3.59,4.39,4,8.41h-7.56Z"/><path d="M1048.12,369.05v-5.25h3.93v-7.87h7.3v7.87h4.58v5.25h-4.58v14.91c0,1.16,.15,1.88,.44,2.16,.29,.29,1.19,.43,2.69,.43,.22,0,.46,0,.71-.01,.25,0,.5-.02,.74-.04v5.51l-3.49,.13c-3.49,.12-5.87-.48-7.14-1.81-.83-.85-1.24-2.15-1.24-3.91v-17.36h-3.93Z"/><path d="M1076.25,360.18h-7.48v-6.81h7.48v6.81Zm-7.48,3.36h7.48v28.21h-7.48v-28.21Z"/><path d="M1100.77,363.54h7.92l-10.19,28.21h-7.78l-10.12-28.21h8.28l5.87,20.81,6-20.81Z"/><path d="M1120.45,360.18h-7.48v-6.81h7.48v6.81Zm-7.48,3.36h7.48v28.21h-7.48v-28.21Z"/><path d="M1142.55,364c1.33,.75,2.41,1.79,3.23,3.12v-13.46h7.48v38.09h-7.17v-3.91c-1.05,1.67-2.25,2.89-3.6,3.65s-3.02,1.14-5.02,1.14c-3.3,0-6.07-1.33-8.32-4-2.25-2.67-3.38-6.09-3.38-10.26,0-4.81,1.11-8.6,3.33-11.36,2.22-2.76,5.18-4.14,8.89-4.14,1.71,0,3.23,.38,4.55,1.13Zm1.81,20.09c1.09-1.55,1.63-3.56,1.63-6.03,0-3.45-.87-5.92-2.61-7.4-1.07-.9-2.31-1.35-3.73-1.35-2.16,0-3.74,.81-4.75,2.45-1.01,1.63-1.51,3.65-1.51,6.07,0,2.61,.51,4.69,1.54,6.25s2.58,2.34,4.67,2.34,3.67-.78,4.76-2.33Z"/><path d="M1171.14,374.59c1.37-.17,2.35-.39,2.95-.65,1.06-.45,1.59-1.15,1.59-2.1,0-1.16-.41-1.95-1.22-2.39-.81-.44-2.01-.66-3.58-.66-1.77,0-3.02,.43-3.75,1.29-.53,.64-.88,1.5-1.05,2.59h-7.12c.16-2.47,.85-4.49,2.08-6.08,1.96-2.48,5.32-3.73,10.08-3.73,3.1,0,5.86,.61,8.26,1.84,2.41,1.23,3.61,3.54,3.61,6.94v12.94c0,.9,.02,1.98,.05,3.26,.05,.97,.2,1.62,.44,1.97,.24,.35,.6,.63,1.09,.85v1.09h-8.02c-.22-.57-.38-1.1-.47-1.6-.09-.5-.16-1.07-.21-1.71-1.02,1.1-2.2,2.04-3.54,2.82-1.6,.91-3.4,1.37-5.42,1.37-2.57,0-4.69-.73-6.36-2.19-1.67-1.46-2.51-3.52-2.51-6.2,0-3.47,1.35-5.98,4.04-7.53,1.48-.85,3.65-1.45,6.52-1.81l2.53-.31Zm4.51,3.44c-.47,.29-.95,.53-1.43,.71-.48,.18-1.14,.35-1.98,.5l-1.68,.31c-1.57,.28-2.7,.61-3.39,1.01-1.16,.67-1.74,1.72-1.74,3.13,0,1.26,.35,2.17,1.06,2.73,.71,.56,1.57,.84,2.59,.84,1.61,0,3.1-.47,4.45-1.4,1.36-.93,2.06-2.63,2.12-5.1v-2.74Z"/><path d="M1204.4,364c1.33,.75,2.41,1.79,3.23,3.12v-13.46h7.48v38.09h-7.17v-3.91c-1.05,1.67-2.25,2.89-3.6,3.65s-3.02,1.14-5.02,1.14c-3.3,0-6.07-1.33-8.32-4-2.25-2.67-3.38-6.09-3.38-10.26,0-4.81,1.11-8.6,3.33-11.36,2.22-2.76,5.18-4.14,8.89-4.14,1.71,0,3.23,.38,4.55,1.13Zm1.81,20.09c1.09-1.55,1.63-3.56,1.63-6.03,0-3.45-.87-5.92-2.61-7.4-1.07-.9-2.31-1.35-3.73-1.35-2.16,0-3.74,.81-4.75,2.45-1.01,1.63-1.51,3.65-1.51,6.07,0,2.61,.51,4.69,1.54,6.25s2.58,2.34,4.67,2.34,3.67-.78,4.76-2.33Z"/><path d="M1240.2,364.11c1.97,.88,3.59,2.27,4.87,4.17,1.16,1.68,1.9,3.62,2.25,5.83,.2,1.3,.28,3.16,.24,5.6h-20.54c.11,2.83,1.1,4.81,2.95,5.95,1.13,.71,2.48,1.06,4.07,1.06,1.68,0,3.04-.43,4.09-1.29,.57-.47,1.08-1.11,1.52-1.94h7.53c-.2,1.67-1.11,3.37-2.73,5.1-2.53,2.74-6.06,4.11-10.61,4.11-3.75,0-7.07-1.16-9.94-3.47-2.87-2.31-4.3-6.08-4.3-11.29,0-4.89,1.29-8.63,3.89-11.24,2.59-2.61,5.95-3.91,10.09-3.91,2.45,0,4.67,.44,6.63,1.32Zm-11.03,6.37c-1.04,1.07-1.7,2.53-1.96,4.37h12.71c-.13-1.96-.79-3.44-1.96-4.46-1.18-1.01-2.63-1.52-4.38-1.52-1.89,0-3.36,.54-4.4,1.61Z"/><path d="M1257.01,382.74c.16,1.31,.49,2.24,1.01,2.79,.92,.98,2.62,1.48,5.1,1.48,1.46,0,2.61-.22,3.47-.65,.86-.43,1.29-1.08,1.29-1.94s-.35-1.46-1.04-1.89c-.69-.43-3.26-1.17-7.72-2.23-3.21-.79-5.46-1.79-6.77-2.98-1.31-1.17-1.97-2.86-1.97-5.07,0-2.6,1.02-4.84,3.07-6.72s4.93-2.81,8.65-2.81c3.53,0,6.4,.7,8.62,2.11,2.22,1.41,3.5,3.83,3.83,7.29h-7.38c-.1-.95-.37-1.7-.8-2.25-.81-1-2.2-1.5-4.15-1.5-1.61,0-2.75,.25-3.44,.75-.68,.5-1.02,1.09-1.02,1.76,0,.85,.36,1.46,1.09,1.84,.73,.4,3.29,1.08,7.7,2.04,2.94,.69,5.14,1.73,6.61,3.13,1.45,1.42,2.17,3.18,2.17,5.31,0,2.79-1.04,5.08-3.12,6.84-2.08,1.77-5.3,2.65-9.66,2.65s-7.72-.94-9.84-2.81c-2.12-1.87-3.18-4.26-3.18-7.16h7.48Z"/><path d="M237.72,437.26c-.14-1.05-.49-2-1.06-2.85-.83-1.14-2.12-1.71-3.87-1.71-2.49,0-4.19,1.23-5.11,3.7-.48,1.31-.73,3.05-.73,5.21s.24,3.73,.73,4.98c.88,2.35,2.54,3.52,4.98,3.52,1.73,0,2.96-.47,3.68-1.4s1.17-2.14,1.32-3.62h7.53c-.17,2.24-.98,4.37-2.43,6.37-2.31,3.23-5.74,4.84-10.28,4.84s-7.88-1.35-10.03-4.04-3.21-6.18-3.21-10.47c0-4.84,1.18-8.6,3.55-11.3,2.37-2.69,5.63-4.04,9.79-4.04,3.54,0,6.44,.79,8.69,2.38,2.25,1.59,3.59,4.39,4,8.41h-7.56Z"/><path d="M273.85,451.9c-2.38,2.94-6,4.41-10.84,4.41s-8.46-1.47-10.84-4.41-3.57-6.48-3.57-10.61,1.19-7.59,3.57-10.57c2.38-2.98,6-4.47,10.84-4.47s8.46,1.49,10.84,4.47c2.38,2.98,3.57,6.51,3.57,10.57s-1.19,7.68-3.57,10.61Zm-5.9-4.08c1.16-1.53,1.73-3.71,1.73-6.54s-.58-5-1.73-6.52c-1.16-1.52-2.81-2.29-4.97-2.29s-3.82,.76-4.98,2.29c-1.17,1.52-1.75,3.7-1.75,6.52s.58,5,1.75,6.54c1.16,1.53,2.82,2.3,4.98,2.3s3.81-.77,4.97-2.3Z"/><path d="M279.8,432.65v-5.25h3.93v-7.87h7.3v7.87h4.58v5.25h-4.58v14.91c0,1.16,.15,1.88,.44,2.16,.29,.29,1.19,.43,2.69,.43,.22,0,.46,0,.71-.01,.25,0,.5-.02,.74-.04v5.51l-3.49,.13c-3.49,.12-5.87-.48-7.14-1.81-.83-.85-1.24-2.15-1.24-3.91v-17.36h-3.93Z"/><path d="M307.93,423.78h-7.48v-6.81h7.48v6.81Zm-7.48,3.36h7.48v28.21h-7.48v-28.21Z"/><path d="M330.03,427.59c1.33,.75,2.41,1.79,3.24,3.12v-13.46h7.48v38.09h-7.17v-3.91c-1.05,1.67-2.25,2.89-3.6,3.65s-3.02,1.14-5.02,1.14c-3.29,0-6.07-1.33-8.32-4-2.25-2.67-3.38-6.09-3.38-10.26,0-4.81,1.11-8.6,3.33-11.36,2.22-2.76,5.18-4.14,8.89-4.14,1.71,0,3.23,.38,4.55,1.13Zm1.81,20.09c1.09-1.55,1.63-3.56,1.63-6.03,0-3.45-.87-5.92-2.61-7.4-1.07-.9-2.31-1.35-3.73-1.35-2.16,0-3.74,.81-4.75,2.45-1.01,1.63-1.51,3.65-1.51,6.07,0,2.61,.51,4.69,1.54,6.25s2.58,2.34,4.67,2.34,3.67-.78,4.76-2.33Z"/><path d="M355.03,423.78h-7.48v-6.81h7.48v6.81Zm-7.48,3.36h7.48v28.21h-7.48v-28.21Z"/><path d="M373.34,438.19c1.37-.17,2.35-.39,2.95-.65,1.06-.45,1.59-1.15,1.59-2.1,0-1.16-.41-1.95-1.22-2.39-.81-.44-2.01-.66-3.58-.66-1.77,0-3.02,.43-3.75,1.29-.53,.64-.88,1.5-1.05,2.59h-7.12c.16-2.47,.85-4.49,2.08-6.08,1.96-2.48,5.32-3.73,10.08-3.73,3.1,0,5.86,.61,8.26,1.84,2.41,1.23,3.61,3.54,3.61,6.94v12.94c0,.9,.02,1.98,.05,3.26,.05,.97,.2,1.62,.44,1.97,.24,.35,.6,.63,1.09,.85v1.09h-8.02c-.22-.57-.38-1.1-.47-1.6-.09-.5-.16-1.07-.21-1.71-1.02,1.1-2.2,2.04-3.54,2.82-1.6,.91-3.4,1.37-5.42,1.37-2.57,0-4.69-.73-6.36-2.19-1.67-1.46-2.51-3.52-2.51-6.2,0-3.47,1.35-5.98,4.04-7.53,1.48-.85,3.65-1.45,6.52-1.81l2.53-.31Zm4.51,3.44c-.47,.29-.95,.53-1.43,.71-.48,.18-1.14,.35-1.98,.5l-1.68,.31c-1.57,.28-2.7,.61-3.39,1.01-1.16,.67-1.74,1.72-1.74,3.13,0,1.26,.35,2.17,1.06,2.73,.71,.56,1.57,.84,2.59,.84,1.61,0,3.1-.47,4.45-1.4,1.36-.93,2.06-2.63,2.12-5.1v-2.74Z"/><path d="M414.39,428.76c1.85,1.53,2.77,4.06,2.77,7.6v19h-7.56v-17.16c0-1.48-.2-2.62-.59-3.42-.72-1.45-2.09-2.17-4.11-2.17-2.48,0-4.19,1.06-5.11,3.18-.48,1.12-.72,2.55-.72,4.3v15.27h-7.38v-28.16h7.14v4.11c.94-1.45,1.84-2.49,2.68-3.13,1.51-1.14,3.43-1.71,5.75-1.71,2.9,0,5.28,.76,7.12,2.29Z"/><path d="M435.2,438.19c1.37-.17,2.35-.39,2.95-.65,1.06-.45,1.59-1.15,1.59-2.1,0-1.16-.41-1.95-1.22-2.39-.81-.44-2.01-.66-3.58-.66-1.77,0-3.02,.43-3.75,1.29-.53,.64-.88,1.5-1.05,2.59h-7.12c.16-2.47,.85-4.49,2.08-6.08,1.96-2.48,5.32-3.73,10.08-3.73,3.1,0,5.86,.61,8.26,1.84,2.41,1.23,3.61,3.54,3.61,6.94v12.94c0,.9,.02,1.98,.05,3.26,.05,.97,.2,1.62,.44,1.97,.24,.35,.6,.63,1.09,.85v1.09h-8.02c-.22-.57-.38-1.1-.47-1.6-.09-.5-.16-1.07-.21-1.71-1.02,1.1-2.2,2.04-3.54,2.82-1.6,.91-3.4,1.37-5.42,1.37-2.57,0-4.69-.73-6.36-2.19-1.67-1.46-2.51-3.52-2.51-6.2,0-3.47,1.35-5.98,4.04-7.53,1.48-.85,3.65-1.45,6.52-1.81l2.53-.31Zm4.51,3.44c-.47,.29-.95,.53-1.43,.71-.48,.18-1.14,.35-1.98,.5l-1.68,.31c-1.57,.28-2.7,.61-3.39,1.01-1.16,.67-1.74,1.72-1.74,3.13,0,1.26,.35,2.17,1.06,2.73,.71,.56,1.57,.84,2.59,.84,1.61,0,3.1-.47,4.45-1.4,1.36-.93,2.06-2.63,2.12-5.1v-2.74Z"/><path d="M459.22,446.34c.16,1.31,.49,2.24,1.01,2.79,.92,.98,2.62,1.48,5.1,1.48,1.46,0,2.61-.22,3.47-.65,.86-.43,1.29-1.08,1.29-1.94s-.35-1.46-1.04-1.89c-.69-.43-3.26-1.17-7.72-2.23-3.21-.79-5.46-1.79-6.77-2.98-1.31-1.17-1.97-2.86-1.97-5.07,0-2.6,1.02-4.84,3.07-6.72s4.93-2.81,8.65-2.81c3.53,0,6.4,.7,8.62,2.11,2.22,1.41,3.5,3.83,3.83,7.29h-7.38c-.1-.95-.37-1.7-.8-2.25-.81-1-2.2-1.5-4.15-1.5-1.61,0-2.75,.25-3.44,.75-.68,.5-1.02,1.09-1.02,1.76,0,.85,.36,1.46,1.09,1.84,.73,.4,3.29,1.08,7.7,2.04,2.94,.69,5.14,1.73,6.61,3.13,1.45,1.42,2.17,3.18,2.17,5.31,0,2.79-1.04,5.08-3.12,6.84-2.08,1.77-5.3,2.65-9.66,2.65s-7.72-.94-9.84-2.81c-2.12-1.87-3.18-4.26-3.18-7.16h7.48Z"/><path d="M514.57,437.26c-.14-1.05-.49-2-1.06-2.85-.83-1.14-2.12-1.71-3.87-1.71-2.49,0-4.19,1.23-5.11,3.7-.48,1.31-.73,3.05-.73,5.21s.24,3.73,.73,4.98c.88,2.35,2.54,3.52,4.98,3.52,1.73,0,2.96-.47,3.68-1.4s1.17-2.14,1.32-3.62h7.53c-.17,2.24-.98,4.37-2.43,6.37-2.31,3.23-5.74,4.84-10.28,4.84s-7.88-1.35-10.03-4.04-3.21-6.18-3.21-10.47c0-4.84,1.18-8.6,3.55-11.3,2.37-2.69,5.63-4.04,9.79-4.04,3.54,0,6.44,.79,8.69,2.38,2.25,1.59,3.59,4.39,4,8.41h-7.56Z"/><path d="M550.7,451.9c-2.38,2.94-6,4.41-10.84,4.41s-8.46-1.47-10.84-4.41-3.57-6.48-3.57-10.61,1.19-7.59,3.57-10.57c2.38-2.98,6-4.47,10.84-4.47s8.46,1.49,10.84,4.47c2.38,2.98,3.57,6.51,3.57,10.57s-1.19,7.68-3.57,10.61Zm-5.9-4.08c1.16-1.53,1.73-3.71,1.73-6.54s-.58-5-1.73-6.52c-1.16-1.52-2.81-2.29-4.97-2.29s-3.82,.76-4.98,2.29c-1.17,1.52-1.75,3.7-1.75,6.52s.58,5,1.75,6.54c1.16,1.53,2.82,2.3,4.98,2.3s3.81-.77,4.97-2.3Z"/><path d="M594.75,427.25c1.21,.48,2.3,1.33,3.29,2.54,.79,.98,1.33,2.19,1.6,3.62,.17,.95,.26,2.34,.26,4.17l-.05,17.78h-7.56v-17.96c0-1.07-.17-1.95-.52-2.64-.66-1.31-1.86-1.97-3.62-1.97-2.04,0-3.44,.85-4.22,2.54-.4,.9-.6,1.98-.6,3.23v16.8h-7.43v-16.8c0-1.67-.17-2.89-.52-3.65-.62-1.36-1.84-2.04-3.65-2.04-2.1,0-3.52,.68-4.24,2.04-.4,.78-.59,1.93-.59,3.47v16.98h-7.48v-28.16h7.17v4.11c.91-1.47,1.78-2.51,2.59-3.13,1.43-1.1,3.29-1.66,5.56-1.66,2.16,0,3.9,.47,5.23,1.42,1.07,.88,1.88,2.01,2.43,3.39,.97-1.66,2.17-2.87,3.6-3.65,1.52-.78,3.21-1.16,5.07-1.16,1.24,0,2.47,.24,3.67,.72Z"/><path d="M630.2,451.9c-2.38,2.94-6,4.41-10.84,4.41s-8.46-1.47-10.84-4.41-3.57-6.48-3.57-10.61,1.19-7.59,3.57-10.57c2.38-2.98,6-4.47,10.84-4.47s8.46,1.49,10.84,4.47c2.38,2.98,3.57,6.51,3.57,10.57s-1.19,7.68-3.57,10.61Zm-5.9-4.08c1.16-1.53,1.73-3.71,1.73-6.54s-.58-5-1.73-6.52c-1.16-1.52-2.81-2.29-4.97-2.29s-3.82,.76-4.98,2.29c-1.17,1.52-1.75,3.7-1.75,6.52s.58,5,1.75,6.54c1.16,1.53,2.82,2.3,4.98,2.3s3.81-.77,4.97-2.3Z"/><path d="M659.5,446.34c.16,1.31,.49,2.24,1.01,2.79,.92,.98,2.62,1.48,5.1,1.48,1.46,0,2.61-.22,3.47-.65,.86-.43,1.29-1.08,1.29-1.94s-.35-1.46-1.04-1.89c-.69-.43-3.26-1.17-7.72-2.23-3.21-.79-5.46-1.79-6.77-2.98-1.31-1.17-1.97-2.86-1.97-5.07,0-2.6,1.02-4.84,3.07-6.72s4.93-2.81,8.65-2.81,6.4,.7,8.62,2.11c2.22,1.41,3.5,3.83,3.83,7.29h-7.38c-.1-.95-.37-1.7-.8-2.25-.81-1-2.2-1.5-4.15-1.5-1.61,0-2.75,.25-3.44,.75-.68,.5-1.03,1.09-1.03,1.76,0,.85,.36,1.46,1.09,1.84,.73,.4,3.29,1.08,7.7,2.04,2.94,.69,5.14,1.73,6.61,3.13,1.45,1.42,2.17,3.18,2.17,5.31,0,2.79-1.04,5.08-3.12,6.84-2.08,1.77-5.3,2.65-9.66,2.65s-7.72-.94-9.84-2.81c-2.12-1.87-3.18-4.26-3.18-7.16h7.48Z"/><path d="M690.6,427.14v17c0,1.6,.19,2.81,.57,3.62,.67,1.43,1.98,2.15,3.94,2.15,2.51,0,4.22-1.02,5.15-3.05,.48-1.1,.72-2.56,.72-4.37v-15.35h7.48v28.21h-7.17v-3.99c-.07,.09-.24,.35-.52,.78-.28,.43-.6,.81-.98,1.14-1.15,1.04-2.27,1.74-3.34,2.12-1.08,.38-2.34,.57-3.78,.57-4.16,0-6.97-1.5-8.41-4.5-.81-1.66-1.21-4.1-1.21-7.32v-17h7.56Z"/><path d="M739.71,430.53c2.11,2.67,3.17,6.12,3.17,10.35s-1.04,8.01-3.12,10.9c-2.08,2.88-4.99,4.32-8.71,4.32-2.34,0-4.22-.47-5.64-1.4-.85-.55-1.77-1.52-2.76-2.9v3.55h-7.27v-38.09h7.38v13.56c.94-1.31,1.97-2.31,3.1-3,1.34-.86,3.04-1.29,5.1-1.29,3.73,0,6.65,1.34,8.76,4.01Zm-6.17,17.18c1.06-1.54,1.59-3.55,1.59-6.06,0-2-.26-3.66-.78-4.97-.99-2.48-2.82-3.73-5.48-3.73s-4.55,1.22-5.56,3.65c-.52,1.29-.78,2.97-.78,5.02,0,2.42,.54,4.42,1.62,6,1.08,1.59,2.72,2.38,4.93,2.38,1.91,0,3.4-.77,4.46-2.3Z"/><path d="M755.58,423.78h-7.48v-6.81h7.48v6.81Zm-7.48,3.36h7.48v28.21h-7.48v-28.21Z"/><path d="M778.4,426.48c.09,0,.31,.02,.63,.04v7.56c-.47-.05-.88-.09-1.24-.1-.36-.02-.66-.03-.88-.03-2.97,0-4.96,.97-5.98,2.9-.57,1.09-.85,2.76-.85,5.02v13.48h-7.43v-28.21h7.04v4.92c1.14-1.88,2.13-3.17,2.98-3.86,1.38-1.16,3.17-1.73,5.38-1.73,.14,0,.25,0,.35,.01Z"/><path d="M816.46,427.71c1.97,.88,3.59,2.27,4.87,4.17,1.16,1.68,1.9,3.62,2.25,5.83,.2,1.3,.28,3.16,.24,5.6h-20.54c.11,2.83,1.1,4.81,2.95,5.95,1.13,.71,2.48,1.06,4.07,1.06,1.68,0,3.04-.43,4.09-1.29,.57-.47,1.08-1.11,1.52-1.94h7.53c-.2,1.67-1.11,3.37-2.73,5.1-2.53,2.74-6.06,4.11-10.61,4.11-3.75,0-7.07-1.16-9.94-3.47-2.87-2.31-4.3-6.08-4.3-11.29,0-4.89,1.29-8.63,3.89-11.24,2.59-2.61,5.95-3.91,10.09-3.91,2.45,0,4.67,.44,6.63,1.32Zm-11.03,6.37c-1.04,1.07-1.7,2.53-1.96,4.37h12.71c-.13-1.96-.79-3.44-1.96-4.46-1.18-1.01-2.63-1.52-4.38-1.52-1.89,0-3.36,.54-4.4,1.61Z"/><path d="M833.27,446.34c.16,1.31,.49,2.24,1.01,2.79,.92,.98,2.62,1.48,5.1,1.48,1.46,0,2.61-.22,3.47-.65,.86-.43,1.29-1.08,1.29-1.94s-.35-1.46-1.04-1.89c-.69-.43-3.26-1.17-7.72-2.23-3.21-.79-5.46-1.79-6.77-2.98-1.31-1.17-1.97-2.86-1.97-5.07,0-2.6,1.02-4.84,3.07-6.72s4.93-2.81,8.65-2.81c3.53,0,6.4,.7,8.62,2.11,2.22,1.41,3.5,3.83,3.83,7.29h-7.38c-.1-.95-.37-1.7-.8-2.25-.81-1-2.2-1.5-4.15-1.5-1.61,0-2.75,.25-3.44,.75-.68,.5-1.02,1.09-1.02,1.76,0,.85,.36,1.46,1.09,1.84,.73,.4,3.29,1.08,7.7,2.04,2.94,.69,5.14,1.73,6.61,3.13,1.45,1.42,2.17,3.18,2.17,5.31,0,2.79-1.04,5.08-3.12,6.84-2.08,1.77-5.3,2.65-9.66,2.65s-7.72-.94-9.84-2.81c-2.12-1.87-3.18-4.26-3.18-7.16h7.48Z"/><path d="M873.9,437.26c-.14-1.05-.49-2-1.06-2.85-.83-1.14-2.12-1.71-3.87-1.71-2.49,0-4.19,1.23-5.11,3.7-.48,1.31-.73,3.05-.73,5.21s.24,3.73,.73,4.98c.88,2.35,2.54,3.52,4.98,3.52,1.73,0,2.96-.47,3.68-1.4,.73-.93,1.17-2.14,1.32-3.62h7.53c-.17,2.24-.98,4.37-2.44,6.37-2.31,3.23-5.74,4.84-10.28,4.84s-7.88-1.35-10.02-4.04c-2.14-2.69-3.21-6.18-3.21-10.47,0-4.84,1.18-8.6,3.55-11.3s5.63-4.04,9.79-4.04c3.54,0,6.44,.79,8.69,2.38,2.25,1.59,3.59,4.39,4,8.41h-7.56Z"/><path d="M897.68,438.19c1.37-.17,2.35-.39,2.95-.65,1.06-.45,1.59-1.15,1.59-2.1,0-1.16-.41-1.95-1.22-2.39-.81-.44-2.01-.66-3.58-.66-1.77,0-3.02,.43-3.75,1.29-.52,.64-.87,1.5-1.05,2.59h-7.12c.16-2.47,.85-4.49,2.08-6.08,1.96-2.48,5.32-3.73,10.08-3.73,3.1,0,5.86,.61,8.27,1.84,2.41,1.23,3.61,3.54,3.61,6.94v12.94c0,.9,.02,1.98,.05,3.26,.05,.97,.2,1.62,.44,1.97,.24,.35,.6,.63,1.09,.85v1.09h-8.02c-.22-.57-.38-1.1-.47-1.6-.09-.5-.16-1.07-.21-1.71-1.02,1.1-2.2,2.04-3.54,2.82-1.6,.91-3.4,1.37-5.41,1.37-2.57,0-4.69-.73-6.36-2.19-1.67-1.46-2.51-3.52-2.51-6.2,0-3.47,1.35-5.98,4.04-7.53,1.48-.85,3.65-1.45,6.52-1.81l2.53-.31Zm4.51,3.44c-.47,.29-.95,.53-1.43,.71-.48,.18-1.14,.35-1.98,.5l-1.68,.31c-1.57,.28-2.7,.61-3.39,1.01-1.16,.67-1.74,1.72-1.74,3.13,0,1.26,.35,2.17,1.06,2.73,.71,.56,1.57,.84,2.59,.84,1.61,0,3.1-.47,4.45-1.4,1.36-.93,2.06-2.63,2.12-5.1v-2.74Z"/><path d="M923.51,455.35h-7.38v-38.15h7.38v38.15Z"/><path d="M949.09,427.71c1.97,.88,3.59,2.27,4.88,4.17,1.16,1.68,1.9,3.62,2.25,5.83,.2,1.3,.28,3.16,.24,5.6h-20.54c.11,2.83,1.1,4.81,2.95,5.95,1.13,.71,2.48,1.06,4.07,1.06,1.68,0,3.04-.43,4.1-1.29,.57-.47,1.08-1.11,1.52-1.94h7.53c-.2,1.67-1.11,3.37-2.73,5.1-2.53,2.74-6.06,4.11-10.61,4.11-3.75,0-7.07-1.16-9.94-3.47-2.87-2.31-4.3-6.08-4.3-11.29,0-4.89,1.29-8.63,3.89-11.24,2.59-2.61,5.95-3.91,10.09-3.91,2.46,0,4.67,.44,6.63,1.32Zm-11.03,6.37c-1.04,1.07-1.7,2.53-1.96,4.37h12.71c-.13-1.96-.79-3.44-1.96-4.46-1.18-1.01-2.63-1.52-4.37-1.52-1.89,0-3.36,.54-4.4,1.61Z"/><path d="M975.85,426.48c.09,0,.31,.02,.63,.04v7.56c-.47-.05-.88-.09-1.24-.1-.36-.02-.66-.03-.88-.03-2.97,0-4.96,.97-5.98,2.9-.57,1.09-.85,2.76-.85,5.02v13.48h-7.43v-28.21h7.04v4.92c1.14-1.88,2.13-3.17,2.98-3.86,1.38-1.16,3.17-1.73,5.38-1.73,.14,0,.25,0,.35,.01Z"/><path d="M991.98,438.19c1.37-.17,2.35-.39,2.95-.65,1.06-.45,1.59-1.15,1.59-2.1,0-1.16-.41-1.95-1.22-2.39-.81-.44-2.01-.66-3.58-.66-1.77,0-3.02,.43-3.75,1.29-.52,.64-.87,1.5-1.05,2.59h-7.12c.16-2.47,.85-4.49,2.08-6.08,1.96-2.48,5.32-3.73,10.08-3.73,3.1,0,5.86,.61,8.27,1.84,2.41,1.23,3.61,3.54,3.61,6.94v12.94c0,.9,.02,1.98,.05,3.26,.05,.97,.2,1.62,.44,1.97,.24,.35,.6,.63,1.09,.85v1.09h-8.02c-.22-.57-.38-1.1-.47-1.6-.09-.5-.16-1.07-.21-1.71-1.02,1.1-2.2,2.04-3.54,2.82-1.6,.91-3.4,1.37-5.41,1.37-2.57,0-4.69-.73-6.36-2.19-1.67-1.46-2.51-3.52-2.51-6.2,0-3.47,1.35-5.98,4.04-7.53,1.48-.85,3.65-1.45,6.52-1.81l2.53-.31Zm4.51,3.44c-.47,.29-.95,.53-1.43,.71-.48,.18-1.14,.35-1.98,.5l-1.68,.31c-1.57,.28-2.7,.61-3.39,1.01-1.16,.67-1.74,1.72-1.74,3.13,0,1.26,.35,2.17,1.06,2.73,.71,.56,1.57,.84,2.59,.84,1.61,0,3.1-.47,4.45-1.4,1.36-.93,2.06-2.63,2.12-5.1v-2.74Z"/><path d="M1016,446.34c.16,1.31,.49,2.24,1.01,2.79,.92,.98,2.62,1.48,5.1,1.48,1.46,0,2.61-.22,3.47-.65,.86-.43,1.29-1.08,1.29-1.94s-.35-1.46-1.04-1.89c-.69-.43-3.26-1.17-7.72-2.23-3.21-.79-5.46-1.79-6.77-2.98-1.31-1.17-1.97-2.86-1.97-5.07,0-2.6,1.02-4.84,3.07-6.72s4.93-2.81,8.65-2.81,6.4,.7,8.62,2.11c2.22,1.41,3.5,3.83,3.83,7.29h-7.38c-.1-.95-.37-1.7-.8-2.25-.81-1-2.2-1.5-4.15-1.5-1.61,0-2.75,.25-3.44,.75-.68,.5-1.03,1.09-1.03,1.76,0,.85,.36,1.46,1.09,1.84,.73,.4,3.29,1.08,7.7,2.04,2.94,.69,5.14,1.73,6.61,3.13,1.45,1.42,2.17,3.18,2.17,5.31,0,2.79-1.04,5.08-3.12,6.84-2.08,1.77-5.3,2.65-9.66,2.65s-7.72-.94-9.84-2.81c-2.12-1.87-3.18-4.26-3.18-7.16h7.48Z"/><path d="M1078.01,451.9c-2.38,2.94-6,4.41-10.84,4.41s-8.46-1.47-10.84-4.41-3.57-6.48-3.57-10.61,1.19-7.59,3.57-10.57c2.38-2.98,6-4.47,10.84-4.47s8.46,1.49,10.84,4.47c2.38,2.98,3.57,6.51,3.57,10.57s-1.19,7.68-3.57,10.61Zm-5.9-4.08c1.16-1.53,1.73-3.71,1.73-6.54s-.58-5-1.73-6.52c-1.16-1.52-2.81-2.29-4.97-2.29s-3.82,.76-4.98,2.29c-1.17,1.52-1.75,3.7-1.75,6.52s.58,5,1.75,6.54c1.16,1.53,2.82,2.3,4.98,2.3s3.81-.77,4.97-2.3Z"/><path d="M1109.17,423.78h-7.48v-6.81h7.48v6.81Zm-7.48,3.36h7.48v28.21h-7.48v-28.21Z"/><path d="M1139.06,428.76c1.85,1.53,2.77,4.06,2.77,7.6v19h-7.56v-17.16c0-1.48-.2-2.62-.59-3.42-.72-1.45-2.09-2.17-4.11-2.17-2.48,0-4.19,1.06-5.11,3.18-.48,1.12-.72,2.55-.72,4.3v15.27h-7.38v-28.16h7.14v4.11c.94-1.45,1.84-2.49,2.68-3.13,1.51-1.14,3.43-1.71,5.75-1.71,2.9,0,5.28,.76,7.12,2.29Z"/><path d="M1165.56,437.26c-.14-1.05-.49-2-1.06-2.85-.83-1.14-2.12-1.71-3.87-1.71-2.49,0-4.19,1.23-5.11,3.7-.48,1.31-.73,3.05-.73,5.21s.24,3.73,.73,4.98c.88,2.35,2.54,3.52,4.98,3.52,1.73,0,2.96-.47,3.68-1.4,.73-.93,1.17-2.14,1.32-3.62h7.53c-.17,2.24-.98,4.37-2.44,6.37-2.31,3.23-5.74,4.84-10.28,4.84s-7.88-1.35-10.02-4.04c-2.14-2.69-3.21-6.18-3.21-10.47,0-4.84,1.18-8.6,3.55-11.3s5.63-4.04,9.79-4.04c3.54,0,6.44,.79,8.69,2.38,2.25,1.59,3.59,4.39,4,8.41h-7.56Z"/><path d="M1185.69,455.35h-7.38v-38.15h7.38v38.15Z"/><path d="M1200.23,427.14v17c0,1.6,.19,2.81,.57,3.62,.67,1.43,1.98,2.15,3.94,2.15,2.51,0,4.22-1.02,5.15-3.05,.48-1.1,.72-2.56,.72-4.37v-15.35h7.48v28.21h-7.17v-3.99c-.07,.09-.24,.35-.52,.78-.28,.43-.6,.81-.98,1.14-1.15,1.04-2.27,1.74-3.34,2.12s-2.34,.57-3.78,.57c-4.16,0-6.97-1.5-8.41-4.5-.81-1.66-1.21-4.1-1.21-7.32v-17h7.56Z"/><path d="M1230.98,446.34c.16,1.31,.49,2.24,1.01,2.79,.92,.98,2.62,1.48,5.1,1.48,1.46,0,2.61-.22,3.47-.65,.86-.43,1.29-1.08,1.29-1.94s-.35-1.46-1.04-1.89c-.69-.43-3.26-1.17-7.72-2.23-3.21-.79-5.46-1.79-6.77-2.98-1.31-1.17-1.97-2.86-1.97-5.07,0-2.6,1.02-4.84,3.07-6.72s4.93-2.81,8.65-2.81c3.53,0,6.4,.7,8.62,2.11,2.22,1.41,3.5,3.83,3.83,7.29h-7.38c-.1-.95-.37-1.7-.8-2.25-.81-1-2.2-1.5-4.15-1.5-1.61,0-2.75,.25-3.44,.75-.68,.5-1.02,1.09-1.02,1.76,0,.85,.36,1.46,1.09,1.84,.73,.4,3.29,1.08,7.7,2.04,2.94,.69,5.14,1.73,6.61,3.13,1.45,1.42,2.17,3.18,2.17,5.31,0,2.79-1.04,5.08-3.12,6.84-2.08,1.77-5.3,2.65-9.66,2.65s-7.72-.94-9.84-2.81c-2.12-1.87-3.18-4.26-3.18-7.16h7.48Z"/><path d="M1278.26,451.9c-2.38,2.94-6,4.41-10.84,4.41s-8.46-1.47-10.84-4.41-3.57-6.48-3.57-10.61,1.19-7.59,3.57-10.57c2.38-2.98,6-4.47,10.84-4.47s8.46,1.49,10.84,4.47c2.38,2.98,3.57,6.51,3.57,10.57s-1.19,7.68-3.57,10.61Zm-5.9-4.08c1.16-1.53,1.73-3.71,1.73-6.54s-.58-5-1.73-6.52c-1.16-1.52-2.81-2.29-4.97-2.29s-3.82,.76-4.98,2.29c-1.17,1.52-1.75,3.7-1.75,6.52s.58,5,1.75,6.54c1.16,1.53,2.82,2.3,4.98,2.3s3.81-.77,4.97-2.3Z"/><path d="M323.35,501.79c1.37-.17,2.35-.39,2.95-.65,1.06-.45,1.59-1.15,1.59-2.1,0-1.16-.41-1.95-1.22-2.39-.81-.44-2.01-.66-3.58-.66-1.77,0-3.02,.43-3.75,1.29-.53,.64-.88,1.5-1.05,2.59h-7.12c.16-2.47,.85-4.49,2.08-6.08,1.96-2.48,5.32-3.73,10.08-3.73,3.1,0,5.86,.61,8.26,1.84,2.41,1.23,3.61,3.54,3.61,6.94v12.94c0,.9,.02,1.98,.05,3.26,.05,.97,.2,1.62,.44,1.97,.24,.35,.6,.63,1.09,.85v1.09h-8.02c-.22-.57-.38-1.1-.47-1.6-.09-.5-.16-1.07-.21-1.71-1.02,1.1-2.2,2.04-3.54,2.82-1.6,.91-3.4,1.37-5.42,1.37-2.57,0-4.69-.73-6.36-2.19-1.67-1.46-2.51-3.52-2.51-6.2,0-3.47,1.35-5.98,4.04-7.53,1.48-.85,3.65-1.45,6.52-1.81l2.53-.31Zm4.51,3.44c-.47,.29-.95,.53-1.43,.71-.48,.18-1.14,.35-1.98,.5l-1.68,.31c-1.57,.28-2.7,.61-3.39,1.01-1.16,.67-1.74,1.72-1.74,3.13,0,1.26,.35,2.17,1.06,2.73,.71,.56,1.57,.84,2.59,.84,1.61,0,3.1-.47,4.45-1.4,1.36-.93,2.06-2.63,2.12-5.1v-2.74Z"/><path d="M349.18,518.95h-7.38v-38.15h7.38v38.15Z"/><path d="M394.82,493.77c2.3,2.43,3.45,6,3.45,10.71,0,4.97-1.12,8.76-3.37,11.36-2.25,2.61-5.14,3.91-8.69,3.91-2.26,0-4.13-.56-5.63-1.68-.82-.62-1.61-1.53-2.4-2.72v14.7h-7.3v-39.31h7.06v4.17c.8-1.22,1.65-2.19,2.55-2.9,1.65-1.26,3.61-1.89,5.89-1.89,3.32,0,6.12,1.22,8.43,3.65Zm-5.66,5.31c-1-1.67-2.63-2.51-4.88-2.51-2.7,0-4.56,1.27-5.57,3.8-.52,1.35-.78,3.05-.78,5.12,0,3.28,.88,5.58,2.64,6.91,1.04,.78,2.28,1.16,3.71,1.16,2.07,0,3.66-.79,4.75-2.38,1.09-1.59,1.63-3.7,1.63-6.34,0-2.17-.5-4.1-1.5-5.77Z"/><path d="M421.86,491.31c1.97,.88,3.59,2.27,4.87,4.17,1.16,1.68,1.9,3.62,2.25,5.83,.2,1.3,.28,3.16,.24,5.6h-20.54c.11,2.83,1.1,4.81,2.95,5.95,1.13,.71,2.48,1.06,4.07,1.06,1.68,0,3.04-.43,4.09-1.29,.57-.47,1.08-1.11,1.52-1.94h7.53c-.2,1.67-1.11,3.37-2.73,5.1-2.53,2.74-6.06,4.11-10.61,4.11-3.75,0-7.07-1.16-9.94-3.47-2.87-2.31-4.3-6.08-4.3-11.29,0-4.89,1.29-8.63,3.89-11.24,2.59-2.61,5.95-3.91,10.09-3.91,2.45,0,4.67,.44,6.63,1.32Zm-11.03,6.37c-1.04,1.07-1.7,2.53-1.96,4.37h12.71c-.13-1.96-.79-3.44-1.96-4.46-1.18-1.01-2.63-1.52-4.38-1.52-1.89,0-3.36,.54-4.4,1.61Z"/><path d="M440.53,487.38h-7.48v-6.81h7.48v6.81Zm-7.48,3.36h7.48v28.21h-7.48v-28.21Z"/><path d="M470.42,492.36c1.85,1.53,2.77,4.06,2.77,7.6v19h-7.56v-17.16c0-1.48-.2-2.62-.59-3.42-.72-1.45-2.09-2.17-4.11-2.17-2.48,0-4.19,1.06-5.11,3.18-.48,1.12-.72,2.55-.72,4.3v15.27h-7.38v-28.16h7.14v4.11c.95-1.45,1.84-2.49,2.68-3.13,1.51-1.14,3.43-1.71,5.75-1.71,2.9,0,5.28,.76,7.13,2.29Z"/><path d="M491.22,501.79c1.37-.17,2.35-.39,2.95-.65,1.06-.45,1.59-1.15,1.59-2.1,0-1.16-.41-1.95-1.22-2.39-.81-.44-2.01-.66-3.58-.66-1.77,0-3.02,.43-3.75,1.29-.52,.64-.87,1.5-1.05,2.59h-7.12c.16-2.47,.85-4.49,2.08-6.08,1.96-2.48,5.32-3.73,10.08-3.73,3.1,0,5.86,.61,8.27,1.84,2.41,1.23,3.61,3.54,3.61,6.94v12.94c0,.9,.02,1.98,.05,3.26,.05,.97,.2,1.62,.44,1.97,.24,.35,.6,.63,1.09,.85v1.09h-8.02c-.22-.57-.38-1.1-.47-1.6-.09-.5-.16-1.07-.21-1.71-1.02,1.1-2.2,2.04-3.54,2.82-1.6,.91-3.4,1.37-5.41,1.37-2.57,0-4.69-.73-6.36-2.19-1.67-1.46-2.51-3.52-2.51-6.2,0-3.47,1.35-5.98,4.04-7.53,1.48-.85,3.65-1.45,6.52-1.81l2.53-.31Zm4.51,3.44c-.47,.29-.95,.53-1.43,.71-.48,.18-1.14,.35-1.98,.5l-1.68,.31c-1.57,.28-2.7,.61-3.39,1.01-1.16,.67-1.74,1.72-1.74,3.13,0,1.26,.35,2.17,1.06,2.73,.71,.56,1.57,.84,2.59,.84,1.61,0,3.1-.47,4.45-1.4,1.36-.93,2.06-2.63,2.12-5.1v-2.74Z"/><path d="M525.2,490.08c.09,0,.31,.02,.63,.04v7.56c-.47-.05-.88-.09-1.24-.1-.36-.02-.66-.03-.88-.03-2.97,0-4.96,.97-5.98,2.9-.57,1.09-.85,2.76-.85,5.02v13.48h-7.43v-28.21h7.04v4.92c1.14-1.88,2.13-3.17,2.98-3.86,1.38-1.16,3.17-1.73,5.38-1.73,.14,0,.25,0,.35,.01Z"/><path d="M527.25,496.25v-5.25h3.93v-7.87h7.3v7.87h4.58v5.25h-4.58v14.91c0,1.16,.15,1.88,.44,2.16,.29,.29,1.19,.43,2.69,.43,.22,0,.46,0,.71-.01,.25,0,.5-.02,.74-.04v5.51l-3.49,.13c-3.49,.12-5.87-.48-7.14-1.81-.83-.85-1.24-2.15-1.24-3.91v-17.36h-3.93Z"/><path d="M566.18,491.31c1.97,.88,3.59,2.27,4.88,4.17,1.16,1.68,1.9,3.62,2.25,5.83,.2,1.3,.28,3.16,.24,5.6h-20.54c.11,2.83,1.1,4.81,2.95,5.95,1.13,.71,2.48,1.06,4.07,1.06,1.68,0,3.04-.43,4.1-1.29,.57-.47,1.08-1.11,1.52-1.94h7.53c-.2,1.67-1.11,3.37-2.73,5.1-2.53,2.74-6.06,4.11-10.61,4.11-3.75,0-7.07-1.16-9.94-3.47-2.87-2.31-4.3-6.08-4.3-11.29,0-4.89,1.29-8.63,3.89-11.24,2.59-2.61,5.95-3.91,10.09-3.91,2.46,0,4.67,.44,6.63,1.32Zm-11.03,6.37c-1.04,1.07-1.7,2.53-1.96,4.37h12.71c-.13-1.96-.79-3.44-1.96-4.46-1.18-1.01-2.63-1.52-4.37-1.52-1.89,0-3.36,.54-4.4,1.61Z"/><path d="M615.53,515.5c-2.38,2.94-6,4.41-10.84,4.41s-8.46-1.47-10.84-4.41-3.57-6.48-3.57-10.61,1.19-7.59,3.57-10.57c2.38-2.98,6-4.47,10.84-4.47s8.46,1.49,10.84,4.47c2.38,2.98,3.57,6.51,3.57,10.57s-1.19,7.68-3.57,10.61Zm-5.9-4.08c1.16-1.53,1.73-3.71,1.73-6.54s-.58-5-1.73-6.52-2.81-2.29-4.97-2.29-3.82,.76-4.98,2.29c-1.17,1.52-1.75,3.7-1.75,6.52s.58,5,1.75,6.54c1.16,1.53,2.83,2.3,4.98,2.3s3.81-.77,4.97-2.3Z"/><path d="M655.98,500.86c-.14-1.05-.49-2-1.06-2.85-.83-1.14-2.12-1.71-3.87-1.71-2.49,0-4.19,1.23-5.11,3.7-.48,1.31-.73,3.05-.73,5.21s.24,3.73,.73,4.98c.88,2.35,2.54,3.52,4.98,3.52,1.73,0,2.96-.47,3.68-1.4s1.17-2.14,1.32-3.62h7.53c-.17,2.24-.98,4.37-2.43,6.37-2.31,3.23-5.74,4.84-10.28,4.84s-7.88-1.35-10.03-4.04-3.21-6.18-3.21-10.47c0-4.84,1.18-8.6,3.55-11.3,2.37-2.69,5.63-4.04,9.79-4.04,3.54,0,6.44,.79,8.69,2.38,2.25,1.59,3.59,4.39,4,8.41h-7.56Z"/><path d="M686.96,491.31c1.97,.88,3.59,2.27,4.87,4.17,1.16,1.68,1.9,3.62,2.25,5.83,.2,1.3,.28,3.16,.24,5.6h-20.54c.11,2.83,1.1,4.81,2.95,5.95,1.13,.71,2.48,1.06,4.07,1.06,1.68,0,3.04-.43,4.09-1.29,.57-.47,1.08-1.11,1.52-1.94h7.53c-.2,1.67-1.11,3.37-2.73,5.1-2.53,2.74-6.06,4.11-10.61,4.11-3.75,0-7.07-1.16-9.94-3.47-2.87-2.31-4.3-6.08-4.3-11.29,0-4.89,1.29-8.63,3.89-11.24,2.59-2.61,5.95-3.91,10.09-3.91,2.45,0,4.67,.44,6.63,1.32Zm-11.03,6.37c-1.04,1.07-1.7,2.53-1.96,4.37h12.71c-.13-1.96-.79-3.44-1.96-4.46-1.18-1.01-2.63-1.52-4.38-1.52-1.89,0-3.36,.54-4.4,1.61Z"/><path d="M721.78,493.77c2.3,2.43,3.45,6,3.45,10.71,0,4.97-1.12,8.76-3.37,11.36-2.25,2.61-5.14,3.91-8.69,3.91-2.26,0-4.13-.56-5.63-1.68-.82-.62-1.61-1.53-2.4-2.72v14.7h-7.3v-39.31h7.06v4.17c.8-1.22,1.65-2.19,2.55-2.9,1.65-1.26,3.61-1.89,5.89-1.89,3.32,0,6.12,1.22,8.43,3.65Zm-5.66,5.31c-1-1.67-2.63-2.51-4.88-2.51-2.7,0-4.56,1.27-5.57,3.8-.52,1.35-.78,3.05-.78,5.12,0,3.28,.88,5.58,2.64,6.91,1.04,.78,2.28,1.16,3.71,1.16,2.07,0,3.66-.79,4.75-2.38,1.09-1.59,1.63-3.7,1.63-6.34,0-2.17-.5-4.1-1.5-5.77Z"/><path d="M738.01,487.38h-7.48v-6.81h7.48v6.81Zm-7.48,3.36h7.48v28.21h-7.48v-28.21Z"/><path d="M752.68,518.95h-7.38v-38.15h7.38v38.15Z"/><path d="M767.41,518.95h-7.38v-38.15h7.38v38.15Z"/><path d="M785.78,501.79c1.37-.17,2.35-.39,2.95-.65,1.06-.45,1.59-1.15,1.59-2.1,0-1.16-.41-1.95-1.22-2.39-.81-.44-2.01-.66-3.58-.66-1.77,0-3.02,.43-3.75,1.29-.52,.64-.87,1.5-1.05,2.59h-7.12c.16-2.47,.85-4.49,2.08-6.08,1.96-2.48,5.32-3.73,10.08-3.73,3.1,0,5.86,.61,8.27,1.84,2.41,1.23,3.61,3.54,3.61,6.94v12.94c0,.9,.02,1.98,.05,3.26,.05,.97,.2,1.62,.44,1.97,.24,.35,.6,.63,1.09,.85v1.09h-8.02c-.22-.57-.38-1.1-.47-1.6-.09-.5-.16-1.07-.21-1.71-1.02,1.1-2.2,2.04-3.54,2.82-1.6,.91-3.4,1.37-5.41,1.37-2.57,0-4.69-.73-6.36-2.19-1.67-1.46-2.51-3.52-2.51-6.2,0-3.47,1.35-5.98,4.04-7.53,1.48-.85,3.65-1.45,6.52-1.81l2.53-.31Zm4.51,3.44c-.47,.29-.95,.53-1.43,.71-.48,.18-1.14,.35-1.98,.5l-1.68,.31c-1.57,.28-2.7,.61-3.39,1.01-1.16,.67-1.74,1.72-1.74,3.13,0,1.26,.35,2.17,1.06,2.73,.71,.56,1.57,.84,2.59,.84,1.61,0,3.1-.47,4.45-1.4,1.36-.93,2.06-2.63,2.12-5.1v-2.74Z"/><path d="M819.75,490.08c.09,0,.31,.02,.63,.04v7.56c-.47-.05-.88-.09-1.24-.1-.36-.02-.66-.03-.88-.03-2.97,0-4.96,.97-5.98,2.9-.57,1.09-.85,2.76-.85,5.02v13.48h-7.43v-28.21h7.04v4.92c1.14-1.88,2.13-3.17,2.98-3.86,1.38-1.16,3.17-1.73,5.38-1.73,.14,0,.25,0,.35,.01Z"/><path d="M821.81,496.25v-5.25h3.93v-7.87h7.3v7.87h4.58v5.25h-4.58v14.91c0,1.16,.15,1.88,.44,2.16,.29,.29,1.19,.43,2.69,.43,.22,0,.46,0,.71-.01,.25,0,.5-.02,.74-.04v5.51l-3.49,.13c-3.49,.12-5.87-.48-7.14-1.81-.83-.85-1.24-2.15-1.24-3.91v-17.36h-3.93Z"/><path d="M860.74,491.31c1.97,.88,3.59,2.27,4.88,4.17,1.16,1.68,1.9,3.62,2.25,5.83,.2,1.3,.28,3.16,.24,5.6h-20.54c.11,2.83,1.1,4.81,2.95,5.95,1.13,.71,2.48,1.06,4.07,1.06,1.68,0,3.04-.43,4.1-1.29,.57-.47,1.08-1.11,1.52-1.94h7.53c-.2,1.67-1.11,3.37-2.73,5.1-2.53,2.74-6.06,4.11-10.61,4.11-3.75,0-7.07-1.16-9.94-3.47-2.87-2.31-4.3-6.08-4.3-11.29,0-4.89,1.29-8.63,3.89-11.24,2.59-2.61,5.95-3.91,10.09-3.91,2.46,0,4.67,.44,6.63,1.32Zm-11.03,6.37c-1.04,1.07-1.7,2.53-1.96,4.37h12.71c-.13-1.96-.79-3.44-1.96-4.46-1.18-1.01-2.63-1.52-4.37-1.52-1.89,0-3.36,.54-4.4,1.61Z"/><path d="M894.09,518.95h-7.38v-38.15h7.38v38.15Z"/><path d="M924.81,515.5c-2.38,2.94-6,4.41-10.84,4.41s-8.46-1.47-10.84-4.41-3.57-6.48-3.57-10.61,1.19-7.59,3.57-10.57c2.38-2.98,6-4.47,10.84-4.47s8.46,1.49,10.84,4.47c2.38,2.98,3.57,6.51,3.57,10.57s-1.19,7.68-3.57,10.61Zm-5.9-4.08c1.16-1.53,1.73-3.71,1.73-6.54s-.58-5-1.73-6.52c-1.16-1.52-2.81-2.29-4.97-2.29s-3.82,.76-4.98,2.29c-1.17,1.52-1.75,3.7-1.75,6.52s.58,5,1.75,6.54c1.16,1.53,2.82,2.3,4.98,2.3s3.81-.77,4.97-2.3Z"/><path d="M939.38,509.94c.16,1.31,.49,2.24,1.01,2.79,.92,.98,2.62,1.48,5.1,1.48,1.46,0,2.61-.22,3.47-.65,.86-.43,1.29-1.08,1.29-1.94s-.35-1.46-1.04-1.89c-.69-.43-3.26-1.17-7.72-2.23-3.21-.79-5.46-1.79-6.77-2.98-1.31-1.17-1.97-2.86-1.97-5.07,0-2.6,1.02-4.84,3.07-6.72s4.93-2.81,8.65-2.81c3.53,0,6.4,.7,8.62,2.11,2.22,1.41,3.5,3.83,3.83,7.29h-7.38c-.1-.95-.37-1.7-.8-2.25-.81-1-2.2-1.5-4.15-1.5-1.61,0-2.75,.25-3.44,.75-.68,.5-1.02,1.09-1.02,1.76,0,.85,.36,1.46,1.09,1.84,.73,.4,3.29,1.08,7.7,2.04,2.94,.69,5.14,1.73,6.61,3.13,1.45,1.42,2.17,3.18,2.17,5.31,0,2.79-1.04,5.08-3.12,6.84-2.08,1.77-5.3,2.65-9.66,2.65s-7.72-.94-9.84-2.81c-2.12-1.87-3.18-4.26-3.18-7.16h7.48Z"/><path d="M992.82,491.2c1.33,.75,2.41,1.79,3.23,3.12v-13.46h7.48v38.09h-7.17v-3.91c-1.05,1.67-2.25,2.89-3.6,3.65s-3.02,1.14-5.02,1.14c-3.3,0-6.07-1.33-8.32-4-2.25-2.67-3.38-6.09-3.38-10.26,0-4.81,1.11-8.6,3.33-11.36,2.22-2.76,5.18-4.14,8.89-4.14,1.71,0,3.23,.38,4.55,1.13Zm1.81,20.09c1.09-1.55,1.63-3.56,1.63-6.03,0-3.45-.87-5.92-2.61-7.4-1.07-.9-2.31-1.35-3.73-1.35-2.16,0-3.74,.81-4.75,2.45-1.01,1.63-1.51,3.65-1.51,6.07,0,2.61,.51,4.69,1.54,6.25s2.58,2.34,4.67,2.34,3.67-.78,4.76-2.33Z"/><path d="M1017.81,487.38h-7.48v-6.81h7.48v6.81Zm-7.48,3.36h7.48v28.21h-7.48v-28.21Z"/><path d="M1043.34,491.31c1.97,.88,3.59,2.27,4.88,4.17,1.16,1.68,1.9,3.62,2.25,5.83,.2,1.3,.28,3.16,.24,5.6h-20.54c.11,2.83,1.1,4.81,2.95,5.95,1.13,.71,2.48,1.06,4.07,1.06,1.68,0,3.04-.43,4.1-1.29,.57-.47,1.08-1.11,1.52-1.94h7.53c-.2,1.67-1.11,3.37-2.73,5.1-2.53,2.74-6.06,4.11-10.61,4.11-3.75,0-7.07-1.16-9.94-3.47-2.87-2.31-4.3-6.08-4.3-11.29,0-4.89,1.29-8.63,3.89-11.24,2.59-2.61,5.95-3.91,10.09-3.91,2.46,0,4.67,.44,6.63,1.32Zm-11.03,6.37c-1.04,1.07-1.7,2.53-1.96,4.37h12.71c-.13-1.96-.79-3.44-1.96-4.46-1.18-1.01-2.63-1.52-4.37-1.52-1.89,0-3.36,.54-4.4,1.61Z"/><path d="M1077.18,492.36c1.85,1.53,2.77,4.06,2.77,7.6v19h-7.56v-17.16c0-1.48-.2-2.62-.59-3.42-.72-1.45-2.09-2.17-4.11-2.17-2.48,0-4.19,1.06-5.11,3.18-.48,1.12-.72,2.55-.72,4.3v15.27h-7.38v-28.16h7.14v4.11c.95-1.45,1.84-2.49,2.68-3.13,1.51-1.14,3.43-1.71,5.75-1.71,2.9,0,5.28,.76,7.13,2.29Z"/><path d="M1083.91,496.25v-5.25h3.93v-7.87h7.3v7.87h4.58v5.25h-4.58v14.91c0,1.16,.15,1.88,.44,2.16,.29,.29,1.19,.43,2.69,.43,.22,0,.46,0,.71-.01,.25,0,.5-.02,.74-.04v5.51l-3.49,.13c-3.49,.12-5.87-.48-7.14-1.81-.83-.85-1.24-2.15-1.24-3.91v-17.36h-3.93Z"/><path d="M1122.84,491.31c1.97,.88,3.59,2.27,4.88,4.17,1.16,1.68,1.9,3.62,2.25,5.83,.2,1.3,.28,3.16,.24,5.6h-20.54c.11,2.83,1.1,4.81,2.95,5.95,1.13,.71,2.48,1.06,4.07,1.06,1.68,0,3.04-.43,4.1-1.29,.57-.47,1.08-1.11,1.52-1.94h7.53c-.2,1.67-1.11,3.37-2.73,5.1-2.53,2.74-6.06,4.11-10.61,4.11-3.75,0-7.07-1.16-9.94-3.47-2.87-2.31-4.3-6.08-4.3-11.29,0-4.89,1.29-8.63,3.89-11.24,2.59-2.61,5.95-3.91,10.09-3.91,2.46,0,4.67,.44,6.63,1.32Zm-11.03,6.37c-1.04,1.07-1.7,2.53-1.96,4.37h12.71c-.13-1.96-.79-3.44-1.96-4.46-1.18-1.01-2.63-1.52-4.37-1.52-1.89,0-3.36,.54-4.4,1.61Z"/><path d="M1139.65,509.94c.16,1.31,.49,2.24,1.01,2.79,.92,.98,2.62,1.48,5.1,1.48,1.46,0,2.61-.22,3.47-.65,.86-.43,1.29-1.08,1.29-1.94s-.35-1.46-1.04-1.89c-.69-.43-3.26-1.17-7.72-2.23-3.21-.79-5.46-1.79-6.77-2.98-1.31-1.17-1.97-2.86-1.97-5.07,0-2.6,1.02-4.84,3.07-6.72s4.93-2.81,8.65-2.81,6.4,.7,8.62,2.11c2.22,1.41,3.5,3.83,3.83,7.29h-7.38c-.1-.95-.37-1.7-.8-2.25-.81-1-2.2-1.5-4.15-1.5-1.61,0-2.75,.25-3.44,.75-.68,.5-1.03,1.09-1.03,1.76,0,.85,.36,1.46,1.09,1.84,.73,.4,3.29,1.08,7.7,2.04,2.94,.69,5.14,1.73,6.61,3.13,1.45,1.42,2.17,3.18,2.17,5.31,0,2.79-1.04,5.08-3.12,6.84-2.08,1.77-5.3,2.65-9.66,2.65s-7.72-.94-9.84-2.81c-2.12-1.87-3.18-4.26-3.18-7.16h7.48Z"/><path d="M1168.3,482.38c2.04-1.31,4.54-1.97,7.5-1.97,3.9,0,7.14,.93,9.72,2.79s3.87,4.62,3.87,8.28c0,2.24-.56,4.13-1.68,5.67-.65,.93-1.91,2.12-3.77,3.57l-1.83,1.42c-1,.78-1.66,1.68-1.99,2.72-.21,.66-.32,1.67-.34,3.05h-7.01c.1-2.92,.38-4.93,.83-6.04,.45-1.11,1.6-2.39,3.46-3.84l1.88-1.48c.62-.47,1.12-.97,1.5-1.53,.69-.95,1.03-1.99,1.03-3.13,0-1.31-.38-2.51-1.15-3.58-.77-1.08-2.16-1.62-4.2-1.62s-3.41,.66-4.25,1.99c-.83,1.33-1.25,2.71-1.25,4.14h-7.48c.21-4.92,1.92-8.4,5.15-10.46Zm4.3,29.09h7.74v7.48h-7.74v-7.48Z"/></g><text class="cls-3" transform="translate(620.6 228.48)"><tspan x="0" y="0">PREGUN</tspan><tspan class="cls-34" x="128.35" y="0">T</tspan><tspan class="cls-35" x="144.46" y="0">A</tspan><tspan x="162.83" y="0" xml:space="preserve"> 2 DE 10</tspan></text></g><g id="Detective"><g class="cls-31"><g><g><path class="cls-5" d="M1680.63,803.92c24.47,84.82,78.59,168.35,81.77,254.61,2.78,75.63,42.81,159.72,53.94,234.58-15.47-1.23-99.84-5.15-139.24-6.04-14.66-161.05-25.18-322.1,3.53-483.15Z"/><path class="cls-24" d="M1729.09,995.35c19.92,79.46,18.55,273.49,17.19,424.78h-62.88s-19.17-149.44-20.9-201.99c-1.49-45.07-1.23-128.82,0-214.36,.62-42.79,48.13-49.08,58.54-7.54l8.05-.89Z"/><path class="cls-24" d="M1821.67,995.35c19.92,79.46,18.55,273.49,17.19,424.78h-62.88s-19.17-149.44-20.9-201.99c-1.49-45.07-1.23-128.82,0-214.36,.62-42.79,48.13-49.08,58.54-7.54l8.05-.89Z"/><path class="cls-5" d="M1816.2,716.34s-54.37-98.17-165.47-15.29l6.8,29.95,151.37-1.07,7.31-13.58Z"/><path class="cls-24" d="M1603.93,1074.24l21.41-5.7c-10.19-38.29-2.64-80.48,20.19-112.87l-18.11-12.77c-26.56,37.68-35.34,86.78-23.49,131.34Z"/><path class="cls-23" d="M1627.94,904.52c2.85-40.75,7.67-81.37,14.46-121.66,1.11-6.57,2.18-39.71,9.44-43.41,13.04-6.64,18.38,15.42,19.67,23.93,2.07,13.56,5.23,27.06,9.12,40.54-28.71,161.05-18.19,322.1-3.53,483.15-8.26-.19-14.6-.24-17.85-.11-10.84-45.42-19.12-91.44-24.84-137.78-10.01-81.09-12.18-163.16-6.47-244.67Z"/><path class="cls-23" d="M1774.72,706.39c11.67,.81,22.31,3.44,29.72,9.43,16.79,13.57,11.16,54.68,10.36,73.84-2.91,69.55-24.23,136.67-30.94,205.77-1.81,18.62-4.6,40.68-21.21,49.28-2.01,1.04-4.12,1.79-6.28,2.36-3.46-113.64-11.9-231.48,18.36-340.68Z"/><path class="cls-8" d="M1754.87,1003.23c-33.7,2.48-64.3-3.24-91.67-22.06,2.05-88.39,11.65-175.91,23.97-264.5,8.69-2.39,17.83-3.84,26.56-5.04,15.31-2.1,39.87-6.7,60.99-5.24-26.39,95.22-23.35,197-19.85,296.84Z"/><path class="cls-23" d="M1642.71,779.3c.52-13.69,1.53-28.05,8.87-39.62,7.88-12.41,21.09-19.02,35.59-23.01-14.49,104.24-25.24,222.84-24.58,327.07-3.42-3.39-4.42-21.56-6.6-25.9-5-9.92-5.84-21.35-6.59-32.43-4.64-68.62-9.29-137.39-6.69-206.11Z"/><path class="cls-21" d="M1731.29,731.87c4.85,11.98,9.31,27.9,15.39,39.3,17.92-16.78,29.39-40.27,31.61-64.71,.09-.97-6.54-1.04-7.18-.84-1.96,.62-2.39,1.56-3.79,3.06-7.83,8.38-20.45,15.17-36.03,23.19Z"/><path class="cls-21" d="M1731.29,731.87c-4.45,13.33-7.78,25.61-12.91,39.3-15.32-15.43-25.13-33.1-27.03-55.58-.07-.89,5.6-4.89,6.14-4.71,1.68,.57,2.04,1.43,3.24,2.81,6.69,7.7,17.24,10.79,30.56,18.17Z"/><path class="cls-28" d="M1740.97,753.15c-.1,2.96-11.77,10.42-11.77,10.42-2.6-3.37-7.4-12.23-7.56-13.78-.16-1.49,.47-2.94,1.09-4.31,1.47-3.25,2.94-6.49,4.4-9.74,.67-1.49,2-5.07,3.7-5.67,2.35-.84,3.1,2.48,3.74,4.17,.73,1.93,6.46,16.85,6.39,18.92Z"/><path class="cls-24" d="M1812.88,716.1c.66,.92,1.5,1.83,1.51,2.96,0,.84-.41,1.62-.81,2.36-5.65,10.26-11.3,20.52-16.95,30.77-5.06-.68-10.12-1.36-15.19-2.05-.76,6.06,8.5,9.2,9.01,15.29,.14,1.68-.44,3.32-1.01,4.91-11.84,33.03-23.69,66.07-35.53,99.1,1.06-23.56,2.13-47.11,3.19-70.67,1.64-36.24,3.46-73.34,17.33-106.86,.89-2.16,26.8,8.09,38.44,24.18Z"/><path class="cls-24" d="M1655.29,707.69c-.8,.75-1.74,1.45-2.02,2.55-.21,.82-.03,1.66,.15,2.47,2.51,11.17,5.02,22.34,7.53,33.51,4.59,.42,9.18,.84,13.77,1.25-.77,6.05-9.62,7.12-11.5,12.93-.52,1.6-.41,3.32-.28,4.98,2.53,34.62,5.05,69.24,7.58,103.86,4.65-23.11,9.31-46.22,13.96-69.33,7.16-35.56,14.36-71.98,10.18-107.51-.27-2.29-25.36,2.14-39.35,15.29Z"/><path class="cls-23" d="M1860.71,1123.03c16.42,52.45,29.33,108.17,42.7,161.47-37.95,8.93-103.96,8.33-141.97-.34-3.55-67.26-11.87-134.25-13.92-201.57-2.05-67.33,2.35-135.7,23.53-199.64,6.45,3.39,17.13,1.99,22.16,7.28,4.96,5.21,45.76,6.84,46.35,13.46,2.11,23.89,2.79,56.03,1.63,79.98-2.24,46.19,1.22,80.92,19.53,139.37Z"/><path class="cls-28" d="M1727.9,942.3c2.75-19.14,6.36-63.51,5.56-95.24,.3-36.97,1.99-87.91-2.21-95.78-11.89,17.21-21.8,61.1-25.55,93.34-3.84,32.21-6.4,64.28-7.94,96.41l30.13,1.26Z"/><path class="cls-24" d="M1746.78,937.8c5.78-2.72,11.6-4.23,17.22-5.69,5.6-1.45,10.9-2.83,15.14-5.22,5.42-3.06,15.69-8.21,17.71-14.12,5.12,11.01,4.8,20.66,1.79,29.63-2.63,1.83-5.49,3.55-8.6,5.31-6.77,3.83-13.73,4.1-20.47,5.85-4.85,1.26-9.44,2.45-13.35,4.29-11.86,5.58-19.66,19.6-18.14,32.62l-22.01,2.56c-2.61-22.41,10.31-45.64,30.72-55.24Z"/><path class="cls-12" d="M1747.64,1001.26l-1.1,17.3c-2.89,.19-5.79,.23-8.66,.25-7.44,.05-14.94,.08-22.37-.36-1.67-6.27-2.27-12.85-2.47-20,11.36,2.13,23.03,3.12,34.6,2.82Z"/><path class="cls-27" d="M1662.52,979.4c14.77,9.23,32.23,15.61,50.51,19.04,.2,7.15,.79,13.73,2.47,20-8.01-.47-15.95-1.47-23.67-3.62-10.21-2.84-21.85-9.8-29.31-17.19-.04-6.24-.03-12,0-18.24Z"/><path class="cls-24" d="M1746.54,1018.56s-28.36,.57-39.75-1.13l25.16,26.31,13.49-2.29,1.1-22.89Z"/></g><path class="cls-24" d="M1887.61,587.15l-49.09,38.42,85.65-8.27-3.21,255.58h-25.28s-20.32-230.31-20.32-230.31c0,0-134.04,27.74-135.04,27.74-1,0-125.32-19.57-125.32-19.57l-75.86-11.42,12.79-36.5,116.21,14.97-26.17-22.71c76.86-39.14,161.92-46.85,245.65-7.94Z"/><g><rect class="cls-11" x="1719.12" y="556.55" width="86.48" height="124.54" rx="13.66" ry="13.66" transform="translate(3524.71 1237.65) rotate(-180)"/><path class="cls-20" d="M1719.47,590.62c7.36-4.34,24.45,2.73,44.35,2.73,17.64,0,33.02-8.92,41.43-5.36v15.87c-8.4,3.57-23.78,18.33-41.43,18.33-19.9,0-36.99-12.35-44.35-16.69v-14.88Z"/></g><path class="cls-30" d="M1843.43,496.38c0,25.38-27.51,45.94-61.45,45.94h-34.56c-33.93,0-61.43-20.57-61.43-45.94v-65.09c0-25.36,27.51-45.93,61.43-45.93h34.56c33.95,0,61.45,20.57,61.45,45.93v65.09Z"/><path class="cls-11" d="M1747.19,409.98h30.34c29.78,0,53.92,26.28,53.92,58.71v2.49s0,68.67,0,68.67v1.02c0,24.06-34.62,76.92-71.41,76.92h-1.6c-38.29,0-65.18-55.02-65.18-79.09v-1.03s0-66.51,0-66.51v-2.49c0-32.43,24.15-58.71,53.93-58.71Z"/><path class="cls-24" d="M1760.33,479.88c4.38,16.15,.4,32.85-3.44,48.69,0,0-.35-.78-.35-.78,3.62,1.73,7.82,2.63,11.86,2.69,4.11,.02,8.17-1.71,11.12-4.62-5.65,7.05-16.02,6.53-23.62,3.15,0,0-.48-.22-.48-.22l.13-.56c1.8-7.93,3.48-16,4.84-24.01,1.18-8.04,1.2-16.3-.07-24.35h0Z"/><path class="cls-11" d="M1854.71,491.89s1.45,34.74-23.25,32.73v-8.47s0-23.58,0-23.58v-9.16c.97-.73,18.23-13.33,23.25,8.48Z"/><path class="cls-11" d="M1670,491.89s-1.44,34.74,23.26,32.73v-8.47s0-23.58,0-23.58v-9.16c-.98-.73-18.23-13.33-23.26,8.48Z"/><path class="cls-7" d="M1708.75,427.31c37.54-17.33,75.08,17.33,112.63,0,0-2.89,0-5.77,0-8.66-37.55,17.33-75.09-17.33-112.63,0,0,2.89,0,5.77,0,8.66Z"/><path class="cls-7" d="M1708.38,420.17c37.55-17.33,75.09,17.33,112.63,0,0-2.89,0-5.78,0-8.66-37.55,17.33-75.09-17.33-112.63,0,0,2.89,0,5.78,0,8.66Z"/><path class="cls-7" d="M1708.75,414.32c37.54-17.33,75.08,17.33,112.63,0,0-2.89,0-5.78,0-8.67-37.55,17.33-75.09-17.33-112.63,0,0,2.89,0,5.78,0,8.67Z"/><path class="cls-30" d="M1826.2,439.84c0,5.93,0,11.86,0,17.78,0,5.61,0,11.21,0,16.82,0,1.53,.14,2.99,.15,4.45l-.15-.25c0,.83,0,1.66,0,2.49-.02,.17-.02,.33-.06,.5-.56,2.92-1.13,5.84-1.69,8.76,.57-.04,1.13-.29,1.54-.69-1.08,1.8-.65,4.08-.79,6.18-.21,3.24-1.87,6.33-1.64,9.57,.51,.03,.97-.32,1.19-.77-.36,4.74-.84,9.48-1.47,14.2,.23-.22,.45-.45,.68-.67-.07,5.98-3.1,11.85-7.93,15.37,.55,.08,1.09,.15,1.64,.23-3.19,3.87-7.09,7.15-11.45,9.62,.48,.06,.95,.11,1.43,.15-3.09,1.09-6.68,1.73-10.89,1.73l28.5,6.74,2.82-6.74h3.37s0-105.45,0-105.45h-5.26Z"/><path class="cls-11" d="M1831.46,545.29c-3.66,25.54-36.62,72.51-71.53,72.51h-1.61c-35.36,0-61.04-46.28-65.06-72.51h138.19Z"/><path class="cls-10" d="M1773.93,496.3c0,1.06,.77,2.09,5.72,4.52,4.94,2.44,8,3.86,13.07,1.7s11.84-4.8,12.86-7.32,.38-2.76-6.44-4.23c-6.82-1.48-8.81-2.17-14.63-.32-5.82,1.85-10.58,4.31-10.57,5.65Z"/><path class="cls-2" d="M1774.92,494.79s9.3-4.82,14.4-5.17c5.1-.34,16.4,3.1,16.4,3.1"/><path class="cls-2" d="M1803.94,497.11s-10.46,6.17-15.79,6.54c-3.83,.26-13-5.28-13-5.28"/><path class="cls-10" d="M1709.7,493.36c-.11,1.05,.54,2.16,5.18,5.12,4.64,2.97,7.52,4.72,12.8,3.14,5.28-1.59,12.3-3.46,13.59-5.85,1.29-2.39,.68-2.7-5.94-4.92-6.62-2.22-8.52-3.13-14.51-1.93-5.99,1.2-10.99,3.12-11.13,4.45Z"/><path class="cls-2" d="M1710.84,491.96s9.78-3.77,14.88-3.54c5.11,.22,15.96,4.89,15.96,4.89"/><path class="cls-2" d="M1739.43,497.48s-11.08,4.98-16.41,4.75c-3.83-.16-12.33-6.68-12.33-6.68"/><g><path class="cls-22" d="M1798.06,405.49c13.56,2.18,27.21,4.38,40.21,8.8,22.26,7.56,42.24,21.67,56.81,40.12,4.65,5.88,8.95,13.31,6.82,20.49-2.96,9.99-15.79,12.6-26.21,12.49-25.25-.27-50.09-6-74.7-11.7-41.14-9.53-82.65-19.19-120.77-37.34-14.67-6.99-29.28-15.67-38.29-29.2-1.86-2.8-3.52-6.14-2.7-9.4,5.4-21.35,49.66-12.15,63.97-9.54,31.48,5.73,63.25,10.19,94.85,15.27Z"/><path class="cls-26" d="M1693.5,393.15c8.09-13.32,16.19-26.64,24.28-39.96,4.27-7.03,8.67-14.21,15.05-19.41,6.38-5.2,15.24-8.13,23-5.4,7.33,2.58,13.44,9.89,21.13,8.77,6.68-.97,10.58-7.77,14.22-13.46,3.64-5.69,9.85-11.56,16.23-9.33,2.32,.81,4.16,2.59,5.83,4.4,15.57,16.87,23.21,39.64,27.13,62.26,3.02,17.44,5.44,35.84,6.27,53.57-53,.44-105.27-16.62-153.14-41.45Z"/><path class="cls-24" d="M1846.64,434.6c.02,.5,.08,1.02,.1,1.52,.81,19.59-11.6,15.95-27.16,12.68-46.04-9.67-91.19-23.56-134.71-41.43,2.88-4.74,5.76-9.48,8.64-14.22,47.87,24.83,100.14,41.89,153.14,41.45Z"/></g><path class="cls-30" d="M1703.84,532.78c.22,.29,.44,.58,.66,.86,1.37,1.73,2.92,3.51,5.04,4.09-5.87-4.52-9.46-11.85-9.43-19.25l1.25,.18c-.68-4.15-1.37-8.3-2.05-12.45-.16-.99-.31-2.06,.19-2.93,.84,.32,1.67,.64,2.51,.96-1.33-3.55-2.31-7.24-2.92-10.98,.35,.13,.7,.26,1.06,.39-1.88-5.06-1.5-10.65-1.1-16.03,.16-2.11,.32-4.23,.48-6.34,.06-.78,.12-1.57,.1-2.35-.04-2.12-.59-4.18-1.12-6.24l-.75-16.89-4.5-1.6v101.1s3.37,0,3.37,0l2.82,6.74,28.51-6.74c-12.8,0-20.03-5.85-24.12-12.52Z"/><path class="cls-26" d="M1914.95,781.12l6,91.77s3.31-73.21-6-91.77Z"/><polygon class="cls-14" points="1912.17 602.34 1839.06 613.44 1705.73 619.34 1474.98 586.87 1509.02 987.79 1703.81 972.18 1891.34 992.69 1904.86 989.2 1912.17 602.34"/><polygon class="cls-16" points="1871.56 608.51 1878.99 752.82 1863.82 771.17 1858.04 791.13 1880.65 819.35 1891.34 992.69 1904.86 989.2 1912.17 602.34 1871.56 608.51"/><path class="cls-16" d="M1715.53,913.01s93.19,32.6,92.23,32.28-79.92-36.51-79.92-36.51l110.98,24.66,34.91-7.69-37.16-.96-131.32-37.8-101.22,37.8-17.62-.96,22.1,9.93,42.6-8.97-25.62,16.01,70.15-21.46,19.88-6.34Z"/><g><polygon class="cls-24" points="1518.8 742.81 1486.19 733.49 1471.33 763.13 1487.64 816.05 1504.67 816.05 1509.02 801.23 1518.8 797.85 1521.33 788.53 1530.39 782.6 1530.39 767.36 1524.6 764.4 1524.6 755.08 1518.8 742.81"/><path class="cls-26" d="M1524.6,764.4l-42.07-9.5s30.21,3.07,42.07,9.5Z"/><path class="cls-26" d="M1521.33,788.53l-38.81-7.04s25.33,7.87,38.81,7.04Z"/><path class="cls-26" d="M1509.02,801.23s-16.75,1.02-22.86-3.12l22.86,3.12Z"/></g><g><polygon class="cls-24" points="1876.39 760.8 1909 751.48 1923.86 781.12 1907.56 834.04 1890.53 834.04 1886.18 819.22 1876.39 815.84 1873.86 806.52 1864.8 800.59 1864.8 785.35 1870.6 782.39 1870.6 773.07 1876.39 760.8"/><path class="cls-26" d="M1870.45,782.4l42.07-9.5s-30.21,3.07-42.07,9.5Z"/><path class="cls-26" d="M1873.71,806.53l38.81-7.04s-25.33,7.87-38.81,7.04Z"/><path class="cls-26" d="M1886.03,819.24s16.75,1.02,22.86-3.12l-22.86,3.12Z"/></g><g><rect class="cls-16" x="1710.86" y="804.4" width="146.88" height="7.98" transform="translate(3568.59 1616.78) rotate(-180)"/><rect class="cls-16" x="1714.18" y="819.52" width="143.56" height="7.98" transform="translate(3571.91 1647.03) rotate(-180)"/><rect class="cls-16" x="1733.38" y="834.65" width="124.36" height="7.98" transform="translate(3591.11 1677.28) rotate(-180)"/><rect class="cls-16" x="1719.42" y="849.78" width="138.31" height="7.98" transform="translate(3577.16 1707.54) rotate(-180)"/><rect class="cls-16" x="1823.94" y="864.9" width="33.8" height="7.98" transform="translate(3681.67 1737.79) rotate(-180)"/><rect class="cls-16" x="1536.14" y="804.4" width="146.88" height="7.98" transform="translate(3219.16 1616.78) rotate(-180)"/><rect class="cls-16" x="1547.5" y="819.52" width="135.52" height="7.98" transform="translate(3230.52 1647.03) rotate(-180)"/><rect class="cls-16" x="1539.13" y="834.65" width="143.89" height="7.98" transform="translate(3222.15 1677.28) rotate(-180)"/><rect class="cls-16" x="1544.71" y="849.78" width="138.31" height="7.98" transform="translate(3227.73 1707.54) rotate(-180)"/><rect class="cls-16" x="1563.67" y="864.9" width="119.35" height="7.98" transform="translate(3246.69 1737.79) rotate(-180)"/></g><g><rect class="cls-18" x="1527.09" y="672.24" width="332.97" height="51.96" transform="translate(3387.15 1396.43) rotate(-180)"/><rect class="cls-18" x="1623.31" y="722.31" width="236.76" height="48.18" transform="translate(3483.37 1492.8) rotate(-180)"/></g></g></g></g><g id="Bigote_D"><path class="cls-30" d="M1759.25,556.44c2.01-7.77-3.14-15.78-10.1-19.74-7.21-4.21-16.21-4.44-23.32-2.12-3.62,1.13-6.89,2.83-9.75,4.92-2.96,2.16-5.14,4.55-6.59,6.6-1.53,2.11-2.39,3.95-3.64,5.93-1.34,2.05-2.94,4.11-6.73,5.46,1.21,4.01,5.58,6.18,9.64,6.94,4.23,.7,8.36-.19,11.56-1.04l13.28-4.06c3.53-1.05,6.19-2.18,9.77-3.14,3.75-.82,8.41-1.85,15.87,.25Z"/><path class="cls-30" d="M1758.27,556.44c7.43-2.1,12.06-1.08,15.76-.25,3.52,.96,6.1,2.09,9.56,3.13l13.13,4.04c3.18,.85,7.28,1.76,11.51,1.07,4.05-.75,8.43-2.93,9.59-6.94-3.78-1.34-5.34-3.41-6.64-5.46-1.21-1.97-2.04-3.8-3.54-5.91-1.42-2.05-3.57-4.43-6.51-6.59-2.84-2.1-6.09-3.81-9.7-4.94-7.07-2.33-16.09-2.1-23.26,2.13-6.92,3.98-11.97,12.01-9.9,19.72Z"/></g><g id="Ojos_D"><g class="cls-33"><circle class="cls-28" cx="1782.99" cy="496.36" r="6.96"/><ellipse class="cls-24" cx="1781.05" cy="494.29" rx="4.36" ry="4.9" transform="translate(-29.09 120.32) rotate(-3.84)"/></g><g class="cls-32"><circle class="cls-28" cx="1718.69" cy="494.42" r="6.96"/><ellipse class="cls-24" cx="1716.99" cy="492.15" rx="4.9" ry="4.36" transform="translate(1150.19 2185.96) rotate(-87.49)"/></g></g><g id="Cejas_D"><path class="cls-30" d="M1744.97,471.14c-1.52-1.43-2.92-3.06-4.95-3.54l.67-.5c-1.56-.91-3.21-1.68-4.92-2.27,.21-.21,.49-.35,.78-.38-2.4-.74-4.9-1.13-7.4-1.18,.2-.13,.35-.34,.42-.57-1.73-.07-3.47-.01-5.2,.17-.03-.21-.06-.42-.08-.62-2.76,.65-5.55,1.19-8.36,1.6-.04-.3-.08-.6-.12-.89-1.31,.71-2.51,1.52-3.69,2.37-.62,.21-1.23,.43-1.84,.66-2.01,.79-4.1,3.23-4.14,4.9v-.03c-.11,.52-.14,1.1-.11,1.79,0,.22,.68,3.39,.82,3.28,11.25-8.77,30.11-5.45,36.35,3.19,.34-.34,1.16-2.98,1.16-2.98,0,0,2.09-3.63,.62-5.02Zm-38.06-1.7s.01,0,.02-.01c-.01,.02-.03,.03-.04,.05l.02-.04Z"/><path class="cls-30" d="M1810.33,488.81c-.01-1.42-.4-2.83-1.11-4.06,.34-.13,.67-.26,1.01-.39-2.36-2.16-5.13-3.86-8.12-4.98,.31-.15,.63-.3,.94-.46-2.89-1.66-6.3-2.39-9.61-2.06-.13-.15-.07-.41,.11-.49-4.58-.18-9.19,.47-13.54,1.9,.03-.27,.05-.54,.08-.81-2.14,.74-4.04,2.08-5.52,3.79-.11,.06-.21,.11-.32,.17-2.79,1.64-3.89,4.49-3.39,6.75-.13,1.29,.07,2.54,.83,3.46,10.07-10.07,26.41-10.07,36.49,0,.75-.9,.97-2.1,.86-3.35,.4,.26,.82,.48,1.29,.53Z"/></g></svg>