<?xml version="1.0" encoding="UTF-8"?><svg xmlns="http://www.w3.org/2000/svg" xmlns:xlink="http://www.w3.org/1999/xlink" viewBox="0 0 1948.7 1036.67"><defs><style>.cls-1,.cls-2{fill:none;}.cls-3{font-family:Helvetica, Helvetica;font-size:30px;}.cls-4{clip-path:url(#clippath);}.cls-5{fill:#f9e8d7;}.cls-6{fill:#030607;}.cls-7{fill:#693d2c;}.cls-8{fill:#683726;}.cls-9{fill:#e6e6e6;}.cls-10{fill:#ede9df;}.cls-11{fill:#f3d9b5;}.cls-12{fill:#fff;}.cls-13{fill:#fbfeeb;}.cls-14{fill:#f17a50;}.cls-15{fill:#969595;}.cls-16{fill:#7d4115;}.cls-17{fill:#9f9aa1;}.cls-18,.cls-19{fill:#b3b3b3;}.cls-20{fill:#666;}.cls-21{fill:#304353;}.cls-22{fill:#333;}.cls-23{fill:#865038;}.cls-24{fill:#ccc;}.cls-25{fill:#dbdbd7;}.cls-26{fill:#e2d9bf;}.cls-27{fill:#424859;}.cls-28{fill:#1c1c1c;}.cls-29{fill:#191d29;}.cls-30{fill:#0a1318;}.cls-31{fill:#1b2933;}.cls-32{fill:gray;}.cls-33{fill:#565b6f;}.cls-34{fill:#5b5b5b;}.cls-35{fill:#284251;}.cls-36{fill:#79757a;}.cls-37{fill:#272e3f;}.cls-38{fill:#4d4d4d;}.cls-39{fill:#46080d;}.cls-19{mix-blend-mode:multiply;}.cls-2{stroke:#0a1318;stroke-linecap:round;stroke-miterlimit:10;stroke-width:.41px;}.cls-40{clip-path:url(#clippath-1);}.cls-41{clip-path:url(#clippath-4);}.cls-42{clip-path:url(#clippath-3);}.cls-43{clip-path:url(#clippath-2);}.cls-44{letter-spacing:-.07em;}.cls-45{letter-spacing:-.05em;}.cls-46{font-family:Helvetica-Bold, Helvetica;font-size:53px;}.cls-47{isolation:isolate;}</style><clipPath id="clippath"><rect class="cls-1" width="1549.86" height="1036.67"/></clipPath><clipPath id="clippath-1"><rect class="cls-1" x="1440.19" y="348.55" width="35.78" height="14.98" transform="translate(670.19 1633.53) rotate(-72.06)"/></clipPath><clipPath id="clippath-2"><rect class="cls-1" x="1404.22" y="133.54" width="544.48" height="903.13"/></clipPath><clipPath id="clippath-3"><path class="cls-1" d="M1763.65,352c0,1.03,.75,2.03,5.56,4.4,4.81,2.37,7.78,3.76,12.71,1.66,4.93-2.1,11.52-4.67,12.51-7.12,.99-2.45,.37-2.68-6.27-4.12-6.64-1.44-8.57-2.11-14.23-.31-5.66,1.8-10.29,4.19-10.28,5.49Z"/></clipPath><clipPath id="clippath-4"><path class="cls-1" d="M1701.18,349.13c-.11,1.02,.52,2.1,5.04,4.98,4.51,2.89,7.32,4.59,12.45,3.05s11.96-3.37,13.22-5.69,.66-2.62-5.77-4.78c-6.44-2.16-8.28-3.05-14.11-1.88s-10.69,3.03-10.82,4.32Z"/></clipPath></defs><g class="cls-47"><g id="Capa_2"><g id="Pantalla_de_Proyector"><g class="cls-4"><g><g><g><rect class="cls-31" x="761.85" y="901.19" width="27.03" height="609.35"/><polygon class="cls-31" points="999.53 1510.54 894.01 879.45 867.32 883.44 972.18 1510.54 999.53 1510.54"/><polygon class="cls-31" points="558.66 1510.54 663.51 883.44 636.83 879.45 531.3 1510.54 558.66 1510.54"/></g><rect class="cls-23" x="632.36" y="818.26" width="279.24" height="75.49"/><rect class="cls-7" x="632.36" y="818.26" width="279.24" height="37.76"/><rect class="cls-16" x="415.05" y="802.3" width="713.87" height="31.9"/><rect class="cls-21" x="730.32" y="874.62" width="90.08" height="53.16"/></g><polygon class="cls-24" points="77.65 85.48 77.02 78.9 771.98 20.1 1461.65 78.9 1461.02 85.48 771.98 26.74 77.65 85.48"/><rect class="cls-11" x="37.81" y="73.56" width="1468.34" height="732.01"/><rect class="cls-17" x="28.78" y="788.32" width="1486.41" height="17.25"/><rect class="cls-17" x="28.78" y="73.56" width="1486.41" height="17.25"/><g><path class="cls-36" d="M771.98,25.56h0c6.08,0,11.01,4.93,11.01,11.01v36.99h-22.02V36.57c0-6.08,4.93-11.01,11.01-11.01Z"/><path d="M771.98,23.42h0c7.48,0,13.56,6.08,13.56,13.56v9.21h-27.12v-9.21c0-7.48,6.08-13.56,13.56-13.56Z"/></g></g></g></g><g id="Texto"><text class="cls-46" transform="translate(245.26 332.33)"><tspan x="0" y="0">¿</tspan><tspan class="cls-44" x="32.37" y="0">T</tspan><tspan x="60.84" y="0">e sientes cansado aun cuando no estás </tspan><tspan x="199.79" y="63.6">haciendo actividad física?</tspan></text><text class="cls-3" transform="translate(628.12 168.67)"><tspan x="0" y="0">PREGUN</tspan><tspan class="cls-44" x="128.35" y="0">T</tspan><tspan class="cls-45" x="144.46" y="0">A</tspan><tspan x="162.83" y="0" xml:space="preserve"> 3 DE 10</tspan></text></g><g id="Brazo_D"><g><path class="cls-13" d="M1444.48,411.72c1.44,3.3,2.06,5.56,4.41,9.25,1.55,2.43,7.37,6.78,8.89,9.23l12.96,30,37.37-23.77-12.01-20.78c-1.62-2.46-1.91-5.56-.79-8.28l11.75-28.54c.98-2.38,.67-5.09-.81-7.19l-23.17-32.88-44.48,10.23s-3.47,.47-4.65,.7c-2.36,.47-4.37,2.41-4.86,4.77-.29,1.42,.67,4.99,4.83,5.87l-.39,.35-.79,.49c-2.07,.03-2.71,1-3.09,2.71-.34,1.6,1.08,3.49,2.57,4.17l.45,.21,7.35,15.66-.23,5.82c-.08,1.93,.11,3.85,.54,5.73l2.93,12.65c.29,1.24,.69,2.46,1.2,3.63Z"/><g><path class="cls-28" d="M1455.55,288.81l-29.58,91.34c-.81,2.51,.55,5.21,3.04,6.01l42.46,13.75c2.49,.81,5.18-.58,5.99-3.09l29.58-91.34c.81-2.51-.55-5.2-3.04-6.01l-42.46-13.75c-2.5-.81-5.18,.57-5.99,3.09Z"/><path class="cls-22" d="M1419.37,316.98h93.49c2.62,0,4.75,2.13,4.75,4.75v44.63c0,2.62-2.13,4.75-4.75,4.75h-93.5c-2.62,0-4.75-2.13-4.75-4.75v-44.64c0-2.62,2.13-4.75,4.75-4.75Z" transform="translate(687.17 1632.89) rotate(-72.06)"/><rect class="cls-9" x="1438.81" y="347.18" width="38.53" height="17.73" transform="translate(670.19 1633.54) rotate(-72.06)"/><rect class="cls-18" x="1440.19" y="348.55" width="35.78" height="14.98" transform="translate(670.19 1633.53) rotate(-72.06)"/><g><rect class="cls-14" x="1473.89" y="367.05" width="11.16" height="6.27" transform="translate(671.52 1663.66) rotate(-72.06)"/><rect class="cls-12" x="1469.65" y="380.16" width="11.16" height="6.27" transform="translate(656.15 1668.71) rotate(-72.06)"/><rect class="cls-12" x="1478.22" y="353.85" width="11.16" height="6.27" transform="translate(687.11 1658.67) rotate(-72.06)"/><rect class="cls-12" x="1482.6" y="340.35" width="11.16" height="6.27" transform="translate(702.99 1653.5) rotate(-72.06)"/></g><g class="cls-40"><rect class="cls-12" x="1453.06" y="352.7" width="10.08" height="6.57" transform="translate(670.25 1633.5) rotate(-72.06)"/><path class="cls-32" d="M1444.15,364.24c-1.83,5.64,1.26,11.69,6.9,13.51s11.69-1.26,13.51-6.9c1.83-5.64-1.26-11.69-6.9-13.51-5.64-1.82-11.69,1.26-13.51,6.9Z"/><path class="cls-32" d="M1451.62,341.53c-1.81,5.58,1.25,11.56,6.83,13.37,5.58,1.81,11.56-1.25,13.37-6.83,1.81-5.58-1.25-11.56-6.83-13.37-5.58-1.81-11.56,1.25-13.37,6.83Z"/><g><path class="cls-20" d="M1446.19,364.9c-1.46,4.51,1.01,9.35,5.52,10.81,4.51,1.46,9.35-1.01,10.81-5.52s-1.01-9.35-5.52-10.81c-4.51-1.46-9.35,1.01-10.81,5.52Z"/><path class="cls-20" d="M1453.64,342.18c-1.44,4.46,1,9.25,5.46,10.69,4.46,1.44,9.25-1,10.69-5.46,1.44-4.46-1-9.25-5.46-10.69-4.46-1.44-9.25,1-10.69,5.46Z"/></g><g><path class="cls-22" d="M1451.05,366.47c-.59,1.83,.41,3.79,2.24,4.38,1.83,.59,3.79-.41,4.38-2.24s-.41-3.79-2.24-4.38c-1.83-.59-3.79,.41-4.38,2.24Z"/><path class="cls-22" d="M1458.41,343.72c-.59,1.83,.41,3.79,2.24,4.38,1.83,.59,3.79-.41,4.38-2.24,.59-1.83-.41-3.79-2.24-4.38s-3.79,.41-4.38,2.24Z"/></g><g><path class="cls-22" d="M1458.03,344.44h7.36c.2,0,.36,.16,.36,.36h0c0,.21-.16,.37-.36,.37h-7.36c-.2,0-.36-.16-.36-.36h0c0-.21,.16-.37,.36-.37Z" transform="translate(683.25 1629.13) rotate(-72.05)"/><path class="cls-22" d="M1463.56,348.4h0c-.18,.09-.39,.02-.48-.15l-3.35-6.56c-.09-.18-.02-.39,.16-.48h0c.18-.09,.39-.02,.48,.15l3.35,6.56c.09,.18,.02,.39-.16,.48Z"/><path class="cls-22" d="M1461.71,340.76h0c.2,0,.36,.16,.36,.36v7.36c0,.2-.16,.36-.36,.36h0c-.2,0-.36-.16-.36-.36v-7.36c0-.2,.16-.36,.36-.36Z" transform="translate(683.25 1629.13) rotate(-72.05)"/><path class="cls-22" d="M1465.31,342.96h0c.09,.18,.02,.4-.16,.49l-6.56,3.35c-.18,.09-.39,.02-.48-.16h0c-.09-.18-.02-.4,.16-.49l6.56-3.35c.18-.09,.39-.02,.48,.16Z"/></g><g><path class="cls-22" d="M1450.68,367.15h7.36c.2,0,.36,.16,.36,.36h0c0,.21-.16,.37-.36,.37h-7.36c-.2,0-.36-.16-.36-.36h0c0-.21,.16-.37,.36-.37Z" transform="translate(656.55 1637.85) rotate(-72.05)"/><path class="cls-22" d="M1456.2,371.11h0c-.18,.09-.39,.02-.48-.15l-3.35-6.56c-.09-.18-.02-.39,.16-.48h0c.18-.09,.39-.02,.48,.15l3.35,6.56c.09,.18,.02,.39-.16,.48Z"/><rect class="cls-22" x="1454" y="363.47" width=".73" height="8.08" rx=".36" ry=".36" transform="translate(656.55 1637.85) rotate(-72.05)"/><path class="cls-22" d="M1457.96,365.67h0c.09,.18,.02,.4-.16,.49l-6.56,3.35c-.18,.09-.39,.02-.48-.16h0c-.09-.18-.02-.4,.16-.49l6.56-3.35c.18-.09,.39-.02,.48,.16Z"/></g></g><path class="cls-38" d="M1465.24,392.2l-34.47-11.16,19.22-59.36,34.47,11.16-19.22,59.36Zm-28.87-14.03l26,8.42,16.48-50.89-26-8.42-16.48,50.89Z"/><path class="cls-12" d="M1459,293.19c-.25,.36-.17,.85,.19,1.1,.36,.25,.85,.17,1.1-.19s.17-.85-.19-1.1-.85-.17-1.1,.19Z"/><path class="cls-12" d="M1464.19,294.89c-.25,.36-.17,.85,.19,1.1,.36,.25,.85,.17,1.1-.19,.25-.36,.17-.85-.19-1.1-.36-.25-.85-.17-1.1,.19Z"/><path class="cls-12" d="M1469.38,296.58c-.25,.36-.17,.85,.19,1.1,.36,.25,.85,.17,1.1-.19,.25-.36,.17-.85-.19-1.1s-.85-.17-1.1,.19Z"/><path class="cls-12" d="M1474.57,298.28c-.25,.36-.17,.85,.19,1.1,.36,.25,.85,.17,1.1-.19s.17-.85-.19-1.1c-.36-.25-.85-.17-1.1,.19Z"/><path class="cls-12" d="M1479.75,299.98c-.25,.36-.17,.85,.19,1.1,.36,.25,.85,.17,1.1-.19,.25-.36,.17-.85-.19-1.1-.36-.25-.85-.17-1.1,.19Z"/><path class="cls-12" d="M1484.94,301.68c-.25,.36-.17,.85,.19,1.1,.36,.25,.85,.17,1.1-.19,.25-.36,.17-.85-.19-1.1s-.85-.17-1.1,.19Z"/><path class="cls-12" d="M1490.13,303.38c-.25,.36-.17,.85,.19,1.1,.36,.25,.85,.17,1.1-.19,.25-.36,.17-.85-.19-1.1-.36-.25-.85-.17-1.1,.19Z"/><path class="cls-12" d="M1495.32,305.07c-.25,.36-.17,.85,.19,1.1s.85,.17,1.1-.19,.17-.85-.19-1.1c-.36-.25-.85-.17-1.1,.19Z"/><path class="cls-12" d="M1500.48,306.8c-.25,.36-.17,.85,.19,1.1,.36,.25,.85,.17,1.1-.19s.17-.85-.19-1.1c-.36-.25-.85-.17-1.1,.19Z"/><path class="cls-12" d="M1460.83,296.3c-.25,.36-.17,.85,.19,1.1s.85,.17,1.1-.19c.25-.36,.17-.85-.19-1.1-.36-.25-.85-.17-1.1,.19Z"/><path class="cls-12" d="M1466.02,297.99c-.25,.36-.17,.85,.19,1.1,.36,.25,.85,.17,1.1-.19,.25-.36,.17-.85-.19-1.1-.36-.25-.85-.17-1.1,.19Z"/><path class="cls-12" d="M1471.21,299.69c-.25,.36-.17,.85,.19,1.1,.36,.25,.85,.17,1.1-.19,.25-.36,.17-.85-.19-1.1-.36-.25-.85-.17-1.1,.19Z"/><path class="cls-12" d="M1476.4,301.39c-.25,.36-.17,.85,.19,1.1,.36,.25,.85,.17,1.1-.19,.25-.36,.17-.85-.19-1.1s-.85-.17-1.1,.19Z"/><path class="cls-12" d="M1481.58,303.09c-.25,.36-.17,.85,.19,1.1,.36,.25,.85,.17,1.1-.19,.25-.36,.17-.85-.19-1.1-.36-.25-.85-.17-1.1,.19Z"/><path class="cls-12" d="M1486.77,304.78c-.25,.36-.17,.85,.19,1.1s.85,.17,1.1-.19,.17-.85-.19-1.1c-.36-.25-.85-.17-1.1,.19Z"/><path class="cls-12" d="M1491.96,306.48c-.25,.36-.17,.85,.19,1.1,.36,.25,.85,.17,1.1-.19,.25-.36,.17-.85-.19-1.1-.36-.25-.85-.17-1.1,.19Z"/><path class="cls-12" d="M1497.15,308.18c-.25,.36-.17,.85,.19,1.1,.36,.25,.85,.17,1.1-.19,.25-.36,.17-.85-.19-1.1-.36-.25-.85-.17-1.1,.19Z"/><path class="cls-12" d="M1457.49,297.67c-.25,.36-.17,.85,.19,1.1,.36,.25,.85,.17,1.1-.19s.17-.85-.19-1.1-.85-.17-1.1,.19Z"/><path class="cls-12" d="M1462.68,299.37c-.25,.36-.17,.85,.19,1.1,.36,.25,.85,.17,1.1-.19,.25-.36,.17-.85-.19-1.1-.36-.25-.85-.17-1.1,.19Z"/><path class="cls-12" d="M1467.87,301.07c-.25,.36-.17,.85,.19,1.1s.85,.17,1.1-.19c.25-.36,.17-.85-.19-1.1s-.85-.17-1.1,.19Z"/><path class="cls-12" d="M1473.06,302.76c-.25,.36-.17,.85,.19,1.1,.36,.25,.85,.17,1.1-.19,.25-.36,.17-.85-.19-1.1-.36-.25-.85-.17-1.1,.19Z"/><path class="cls-12" d="M1478.25,304.46c-.25,.36-.17,.85,.19,1.1,.36,.25,.85,.17,1.1-.19,.25-.36,.17-.85-.19-1.1-.36-.25-.85-.17-1.1,.19Z"/><path class="cls-12" d="M1483.43,306.16c-.25,.36-.17,.85,.19,1.1,.36,.25,.85,.17,1.1-.19,.25-.36,.17-.85-.19-1.1s-.85-.17-1.1,.19Z"/><path class="cls-12" d="M1488.62,307.86c-.25,.36-.17,.85,.19,1.1,.36,.25,.85,.17,1.1-.19,.25-.36,.17-.85-.19-1.1-.36-.25-.85-.17-1.1,.19Z"/><path class="cls-12" d="M1493.81,309.56c-.25,.36-.17,.85,.19,1.1s.85,.17,1.1-.19,.17-.85-.19-1.1c-.36-.25-.85-.17-1.1,.19Z"/><path class="cls-12" d="M1498.98,311.29c-.25,.36-.17,.85,.19,1.1,.36,.25,.85,.17,1.1-.19s.17-.85-.19-1.1c-.36-.25-.85-.17-1.1,.19Z"/><path class="cls-12" d="M1459.32,300.78c-.25,.36-.17,.85,.19,1.1s.85,.17,1.1-.19c.25-.36,.17-.85-.19-1.1-.36-.25-.85-.17-1.1,.19Z"/><path class="cls-12" d="M1464.51,302.48c-.25,.36-.17,.85,.19,1.1,.36,.25,.85,.17,1.1-.19,.25-.36,.17-.85-.19-1.1-.36-.25-.85-.17-1.1,.19Z"/><path class="cls-12" d="M1469.7,304.17c-.25,.36-.17,.85,.19,1.1,.36,.25,.85,.17,1.1-.19,.25-.36,.17-.85-.19-1.1-.36-.25-.85-.17-1.1,.19Z"/><path class="cls-12" d="M1474.89,305.87c-.25,.36-.17,.85,.19,1.1,.36,.25,.85,.17,1.1-.19,.25-.36,.17-.85-.19-1.1s-.85-.17-1.1,.19Z"/><path class="cls-12" d="M1480.07,307.57c-.25,.36-.17,.85,.19,1.1,.36,.25,.85,.17,1.1-.19,.25-.36,.17-.85-.19-1.1-.36-.25-.85-.17-1.1,.19Z"/><path class="cls-12" d="M1485.26,309.27c-.25,.36-.17,.85,.19,1.1s.85,.17,1.1-.19c.25-.36,.17-.85-.19-1.1-.36-.25-.85-.17-1.1,.19Z"/><path class="cls-12" d="M1490.45,310.96c-.25,.36-.17,.85,.19,1.1,.36,.25,.85,.17,1.1-.19,.25-.36,.17-.85-.19-1.1-.36-.25-.85-.17-1.1,.19Z"/><path class="cls-12" d="M1495.64,312.66c-.25,.36-.17,.85,.19,1.1,.36,.25,.85,.17,1.1-.19,.25-.36,.17-.85-.19-1.1-.36-.25-.85-.17-1.1,.19Z"/><path class="cls-12" d="M1455.99,302.15c-.25,.36-.17,.85,.19,1.1,.36,.25,.85,.17,1.1-.19s.17-.85-.19-1.1-.85-.17-1.1,.19Z"/><path class="cls-12" d="M1461.17,303.85c-.25,.36-.17,.85,.19,1.1,.36,.25,.85,.17,1.1-.19,.25-.36,.17-.85-.19-1.1-.36-.25-.85-.17-1.1,.19Z"/><path class="cls-12" d="M1466.36,305.55c-.25,.36-.17,.85,.19,1.1s.85,.17,1.1-.19c.25-.36,.17-.85-.19-1.1s-.85-.17-1.1,.19Z"/><path class="cls-12" d="M1471.55,307.25c-.25,.36-.17,.85,.19,1.1,.36,.25,.85,.17,1.1-.19,.25-.36,.17-.85-.19-1.1-.36-.25-.85-.17-1.1,.19Z"/><path class="cls-12" d="M1476.74,308.94c-.25,.36-.17,.85,.19,1.1,.36,.25,.85,.17,1.1-.19,.25-.36,.17-.85-.19-1.1-.36-.25-.85-.17-1.1,.19Z"/><path class="cls-12" d="M1481.93,310.64c-.25,.36-.17,.85,.19,1.1,.36,.25,.85,.17,1.1-.19,.25-.36,.17-.85-.19-1.1s-.85-.17-1.1,.19Z"/><path class="cls-12" d="M1487.11,312.34c-.25,.36-.17,.85,.19,1.1,.36,.25,.85,.17,1.1-.19,.25-.36,.17-.85-.19-1.1-.36-.25-.85-.17-1.1,.19Z"/><path class="cls-12" d="M1492.3,314.04c-.25,.36-.17,.85,.19,1.1s.85,.17,1.1-.19,.17-.85-.19-1.1c-.36-.25-.85-.17-1.1,.19Z"/><path class="cls-12" d="M1497.47,315.77c-.25,.36-.17,.85,.19,1.1,.36,.25,.85,.17,1.1-.19,.25-.36,.17-.85-.19-1.1-.36-.25-.85-.17-1.1,.19Z"/><path class="cls-12" d="M1457.81,305.26c-.25,.36-.17,.85,.19,1.1s.85,.17,1.1-.19c.25-.36,.17-.85-.19-1.1-.36-.25-.85-.17-1.1,.19Z"/><path class="cls-12" d="M1463,306.96c-.25,.36-.17,.85,.19,1.1,.36,.25,.85,.17,1.1-.19,.25-.36,.17-.85-.19-1.1-.36-.25-.85-.17-1.1,.19Z"/><path class="cls-12" d="M1468.19,308.66c-.25,.36-.17,.85,.19,1.1,.36,.25,.85,.17,1.1-.19,.25-.36,.17-.85-.19-1.1-.36-.25-.85-.17-1.1,.19Z"/><path class="cls-12" d="M1473.38,310.35c-.25,.36-.17,.85,.19,1.1,.36,.25,.85,.17,1.1-.19,.25-.36,.17-.85-.19-1.1-.36-.25-.85-.17-1.1,.19Z"/><path class="cls-12" d="M1478.57,312.05c-.25,.36-.17,.85,.19,1.1,.36,.25,.85,.17,1.1-.19,.25-.36,.17-.85-.19-1.1-.36-.25-.85-.17-1.1,.19Z"/><path class="cls-12" d="M1483.75,313.75c-.25,.36-.17,.85,.19,1.1s.85,.17,1.1-.19c.25-.36,.17-.85-.19-1.1-.36-.25-.85-.17-1.1,.19Z"/><path class="cls-12" d="M1488.94,315.45c-.25,.36-.17,.85,.19,1.1,.36,.25,.85,.17,1.1-.19s.17-.85-.19-1.1-.85-.17-1.1,.19Z"/><path class="cls-12" d="M1494.13,317.14c-.25,.36-.17,.85,.19,1.1,.36,.25,.85,.17,1.1-.19,.25-.36,.17-.85-.19-1.1-.36-.25-.85-.17-1.1,.19Z"/><path class="cls-12" d="M1454.48,306.63c-.25,.36-.17,.85,.19,1.1,.36,.25,.85,.17,1.1-.19s.17-.85-.19-1.1-.85-.17-1.1,.19Z"/><path class="cls-12" d="M1459.67,308.33c-.25,.36-.17,.85,.19,1.1,.36,.25,.85,.17,1.1-.19,.25-.36,.17-.85-.19-1.1-.36-.25-.85-.17-1.1,.19Z"/><path class="cls-12" d="M1464.85,310.03c-.25,.36-.17,.85,.19,1.1s.85,.17,1.1-.19c.25-.36,.17-.85-.19-1.1s-.85-.17-1.1,.19Z"/><path class="cls-12" d="M1470.04,311.73c-.25,.36-.17,.85,.19,1.1,.36,.25,.85,.17,1.1-.19,.25-.36,.17-.85-.19-1.1-.36-.25-.85-.17-1.1,.19Z"/><path class="cls-12" d="M1475.23,313.43c-.25,.36-.17,.85,.19,1.1,.36,.25,.85,.17,1.1-.19,.25-.36,.17-.85-.19-1.1-.36-.25-.85-.17-1.1,.19Z"/><path class="cls-12" d="M1480.42,315.12c-.25,.36-.17,.85,.19,1.1,.36,.25,.85,.17,1.1-.19,.25-.36,.17-.85-.19-1.1s-.85-.17-1.1,.19Z"/><path class="cls-12" d="M1485.61,316.82c-.25,.36-.17,.85,.19,1.1,.36,.25,.85,.17,1.1-.19,.25-.36,.17-.85-.19-1.1-.36-.25-.85-.17-1.1,.19Z"/><path class="cls-12" d="M1490.79,318.52c-.25,.36-.17,.85,.19,1.1s.85,.17,1.1-.19,.17-.85-.19-1.1c-.36-.25-.85-.17-1.1,.19Z"/><path class="cls-12" d="M1495.96,320.25c-.25,.36-.17,.85,.19,1.1,.36,.25,.85,.17,1.1-.19,.25-.36,.17-.85-.19-1.1-.36-.25-.85-.17-1.1,.19Z"/></g><path class="cls-19" d="M1452.77,360.91c-2.44,.66-6.13,4.14-4.64,6.26,.86,1.23,4.71,.42,6.7,1.16,5.81,2.18,7.2-.85,10.22,5.24,3.01,6.1,6.36,12.24,6.36,12.24l11.94-4.93-10.36-19.2c-2.17-3.62-6.41-5.45-10.53-4.56l-9.68,3.78Z"/><path class="cls-13" d="M1490.07,400.84l-4.79-17.49-15.09-21.32c-1.99-2.81-5.61-3.93-8.84-2.73l-12.33,4.59c-1.72,.64-2.63,2.51-2.08,4.26l.39,1.22c.5,1.58,1.62,2.88,3.09,3.62l3.87,1.93c1.1,.55,2.34,.75,3.56,.59l1.41-.19c1.35-.18,2.68,.49,3.33,1.68l5.7,10.36c.44,.81,.22,1.82-.52,2.37l-1.39,1.03c-2.2,1.63-3.7,4.02-4.21,6.71l-1.44,7.65c-.51,2.7-.33,5.48,.53,8.09l5.26,15.97,23.57-28.33Z"/><path class="cls-25" d="M1460.51,396.36l-.49,8.69v-.08c-.34,2.15-.26,4.35,.22,6.45,.12,.53,.27,1.04,.44,1.55,.17,.52,.35,.99,.53,1.48l1.06,2.94,4.24,11.77-3.58-11.99-.89-3c-.14-.5-.31-1.01-.44-1.49-.13-.49-.25-.98-.33-1.48-.34-1.99-.29-4.03,.14-5.98v-.02s.01-.06,.01-.06l.87-8.28-1.78-.52Z"/><polygon class="cls-25" points="1487.31 391.16 1486 383.15 1485.99 383.11 1485.95 383.02 1485.41 380.33 1488.9 361.55 1483.71 377.85 1483 380.14 1484.6 383.68 1484.55 383.55 1487.31 391.16"/><path class="cls-5" d="M1447.23,367.35h0c.25,.73,.74,1.37,1.41,1.73,.85,.47,1.86,.56,2.88,.18l3.96-1.47c1.47-.55,2.22-2.3,1.59-3.69h0s-.04-.08-.06-.11c-.12-.21-.31-.37-.51-.49l-1.18-.83c-.32-.19-.97-.24-1.33-.14l-5.14,1.91c-1.52,.56-1.82,1.36-1.62,2.92Z"/><rect class="cls-10" x="1467.28" y="431.68" width="48.62" height="37.8" transform="translate(-34.23 766.39) rotate(-28.5)"/><path class="cls-29" d="M1464.57,476.27s59.42,137.85,89,163.63c16.25,14.16,34.81,8.94,46.07-5.01,10.25-12.69,9.59-37.32,2.16-51.84l-14.18-27.73-60.08-114.28-62.98,35.23Z"/></g></g><g id="Detective"><g class="cls-43"><path class="cls-29" d="M1556.6,642.36c30.57,24.6,133.92-39.51,133.92-39.51l5.44-107s-28.8-2.19-49.04,19.23c-20.24,21.41-59.59,41.44-59.59,41.44,0,0-61.3,61.24-30.73,85.85Z"/><g><path class="cls-6" d="M1690.32,597.92c28.59,99.11,91.83,196.7,95.53,297.49,3.25,88.37,50.02,186.61,63.03,274.08-18.07-1.44-116.65-6.02-162.69-7.06-17.13-188.17-29.42-376.34,4.12-564.51Z"/><path class="cls-30" d="M1746.93,821.59c23.27,92.84,21.68,319.54,20.08,496.3h-73.46s-22.4-174.6-24.42-236c-1.74-52.65-1.44-150.51,0-250.46,.72-49.99,56.23-57.35,68.4-8.81l9.4-1.04Z"/><path class="cls-30" d="M1855.11,821.59c23.27,92.84,21.68,319.54,20.08,496.3h-73.46s-22.4-174.6-24.42-236c-1.74-52.65-1.44-150.51,0-250.46,.72-49.99,56.23-57.35,68.4-8.81l9.4-1.04Z"/><path class="cls-6" d="M1848.71,495.6s-63.53-114.7-193.33-17.87l7.94,34.99,176.85-1.25,8.54-15.87Z"/><path class="cls-30" d="M1600.7,913.76l25.02-6.66c-11.9-44.74-3.08-94.03,23.59-131.87l-21.16-14.92c-31.04,44.03-41.29,101.4-27.44,153.45Z"/><path class="cls-29" d="M1628.75,715.46c3.33-47.61,8.96-95.07,16.9-142.14,1.29-7.68,2.54-46.4,11.03-50.72,15.24-7.76,21.47,18.02,22.98,27.96,2.41,15.84,6.11,31.62,10.65,47.36-33.55,188.17-21.25,376.34-4.12,564.51-9.66-.22-17.05-.29-20.85-.13-12.66-53.06-22.34-106.84-29.02-160.98-11.7-94.75-14.23-190.63-7.56-285.86Z"/><path class="cls-29" d="M1800.25,483.97c13.64,.94,26.07,4.02,34.72,11.01,19.61,15.85,13.04,63.88,12.1,86.27-3.39,81.26-28.31,159.68-36.15,240.42-2.11,21.76-5.37,47.53-24.79,57.58-2.35,1.21-4.81,2.09-7.34,2.76-4.04-132.77-13.9-270.46,21.45-398.04Z"/><path class="cls-10" d="M1777.06,830.8c-39.38,2.9-75.13-3.78-107.11-25.78,2.4-103.27,13.61-205.53,28-309.04,10.15-2.8,20.84-4.49,31.04-5.89,17.89-2.45,46.58-7.82,71.26-6.12-30.83,111.25-27.29,230.17-23.19,346.83Z"/><path class="cls-29" d="M1646.01,569.16c.61-16,1.79-32.77,10.37-46.29,9.2-14.5,24.64-22.22,41.58-26.89-16.93,121.79-29.49,260.36-28.72,382.15-4-3.96-5.16-25.19-7.72-30.26-5.84-11.59-6.82-24.94-7.7-37.89-5.43-80.17-10.85-160.52-7.81-240.82Z"/><g><rect class="cls-13" x="1710.34" y="410.59" width="84.1" height="121.12" rx="13.66" ry="13.66" transform="translate(3504.79 942.3) rotate(180)"/><path class="cls-25" d="M1710.69,443.72c7.16-4.22,23.78,2.66,43.13,2.66,17.16,0,32.12-8.68,40.29-5.22v15.44c-8.17,3.47-23.13,17.83-40.29,17.83-19.35,0-35.98-12.01-43.13-16.24v-14.47Z"/></g><path class="cls-26" d="M1749.51,513.74c5.67,13.99,10.88,32.6,17.98,45.92,20.93-19.6,34.34-47.05,36.93-75.61,.1-1.13-7.65-1.21-8.39-.98-2.29,.72-2.79,1.82-4.42,3.57-9.15,9.79-23.9,17.72-42.1,27.09Z"/><path class="cls-26" d="M1749.51,513.74c-5.2,15.58-9.09,29.93-15.08,45.92-17.9-18.03-29.36-38.67-31.58-64.94-.09-1.04,6.54-5.71,7.17-5.5,1.96,.66,2.39,1.68,3.78,3.28,7.82,9,20.14,12.61,35.7,21.23Z"/><path class="cls-35" d="M1760.81,538.6c-.12,3.46-13.75,12.17-13.75,12.17-3.04-3.94-8.64-14.29-8.83-16.1-.19-1.74,.55-3.44,1.28-5.04,1.71-3.79,3.43-7.59,5.14-11.38,.79-1.74,2.34-5.92,4.32-6.63,2.75-.98,3.63,2.9,4.37,4.87,.85,2.26,7.55,19.69,7.46,22.1Z"/><path class="cls-30" d="M1844.83,495.32c.77,1.07,1.75,2.13,1.77,3.45,.01,.98-.48,1.9-.95,2.76-6.6,11.99-13.2,23.97-19.8,35.96-5.91-.8-11.83-1.59-17.74-2.39-.89,7.08,9.93,10.75,10.53,17.86,.16,1.96-.51,3.88-1.17,5.73-13.84,38.6-27.68,77.19-41.52,115.79,1.24-27.52,2.49-55.04,3.73-82.57,1.91-42.34,4.04-85.69,20.25-124.85,1.05-2.52,31.32,9.45,44.91,28.25Z"/><path class="cls-30" d="M1660.7,485.49c-.93,.87-2.04,1.7-2.36,2.98-.24,.95-.03,1.94,.18,2.88,2.93,13.05,5.86,26.1,8.79,39.16,5.36,.49,10.72,.98,16.08,1.47-.9,7.07-11.24,8.32-13.44,15.11-.61,1.87-.47,3.88-.33,5.82,2.95,40.45,5.9,80.9,8.85,121.35,5.44-27,10.88-54.01,16.31-81.01,8.37-41.55,16.78-84.1,11.89-125.61-.32-2.68-29.63,2.5-45.97,17.86Z"/><path class="cls-29" d="M1898.81,973.77c19.19,61.28,34.27,126.38,49.89,188.66-44.34,10.43-121.46,9.73-165.87-.4-4.15-78.59-13.87-156.85-16.26-235.51-2.39-78.66,2.75-158.55,27.49-233.26,7.54,3.96,20.01,2.32,25.89,8.5,5.79,6.09,3.44,23.37,4.13,31.1,2.47,27.91,53.28,50.09,51.93,78.07-2.61,53.97,1.43,94.55,22.81,162.84Z"/><path class="cls-13" d="M1789.66,848.68c-4.15,2.66-9.67,1.55-12.31-2.47-2.66-4.04-1.46-9.48,2.66-12.16l1.32-.87,32.74-21.17c.12-.08,.24-.12,.36-.19-.49-1.81-.46-3.79,.21-5.71,1.8-5.14,7.43-7.93,12.64-6.24l29.1,9.55c4.79,1.58,7.46,6.42,6.45,11.19,12.06,15.12,10.09,37.24-4.91,50.29l-3.93,3.4c-3.74,3.24-7.95,5.61-12.36,7.15l-2.15,1.39-17.64,11.4c-3.39,2.18-7.93,1.27-10.12-2.06-2.2-3.36-1.23-7.84,2.19-10.05l1.06-.72,.58-.37c-.54-.21-1.08-.43-1.61-.66l-5.39,3.49c-4.14,2.67-9.66,1.57-12.3-2.49-2.65-4.04-1.49-9.46,2.65-12.15l.6-.41c-.29-.38-.55-.77-.81-1.16-4.49,2.52-10.2,1.26-12.98-3.02-2.95-4.44-1.64-10.41,2.92-13.36l1.4-.94,2.41-1.56c-.02-.63,0-1.25,0-1.87l-2.78,1.8Z"/><path class="cls-35" d="M1745.55,759.61c3.21-22.36,7.43-74.21,6.49-111.27,.35-43.19,2.32-102.72-2.58-111.91-13.89,20.11-25.48,71.39-29.85,109.06-4.49,37.63-7.48,75.1-9.27,112.65l35.21,1.47Z"/><path class="cls-37" d="M1844.91,902.67c-16.49,6.61-35.23,13.14-51.02,4.74-16.02-8.53-22.87-29.51-24.72-48.84-.79-8.22-.92-16.7,1.44-24.55,3.1-10.28,10.16-18.5,17.25-26.07,4.89-5.22,18.11-23.69,25.41-21.03,7.59,2.78,10.7,27.21,12.69,34.48,7.32,26.8,13.64,53.92,18.96,81.27Z"/><path class="cls-30" d="M1767.61,754.35c6.76-3.18,13.55-4.94,20.12-6.65,6.55-1.7,12.73-3.3,17.69-6.1,6.33-3.58,18.34-9.59,20.69-16.5,5.98,12.86,5.61,24.14,2.09,34.62-3.07,2.14-6.42,4.15-10.05,6.2-7.91,4.47-16.05,4.79-23.92,6.84-5.67,1.47-11.02,2.86-15.6,5.01-13.86,6.52-22.97,22.9-21.2,38.12l-25.72,3c-3.05-26.18,12.04-53.32,35.89-64.54Z"/><path class="cls-15" d="M1768.61,828.49l-1.29,20.21c-3.37,.22-6.77,.27-10.12,.29-8.69,.05-17.45,.09-26.14-.42-1.96-7.33-2.65-15.02-2.88-23.37,13.28,2.49,26.91,3.65,40.43,3.29Z"/><path class="cls-34" d="M1669.16,802.96c17.26,10.78,37.66,18.24,59.02,22.24,.23,8.35,.93,16.05,2.88,23.37-9.36-.55-18.63-1.72-27.65-4.23-11.93-3.32-25.53-11.45-34.25-20.08-.05-7.29-.03-14.02,0-21.31Z"/><path class="cls-30" d="M1767.32,848.7s-33.13,.66-46.44-1.32l29.4,30.74,15.76-2.67,1.28-26.75Z"/><path class="cls-29" d="M1819.34,804.88l55.49,44.15s46.39-97.7,57.31-135.2c10.92-37.51-51-205.69-87.23-202.94-6.85,.52-28.17,59.73-28.17,59.73,0,0,35.35,73.32,44.19,112.39,8.84,39.06-41.59,121.88-41.59,121.88Z"/><path class="cls-39" d="M1831.24,352.07c0,24.68-26.75,44.68-59.76,44.68h-33.61c-32.99,0-59.74-20-59.74-44.68v-63.3c0-24.66,26.75-44.67,59.74-44.67h33.61c33.01,0,59.76,20.01,59.76,44.67v63.3Z"/><path class="cls-13" d="M1737.64,268.05h29.51c28.96,0,52.44,25.56,52.44,57.1v2.42s0,66.78,0,66.78v1c0,23.4-33.67,74.81-69.44,74.81h-1.56c-37.24,0-63.39-53.51-63.39-76.91v-1s0-64.68,0-64.68v-2.42c0-31.54,23.48-57.1,52.45-57.1Z"/><path class="cls-30" d="M1750.42,336.02c3.17,11.7,1.88,24-.69,35.67-.81,3.91-1.64,7.81-2.65,11.68l-.34-.76c7.02,3.29,16.5,4.18,22.35-1.87-5.62,6.99-15.98,6.34-23.44,2.85,1.8-7.89,3.48-15.91,4.84-23.89,1.14-7.82,1.17-15.86-.07-23.68h0Z"/><path class="cls-13" d="M1842.21,347.7s1.41,33.79-22.62,31.83v-8.24s0-22.93,0-22.93v-8.91c.95-.71,17.73-12.96,22.62,8.24Z"/><path class="cls-13" d="M1662.58,347.7s-1.4,33.79,22.62,31.83v-8.24s0-22.93,0-22.93v-8.91c-.95-.71-17.73-12.96-22.62,8.24Z"/><path class="cls-8" d="M1700.26,284.9c36.51-16.85,73.02,16.85,109.54,0,0-2.81,0-5.61,0-8.43-36.52,16.85-73.03-16.85-109.54,0,0,2.81,0,5.62,0,8.43Z"/><path class="cls-8" d="M1699.9,277.96c36.52-16.85,73.03,16.85,109.54,0,0-2.81,0-5.62,0-8.42-36.51,16.85-73.02-16.85-109.54,0,0,2.81,0,5.62,0,8.42Z"/><path class="cls-8" d="M1700.26,272.26c36.51-16.85,73.02,16.85,109.54,0,0-2.81,0-5.62,0-8.43-36.52,16.85-73.03-16.85-109.54,0,0,2.81,0,5.62,0,8.43Z"/><path class="cls-39" d="M1814.48,297.08v17.3c0,5.45,0,10.91,0,16.36,0,1.49,.13,2.9,.14,4.33l-.14-.25v2.42c-.02,.16-.02,.32-.06,.49-.54,2.84-1.1,5.68-1.64,8.52,.56-.04,1.1-.28,1.5-.67-1.05,1.75-.63,3.97-.77,6.01-.21,3.15-1.82,6.16-1.59,9.31,.49,.03,.95-.31,1.15-.75-.35,4.61-.82,9.22-1.43,13.81,.22-.22,.44-.44,.66-.65-.07,5.81-3.01,11.52-7.71,14.95,.53,.07,1.06,.15,1.59,.22-3.1,3.76-6.89,6.95-11.13,9.36,.46,.06,.93,.11,1.39,.14-3.01,1.06-6.5,1.68-10.59,1.68l27.72,6.55,2.75-6.55h3.27v-102.56h-5.11Z"/><path class="cls-13" d="M1819.59,399.64c-3.56,24.84-35.62,70.52-69.56,70.52h-1.57c-34.39,0-59.37-45.01-63.27-70.52h134.4Z"/><path class="cls-12" d="M1763.65,352c0,1.03,.75,2.03,5.56,4.4,4.81,2.37,7.78,3.76,12.71,1.66,4.93-2.1,11.52-4.67,12.51-7.12,.99-2.45,.37-2.68-6.27-4.12-6.64-1.44-8.57-2.11-14.23-.31-5.66,1.8-10.29,4.19-10.28,5.49Z"/><path class="cls-2" d="M1764.61,350.52s9.04-4.69,14-5.02c4.96-.33,15.95,3.02,15.95,3.02"/><path class="cls-2" d="M1792.83,352.78s-10.17,6-15.35,6.36c-3.72,.25-12.64-5.14-12.64-5.14"/><path class="cls-12" d="M1701.18,349.13c-.11,1.02,.52,2.1,5.04,4.98,4.51,2.89,7.32,4.59,12.45,3.05s11.96-3.37,13.22-5.69,.66-2.62-5.77-4.78c-6.44-2.16-8.28-3.05-14.11-1.88s-10.69,3.03-10.82,4.32Z"/><path class="cls-2" d="M1702.3,347.77s9.51-3.66,14.47-3.45c4.97,.22,15.52,4.76,15.52,4.76"/><path class="cls-2" d="M1730.1,353.14s-10.77,4.84-15.96,4.62c-3.73-.16-11.99-6.5-11.99-6.5"/><g><path class="cls-27" d="M1787.12,263.68c13.19,2.12,26.46,4.26,39.11,8.56,21.64,7.35,41.08,21.08,55.25,39.02,4.52,5.72,8.7,12.94,6.63,19.93-2.88,9.72-15.35,12.25-25.49,12.15-24.56-.26-48.72-5.83-72.64-11.38-40.01-9.27-80.38-18.66-117.45-36.32-14.27-6.8-28.48-15.24-37.24-28.4-1.81-2.72-3.42-5.98-2.62-9.14,5.25-20.76,48.3-11.81,62.22-9.28,30.62,5.57,61.51,9.91,92.24,14.85Z"/><path class="cls-33" d="M1685.43,251.68c7.87-12.95,15.74-25.91,23.62-38.86,4.16-6.84,8.44-13.82,14.64-18.88,6.21-5.06,14.82-7.91,22.37-5.25,7.12,2.51,13.07,9.61,20.55,8.53,6.5-.94,10.29-7.56,13.83-13.09,3.54-5.53,9.58-11.24,15.78-9.08,2.26,.79,4.04,2.52,5.67,4.28,15.15,16.4,22.57,38.55,26.38,60.55,2.94,16.96,5.29,34.85,6.1,52.1-51.54,.42-102.38-16.16-148.93-40.31Z"/><path class="cls-30" d="M1834.36,291.99c.02,.49,.07,.99,.09,1.47,.79,19.05-11.28,15.51-26.42,12.33-44.78-9.4-88.69-22.91-131.01-40.29,2.8-4.61,5.6-9.22,8.4-13.82,46.55,24.15,97.39,40.73,148.93,40.31Z"/></g><path class="cls-39" d="M1695.49,387.46c.22,.28,.43,.56,.65,.83,1.33,1.68,2.84,3.41,4.9,3.98-5.7-4.4-9.2-11.53-9.18-18.73l1.22,.17c-.66-4.04-1.33-8.07-1.99-12.11-.16-.96-.3-2.01,.19-2.85,.81,.31,1.63,.62,2.44,.93-1.29-3.46-2.24-7.04-2.84-10.68,.34,.13,.69,.26,1.03,.38-1.83-4.92-1.46-10.35-1.07-15.59,.15-2.06,.31-4.11,.46-6.17,.06-.76,.11-1.52,.1-2.29-.03-2.06-.57-4.06-1.09-6.07l-.73-16.42-4.38-1.56v98.32h3.28l2.74,6.55,27.73-6.55c-12.45,0-19.48-5.69-23.46-12.17Z"/></g></g></g><g id="Bigote_D"><path class="cls-39" d="M1749.37,410.48c1.95-7.55-3.06-15.35-9.82-19.2-7.01-4.09-15.77-4.31-22.68-2.06-3.52,1.09-6.7,2.75-9.49,4.79-2.88,2.1-5,4.42-6.41,6.42-1.49,2.05-2.33,3.84-3.54,5.76-1.31,2-2.86,4-6.54,5.31,1.17,3.9,5.43,6.01,9.38,6.75,4.12,.68,8.13-.19,11.24-1.01l12.92-3.95c3.43-1.02,6.02-2.12,9.5-3.05,3.65-.8,8.18-1.8,15.44,.24Z"/><path class="cls-39" d="M1748.42,410.48c7.23-2.04,11.73-1.05,15.32-.24,3.42,.94,5.93,2.04,9.3,3.04l12.77,3.93c3.09,.83,7.08,1.71,11.19,1.04,3.94-.73,8.2-2.85,9.33-6.75-3.67-1.3-5.19-3.31-6.46-5.31-1.17-1.92-1.98-3.7-3.45-5.75-1.38-1.99-3.47-4.31-6.33-6.41-2.76-2.04-5.93-3.7-9.43-4.8-6.88-2.27-15.64-2.05-22.62,2.07-6.73,3.88-11.64,11.68-9.63,19.18Z"/></g><g id="Ojos_D"><g class="cls-42"><circle class="cls-35" cx="1772.46" cy="352.05" r="6.77"/><ellipse class="cls-30" cx="1770.57" cy="350.04" rx="4.24" ry="4.77" transform="translate(-19.46 119.3) rotate(-3.84)"/></g><g class="cls-41"><circle class="cls-35" cx="1709.93" cy="350.16" r="6.77"/><ellipse class="cls-30" cx="1708.28" cy="347.95" rx="4.77" ry="4.24" transform="translate(1285.91 2039.37) rotate(-87.49)"/></g></g><g id="Cejas_D"><path class="cls-39" d="M1735.49,327.52c-1.47-1.39-2.84-2.98-4.82-3.44l.65-.49c-1.52-.89-3.13-1.63-4.79-2.2,.2-.2,.48-.34,.76-.37-2.33-.71-4.76-1.1-7.2-1.15,.2-.13,.34-.33,.41-.55-1.69-.07-3.38-.01-5.06,.17-.03-.2-.05-.4-.08-.61-2.69,.64-5.4,1.15-8.13,1.55-.04-.29-.07-.58-.11-.87-1.27,.69-2.44,1.48-3.58,2.3-.6,.2-1.19,.41-1.79,.65-1.95,.76-3.99,3.14-4.03,4.77v-.02c-.11,.51-.14,1.07-.11,1.74,0,.21,.66,3.29,.79,3.19,10.94-8.53,29.29-5.3,35.35,3.1,.33-.33,1.13-2.89,1.13-2.89,0,0,2.03-3.53,.6-4.88Zm-37.01-1.65s.01,0,.02-.01c-.01,.02-.03,.03-.04,.05l.02-.04Z"/><path class="cls-39" d="M1799.05,344.71c0-1.38-.39-2.76-1.08-3.95,.33-.13,.66-.26,.98-.38-2.29-2.1-4.99-3.75-7.9-4.85,.31-.15,.61-.3,.92-.44-2.81-1.62-6.12-2.33-9.34-2.01-.12-.14-.06-.4,.11-.47-4.45-.18-8.94,.45-13.17,1.85,.03-.26,.05-.52,.08-.79-2.08,.72-3.93,2.03-5.37,3.68-.1,.06-.21,.11-.31,.17-2.71,1.59-3.78,4.36-3.3,6.57-.13,1.25,.06,2.47,.81,3.37,9.8-9.8,25.68-9.8,35.48,0,.73-.87,.94-2.04,.84-3.26,.39,.26,.79,.46,1.26,.52Z"/></g></g></g></svg>