<?xml version="1.0" encoding="UTF-8"?><svg id="Capa_2" xmlns="http://www.w3.org/2000/svg" xmlns:xlink="http://www.w3.org/1999/xlink" viewBox="0 0 1943.07 1035.4"><defs><style>.cls-1,.cls-2{fill:none;}.cls-3{font-family:Helvetica, Helvetica;font-size:30px;}.cls-4{clip-path:url(#clippath);}.cls-5{fill:#030607;}.cls-6{fill:#693d2c;}.cls-7{fill:#683726;}.cls-8{fill:#ede9df;}.cls-9{fill:#f3d9b5;}.cls-10{fill:#fff;}.cls-11{fill:#fbfeeb;}.cls-12{fill:#969595;}.cls-13{fill:#7d4115;}.cls-14{fill:#9f9aa1;}.cls-15{fill:#304353;}.cls-16{fill:#865038;}.cls-17{fill:#ccc;}.cls-18{fill:#dbdbd7;}.cls-19{fill:#e2d9bf;}.cls-20{fill:#424859;}.cls-21{fill:#191d29;}.cls-22{fill:#0a1318;}.cls-23{fill:#1b2933;}.cls-24{fill:#565b6f;}.cls-25{fill:#5b5b5b;}.cls-26{fill:#284251;}.cls-27{fill:#79757a;}.cls-28{fill:#272e3f;}.cls-29{fill:#46080d;}.cls-2{stroke:#0a1318;stroke-linecap:round;stroke-miterlimit:10;stroke-width:.42px;}.cls-30{clip-path:url(#clippath-1);}.cls-31{clip-path:url(#clippath-3);}.cls-32{clip-path:url(#clippath-2);}.cls-33{letter-spacing:-.07em;}.cls-34{letter-spacing:-.05em;}.cls-35{font-family:Helvetica-Bold, Helvetica;font-size:53px;}</style><clipPath id="clippath"><rect class="cls-1" width="1549.86" height="1035.4"/></clipPath><clipPath id="clippath-1"><rect class="cls-1" x="1407.56" y="148.81" width="535.52" height="886.59"/></clipPath><clipPath id="clippath-2"><path class="cls-1" d="M1756.7,347.37c0,1.04,.76,2.04,5.6,4.43s7.83,3.78,12.8,1.67c4.97-2.11,11.6-4.7,12.6-7.17s.37-2.7-6.31-4.15c-6.68-1.45-8.63-2.13-14.33-.31-5.71,1.81-10.36,4.22-10.35,5.53Z"/></clipPath><clipPath id="clippath-3"><path class="cls-1" d="M1693.78,344.48c-.11,1.03,.53,2.11,5.07,5.02,4.55,2.91,7.37,4.62,12.54,3.07s12.05-3.39,13.31-5.73c1.27-2.34,.67-2.64-5.82-4.82-6.48-2.18-8.34-3.07-14.21-1.89s-10.76,3.05-10.9,4.36Z"/></clipPath></defs><g id="Pantalla_de_Proyector"><g class="cls-4"><g><g><g><rect class="cls-23" x="761.85" y="900.09" width="27.03" height="608.6"/><polygon class="cls-23" points="999.53 1508.69 894.01 878.37 867.32 882.36 972.18 1508.69 999.53 1508.69"/><polygon class="cls-23" points="558.66 1508.69 663.51 882.36 636.83 878.37 531.3 1508.69 558.66 1508.69"/></g><rect class="cls-16" x="632.36" y="817.25" width="279.24" height="75.4"/><rect class="cls-6" x="632.36" y="817.25" width="279.24" height="37.72"/><rect class="cls-13" x="415.05" y="801.32" width="713.87" height="31.86"/><rect class="cls-15" x="730.32" y="873.55" width="90.08" height="53.1"/></g><polygon class="cls-17" points="77.65 85.37 77.02 78.8 771.98 20.08 1461.65 78.8 1461.02 85.37 771.98 26.7 77.65 85.37"/><rect class="cls-9" x="37.81" y="73.47" width="1468.34" height="731.12"/><rect class="cls-14" x="28.78" y="787.36" width="1486.41" height="17.23"/><rect class="cls-14" x="28.78" y="73.47" width="1486.41" height="17.23"/><g><path class="cls-27" d="M771.98,25.53h0c6.08,0,11.01,4.93,11.01,11.01v36.93h-22.02V36.54c0-6.08,4.93-11.01,11.01-11.01Z"/><path d="M771.98,23.39h0c7.48,0,13.56,6.08,13.56,13.56v9.19h-27.12v-9.19c0-7.48,6.08-13.56,13.56-13.56Z"/></g></g></g></g><g id="Texto"><text class="cls-35" transform="translate(202.87 319.7)"><tspan x="0" y="0">¿</tspan><tspan class="cls-33" x="32.37" y="0">T</tspan><tspan x="60.84" y="0">us padres, hermanos o abuelos presentan </tspan><tspan x="-15.32" y="63.6">alguna de estas enfermedades: falla cardíaca, </tspan><tspan x="-84.38" y="127.2">infarto, hipertensión, enfermedad renal o diabetes?</tspan></text><text class="cls-3" transform="translate(628.12 168.67)"><tspan x="0" y="0">PREGUN</tspan><tspan class="cls-33" x="128.35" y="0">T</tspan><tspan class="cls-34" x="144.46" y="0">A</tspan><tspan x="162.83" y="0" xml:space="preserve"> 8 DE 10</tspan></text></g><g id="Brazo_D"><g><g><path class="cls-11" d="M1502.16,445.63l-14.38-26.74s.94-4.89-2.33-16.96c-2.96-10.91-7.39-16.08-8.77-20.66-1.37-4.59,1.57-16.08-3.78-18.22s-6.95,18.78-6.5,21.91-18.93,31.31-18.43,38.24c.51,6.93-.47,9.97,8.91,14.3,5.03,2.32,8.97,12.56,8.97,12.56l11.03,21.48,25.28-25.91Z"/><g><g><rect class="cls-22" x="1469.44" y="361.11" width="12.03" height="7.35" transform="translate(575.87 1589.85) rotate(-67.6)"/><rect class="cls-22" x="1437.34" y="383.52" width="55.19" height="13.56" transform="translate(545.78 1595.92) rotate(-67.6)"/><rect class="cls-22" x="1440.19" y="415.29" width="21.94" height="16.84" transform="translate(506.36 1603.87) rotate(-67.6)"/><rect class="cls-22" x="1468.88" y="360.35" width="9.85" height="16.84" transform="translate(571.17 1590.8) rotate(-67.6)"/></g><path class="cls-22" d="M1473.1,352.49c-4.76-11.41-3.77-29.41,3.69-47.51,7.46-18.09,19.44-31.57,30.86-36.31l2.57-6.24,12.2,5.59c14.35,5.92,17.18,32.05,6.33,58.38-10.85,26.33-30.51,41.19-44.98,36.77-1.29-.39-12.85-5.4-12.85-5.4l2.18-5.29Z"/><ellipse class="cls-21" cx="1490.58" cy="310.1" rx="51.56" ry="28.1" transform="translate(635.79 1569.99) rotate(-67.6)"/><ellipse class="cls-11" cx="1489.86" cy="309.81" rx="46.06" ry="21.83" transform="translate(635.62 1569.15) rotate(-67.6)"/><path class="cls-14" d="M1469.68,301.49c9.7-23.52,26.59-38.86,37.74-34.27,.95,.39,1.83,.92,2.64,1.57-11.13-3.18-27.23,11.92-36.61,34.66-8.87,21.51-8.64,42.4-.02,49.33-.38-.11-.76-.24-1.13-.39-11.15-4.59-12.32-27.39-2.63-50.91Z"/><path class="cls-10" d="M1503.88,271.74h0c-.29-.09-.59-.1-.89-.03-2.14,.5-11.27,3.06-18.08,11.34-5.31,6.45-8.47,11.91-9.94,14.72-.55,1.06-.1,2.36,.95,2.74l5.65,2.02c.93,.33,1.97-.19,2.34-1.18,1.38-3.61,4.67-11.74,7.56-15.31,3.93-4.84,9.16-8.56,12.71-10.76,1.42-.88,1.23-3.09-.3-3.55Z"/><path class="cls-10" d="M1483.11,341.34c-1.41,1.41-1.88,3.23-1.05,4.06,.83,.83,2.65,.37,4.06-1.04,1.41-1.41,1.88-3.23,1.05-4.06-.83-.83-2.65-.37-4.06,1.04Z"/></g><path class="cls-11" d="M1472.94,396.64c2.19-5.53-16.56-16.72-18.66-15.78-2.11,.94-4.37,5.49-3.23,8.89,1.14,3.4,19.28,13.49,21.89,6.89Z"/><path class="cls-11" d="M1466.81,405.65c2.19-5.53-16.56-16.72-18.66-15.78-2.11,.94-4.37,5.49-3.23,8.89,1.14,3.4,19.28,13.49,21.89,6.89Z"/><path class="cls-11" d="M1462.01,417c2.37-5.46-16.01-17.25-18.14-16.38s-4.54,5.34-3.51,8.78c1.03,3.44,18.83,14.11,21.66,7.6Z"/><path class="cls-11" d="M1456.12,425.19c2.04-4.65-13.84-14.71-15.69-13.97-1.84,.74-3.92,4.55-3.03,7.48,.89,2.93,16.28,12.03,18.71,6.49Z"/></g><rect class="cls-8" x="1464.27" y="433.24" width="48.62" height="37.8" transform="translate(-29.28 793.3) rotate(-29.56)"/><path class="cls-21" d="M1462.04,478.32s61.96,136.73,92.02,161.95c16.51,13.86,34.97,8.29,45.97-5.87,10.01-12.88,8.9-37.49,1.2-51.87l-14.69-27.46-62.19-113.15-62.32,36.39Z"/></g></g><g id="Detective"><g class="cls-30"><g><path class="cls-21" d="M1556.6,642.36c30.57,24.6,133.92-39.51,133.92-39.51l5.44-107s-28.8-2.19-49.04,19.23c-20.24,21.41-59.59,41.44-59.59,41.44,0,0-61.3,61.24-30.73,85.85Z"/><path class="cls-5" d="M1682.84,595.05c28.79,99.82,92.48,198.11,96.22,299.61,3.27,89,50.38,187.95,63.48,276.04-18.2-1.45-117.48-6.06-163.85-7.11-17.25-189.52-29.63-379.03,4.15-568.55Z"/><path class="cls-22" d="M1739.86,820.32c23.44,93.5,21.83,321.82,20.23,499.85h-73.99s-22.56-175.85-24.6-237.69c-1.75-53.03-1.45-151.59,0-252.25,.73-50.35,56.63-57.76,68.89-8.87l9.47-1.05Z"/><path class="cls-22" d="M1848.81,820.32c23.44,93.5,21.83,321.82,20.23,499.85h-73.99s-22.56-175.85-24.6-237.69c-1.75-53.03-1.45-151.59,0-252.25,.73-50.35,56.63-57.76,68.89-8.87l9.47-1.05Z"/><path class="cls-5" d="M1842.36,492s-63.98-115.52-194.71-18l8,35.24,178.12-1.26,8.6-15.98Z"/><path class="cls-22" d="M1592.58,913.15l25.2-6.71c-11.99-45.06-3.11-94.7,23.76-132.81l-21.32-15.03c-31.26,44.34-41.59,102.12-27.64,154.55Z"/><path class="cls-21" d="M1620.83,713.43c3.36-47.96,9.02-95.75,17.02-143.16,1.3-7.73,2.56-46.73,11.11-51.08,15.35-7.82,21.62,18.14,23.15,28.16,2.43,15.95,6.16,31.85,10.73,47.7-33.79,189.52-21.4,379.03-4.15,568.55-9.72-.22-17.18-.29-21-.13-12.75-53.44-22.5-107.6-29.23-162.13-11.78-95.43-14.33-191.99-7.62-287.91Z"/><path class="cls-21" d="M1793.56,480.29c13.74,.95,26.25,4.05,34.97,11.09,19.75,15.96,13.13,64.34,12.19,86.89-3.42,81.84-28.52,160.82-36.41,242.13-2.13,21.91-5.41,47.87-24.96,57.99-2.36,1.22-4.84,2.11-7.39,2.78-4.07-133.72-14-272.39,21.61-400.89Z"/><path class="cls-8" d="M1770.2,829.59c-39.66,2.92-75.66-3.81-107.88-25.96,2.42-104.01,13.71-207,28.2-311.25,10.22-2.82,20.99-4.52,31.26-5.93,18.02-2.47,46.92-7.88,71.77-6.16-31.05,112.04-27.48,231.82-23.36,349.31Z"/><path class="cls-21" d="M1638.21,566.08c.61-16.11,1.8-33.01,10.44-46.62,9.27-14.6,24.82-22.38,41.88-27.08-17.05,122.66-29.7,262.22-28.92,384.88-4.03-3.98-5.2-25.37-7.77-30.48-5.88-11.67-6.87-25.12-7.75-38.16-5.46-80.74-10.93-161.67-7.87-242.54Z"/><g><rect class="cls-11" x="1703.01" y="406.38" width="84.7" height="121.98" rx="13.66" ry="13.66" transform="translate(3490.72 934.74) rotate(180)"/><path class="cls-18" d="M1703.35,439.75c7.21-4.25,23.95,2.68,43.44,2.68,17.28,0,32.35-8.74,40.58-5.25v15.55c-8.23,3.49-23.29,17.95-40.58,17.95-19.49,0-36.23-12.09-43.44-16.35v-14.57Z"/></g><path class="cls-19" d="M1742.45,510.27c5.71,14.09,10.96,32.83,18.11,46.25,21.08-19.74,34.59-47.38,37.2-76.15,.1-1.14-7.7-1.22-8.45-.98-2.31,.73-2.81,1.84-4.46,3.6-9.21,9.86-24.07,17.85-42.4,27.29Z"/><path class="cls-19" d="M1742.45,510.27c-5.24,15.69-9.15,30.14-15.19,46.25-18.03-18.16-29.57-38.95-31.8-65.4-.09-1.04,6.59-5.76,7.23-5.54,1.97,.67,2.4,1.69,3.81,3.31,7.88,9.06,20.28,12.7,35.96,21.38Z"/><path class="cls-26" d="M1753.84,535.31c-.12,3.49-13.84,12.26-13.84,12.26-3.06-3.97-8.7-14.39-8.9-16.22-.19-1.76,.56-3.46,1.28-5.07,1.73-3.82,3.45-7.64,5.18-11.46,.79-1.75,2.35-5.96,4.36-6.68,2.77-.99,3.65,2.92,4.4,4.91,.86,2.28,7.6,19.83,7.52,22.26Z"/><path class="cls-22" d="M1838.46,491.72c.78,1.08,1.76,2.15,1.78,3.48,.01,.99-.48,1.91-.96,2.78-6.65,12.07-13.3,24.14-19.94,36.21-5.96-.8-11.91-1.6-17.87-2.41-.9,7.13,10.01,10.83,10.6,17.99,.16,1.97-.51,3.91-1.18,5.77-13.94,38.87-27.87,77.75-41.81,116.62,1.25-27.72,2.51-55.44,3.76-83.16,1.93-42.65,4.07-86.3,20.4-125.74,1.05-2.54,31.54,9.52,45.23,28.45Z"/><path class="cls-22" d="M1653.01,481.82c-.94,.88-2.05,1.71-2.38,3-.24,.96-.03,1.96,.18,2.9,2.95,13.15,5.9,26.29,8.86,39.44,5.4,.49,10.8,.98,16.2,1.48-.91,7.12-11.32,8.38-13.54,15.21-.61,1.88-.48,3.91-.33,5.86,2.97,40.74,5.94,81.48,8.92,122.22,5.48-27.2,10.95-54.39,16.43-81.59,8.43-41.84,16.9-84.71,11.97-126.51-.32-2.7-29.84,2.51-46.3,17.99Z"/><path class="cls-21" d="M1892.83,973.59c19.32,61.71,34.51,127.29,50.25,190.01-44.66,10.51-122.33,9.8-167.06-.4-4.18-79.15-13.97-157.97-16.38-237.2-2.41-79.23,2.77-159.69,27.69-234.93,7.59,3.99,20.16,2.34,26.07,8.57,5.83,6.14,3.47,23.53,4.16,31.32,2.49,28.11,53.66,50.44,52.3,78.62-2.63,54.36,1.44,95.23,22.98,164.01Z"/><path class="cls-11" d="M1782.9,847.6c-4.18,2.68-9.74,1.56-12.4-2.49-2.67-4.07-1.47-9.55,2.68-12.25l1.33-.88,32.97-21.33c.12-.08,.25-.12,.37-.19-.49-1.83-.46-3.82,.21-5.76,1.81-5.18,7.48-7.98,12.74-6.28l29.31,9.61c4.83,1.59,7.51,6.46,6.5,11.27,12.14,15.23,10.16,37.5-4.95,50.65l-3.96,3.42c-3.77,3.27-8.01,5.65-12.45,7.2l-2.16,1.4-17.77,11.48c-3.42,2.19-7.98,1.28-10.19-2.07-2.21-3.38-1.24-7.9,2.2-10.13l1.06-.73,.58-.38c-.54-.21-1.09-.43-1.62-.67l-5.43,3.51c-4.17,2.69-9.72,1.58-12.39-2.51-2.67-4.07-1.51-9.53,2.67-12.24l.6-.41c-.29-.38-.55-.77-.82-1.17-4.53,2.54-10.27,1.26-13.07-3.04-2.97-4.47-1.65-10.48,2.94-13.46l1.41-.94,2.43-1.57c-.02-.63,0-1.26,0-1.89l-2.8,1.81Z"/><path class="cls-26" d="M1738.47,757.9c3.23-22.52,7.49-74.74,6.54-112.07,.35-43.5,2.34-103.45-2.6-112.71-13.99,20.26-25.66,71.9-30.06,109.84-4.52,37.9-7.53,75.64-9.34,113.45l35.46,1.48Z"/><path class="cls-28" d="M1838.54,901.98c-16.61,6.66-35.48,13.24-51.39,4.77-16.14-8.59-23.04-29.72-24.9-49.19-.79-8.28-.93-16.82,1.45-24.72,3.12-10.36,10.23-18.63,17.37-26.26,4.92-5.26,18.24-23.86,25.59-21.18,7.64,2.79,10.78,27.41,12.78,34.72,7.37,26.99,13.74,54.3,19.09,81.85Z"/><path class="cls-22" d="M1760.68,752.59c6.81-3.2,13.65-4.98,20.27-6.69,6.59-1.71,12.82-3.33,17.81-6.15,6.38-3.6,18.47-9.66,20.84-16.61,6.03,12.96,5.65,24.31,2.1,34.87-3.09,2.16-6.46,4.18-10.12,6.25-7.96,4.5-16.16,4.83-24.09,6.88-5.71,1.48-11.1,2.88-15.71,5.05-13.96,6.57-23.13,23.07-21.35,38.39l-25.9,3.02c-3.08-26.37,12.13-53.71,36.15-65Z"/><path class="cls-12" d="M1761.69,827.27l-1.3,20.35c-3.4,.22-6.82,.27-10.19,.29-8.76,.06-17.58,.09-26.33-.42-1.97-7.38-2.67-15.13-2.9-23.54,13.37,2.51,27.1,3.67,40.72,3.31Z"/><path class="cls-25" d="M1661.53,801.56c17.39,10.86,37.93,18.37,59.44,22.4,.23,8.41,.93,16.16,2.9,23.54-9.42-.55-18.76-1.73-27.85-4.26-12.01-3.34-25.71-11.54-34.49-20.22-.05-7.34-.03-14.12,0-21.46Z"/><path class="cls-22" d="M1760.39,847.63s-33.37,.67-46.77-1.33l29.61,30.96,15.87-2.69,1.29-26.94Z"/><path class="cls-21" d="M1812.78,803.49l55.89,44.47s46.73-98.4,57.72-136.17c10.99-37.78-51.36-207.16-87.86-204.39-6.9,.52-28.37,60.16-28.37,60.16,0,0,35.6,73.84,44.5,113.19,8.9,39.34-41.88,122.75-41.88,122.75Z"/><path class="cls-29" d="M1824.76,347.44c0,24.86-26.94,45-60.19,45h-33.85c-33.23,0-60.17-20.14-60.17-45v-63.75c0-24.84,26.94-44.99,60.17-44.99h33.85c33.25,0,60.19,20.15,60.19,44.99v63.75Z"/><path class="cls-11" d="M1730.5,262.82h29.72c29.17,0,52.81,25.75,52.81,57.51v2.44s0,67.26,0,67.26v1c0,23.57-33.91,75.34-69.94,75.34h-1.57c-37.5,0-63.84-53.89-63.84-77.46v-1.01s0-65.14,0-65.14v-2.44c0-31.76,23.65-57.51,52.82-57.51Z"/><path class="cls-22" d="M1743.37,331.28c3.19,11.78,1.89,24.17-.69,35.93-.81,3.94-1.65,7.86-2.67,11.77l-.34-.76c7.07,3.32,16.61,4.21,22.51-1.89-5.66,7.04-16.09,6.38-23.6,2.87,1.82-7.95,3.5-16.03,4.87-24.06,1.15-7.88,1.17-15.97-.07-23.85h0Z"/><path class="cls-11" d="M1835.81,343.04s1.42,34.03-22.78,32.06v-8.3s0-23.1,0-23.1v-8.97c.95-.71,17.86-13.05,22.78,8.3Z"/><path class="cls-11" d="M1654.9,343.04s-1.41,34.03,22.78,32.06v-8.3s0-23.1,0-23.1v-8.97c-.96-.71-17.86-13.05-22.78,8.3Z"/><path class="cls-7" d="M1692.85,279.79c36.77-16.97,73.54,16.97,110.32,0,0-2.83,0-5.65,0-8.49-36.78,16.97-73.55-16.97-110.32,0,0,2.83,0,5.66,0,8.49Z"/><path class="cls-7" d="M1692.49,272.8c36.78-16.97,73.55,16.97,110.32,0,0-2.83,0-5.66,0-8.49-36.77,16.97-73.54-16.97-110.32,0,0,2.83,0,5.66,0,8.49Z"/><path class="cls-7" d="M1692.85,267.06c36.77-16.98,73.54,16.97,110.32,0,0-2.83,0-5.66,0-8.49-36.78,16.97-73.55-16.97-110.32,0,0,2.83,0,5.66,0,8.49Z"/><path class="cls-29" d="M1807.89,292.06v17.42c0,5.49,0,10.98,0,16.48,0,1.5,.13,2.93,.14,4.36l-.14-.25v2.44c-.02,.16-.02,.33-.06,.49-.54,2.86-1.1,5.72-1.65,8.58,.56-.04,1.1-.29,1.51-.68-1.06,1.76-.64,4-.77,6.05-.21,3.17-1.83,6.2-1.6,9.37,.5,.03,.95-.31,1.16-.76-.35,4.65-.82,9.29-1.44,13.9,.22-.22,.44-.44,.67-.66-.07,5.85-3.04,11.6-7.76,15.05,.53,.07,1.07,.15,1.6,.22-3.12,3.79-6.94,7-11.21,9.42,.47,.06,.93,.11,1.4,.15-3.03,1.06-6.55,1.7-10.67,1.7l27.92,6.6,2.77-6.6h3.3v-103.29h-5.15Z"/><path class="cls-11" d="M1813.04,395.35c-3.58,25.02-35.87,71.02-70.06,71.02h-1.58c-34.63,0-59.79-45.33-63.72-71.02h135.36Z"/><path class="cls-10" d="M1756.7,347.37c0,1.04,.76,2.04,5.6,4.43s7.83,3.78,12.8,1.67c4.97-2.11,11.6-4.7,12.6-7.17s.37-2.7-6.31-4.15c-6.68-1.45-8.63-2.13-14.33-.31-5.71,1.81-10.36,4.22-10.35,5.53Z"/><path class="cls-2" d="M1757.66,345.88s9.11-4.73,14.1-5.06c5-.34,16.06,3.04,16.06,3.04"/><path class="cls-2" d="M1786.09,348.16s-10.25,6.04-15.46,6.4c-3.75,.26-12.73-5.17-12.73-5.17"/><path class="cls-10" d="M1693.78,344.48c-.11,1.03,.53,2.11,5.07,5.02,4.55,2.91,7.37,4.62,12.54,3.07s12.05-3.39,13.31-5.73c1.27-2.34,.67-2.64-5.82-4.82-6.48-2.18-8.34-3.07-14.21-1.89s-10.76,3.05-10.9,4.36Z"/><path class="cls-2" d="M1694.9,343.11s9.58-3.69,14.58-3.47c5,.22,15.63,4.79,15.63,4.79"/><path class="cls-2" d="M1722.9,348.52s-10.85,4.87-16.08,4.65c-3.76-.16-12.08-6.55-12.08-6.55"/><g><path class="cls-20" d="M1780.33,258.42c13.29,2.14,26.65,4.29,39.39,8.62,21.8,7.41,41.38,21.23,55.65,39.3,4.55,5.76,8.76,13.04,6.68,20.07-2.9,9.78-15.46,12.34-25.67,12.23-24.74-.26-49.07-5.88-73.16-11.46-40.29-9.33-80.95-18.79-118.29-36.58-14.37-6.84-28.68-15.35-37.51-28.6-1.83-2.74-3.45-6.02-2.64-9.21,5.29-20.91,48.64-11.9,62.66-9.35,30.84,5.61,61.95,9.98,92.9,14.96Z"/><path class="cls-24" d="M1677.92,246.33c7.93-13.05,15.86-26.09,23.79-39.14,4.19-6.89,8.5-13.92,14.75-19.02,6.25-5.09,14.92-7.96,22.53-5.29,7.18,2.53,13.16,9.68,20.69,8.59,6.55-.95,10.36-7.61,13.92-13.18,3.56-5.57,9.65-11.32,15.89-9.14,2.28,.79,4.07,2.54,5.71,4.31,15.25,16.52,22.74,38.83,26.57,60.98,2.96,17.08,5.33,35.1,6.14,52.47-51.91,.43-103.11-16.27-149.99-40.6Z"/><path class="cls-22" d="M1827.91,286.93c.02,.49,.07,.99,.09,1.49,.8,19.19-11.36,15.62-26.61,12.42-45.1-9.47-89.32-23.07-131.94-40.58,2.82-4.64,5.64-9.28,8.46-13.92,46.88,24.33,98.08,41.03,149.99,40.6Z"/></g><path class="cls-29" d="M1688.04,383.09c.22,.28,.43,.56,.65,.84,1.34,1.69,2.86,3.44,4.94,4.01-5.74-4.43-9.26-11.61-9.24-18.86l1.23,.17c-.67-4.06-1.34-8.13-2.01-12.19-.16-.97-.3-2.02,.19-2.87,.82,.31,1.64,.63,2.46,.94-1.3-3.48-2.26-7.09-2.86-10.76,.35,.13,.69,.26,1.04,.39-1.84-4.96-1.47-10.43-1.08-15.7,.16-2.07,.31-4.14,.47-6.21,.06-.77,.12-1.53,.1-2.3-.03-2.08-.58-4.09-1.1-6.11l-.74-16.54-4.41-1.57v99.02h3.3l2.76,6.6,27.92-6.6c-12.54,0-19.62-5.73-23.63-12.26Z"/></g></g></g><g id="Bigote_D"><path class="cls-29" d="M1742.32,406.27c1.97-7.61-3.08-15.46-9.89-19.34-7.06-4.12-15.88-4.34-22.84-2.07-3.54,1.1-6.75,2.77-9.55,4.82-2.9,2.12-5.04,4.45-6.45,6.46-1.5,2.07-2.34,3.87-3.56,5.8-1.32,2.01-2.88,4.03-6.59,5.35,1.18,3.92,5.47,6.06,9.45,6.8,4.15,.69,8.19-.19,11.32-1.02l13.01-3.97c3.45-1.03,6.06-2.14,9.56-3.07,3.67-.8,8.23-1.81,15.55,.24Z"/><path class="cls-29" d="M1741.36,406.27c7.28-2.05,11.82-1.06,15.43-.25,3.44,.94,5.97,2.05,9.37,3.06l12.86,3.96c3.11,.84,7.14,1.72,11.27,1.05,3.97-.73,8.25-2.87,9.4-6.79-3.7-1.31-5.23-3.34-6.51-5.35-1.18-1.93-2-3.73-3.47-5.79-1.39-2.01-3.5-4.34-6.38-6.46-2.78-2.05-5.97-3.73-9.5-4.84-6.93-2.28-15.76-2.06-22.78,2.09-6.78,3.9-11.72,11.76-9.7,19.32Z"/></g><g id="Ojos_D"><g class="cls-32"><circle class="cls-26" cx="1765.57" cy="347.42" r="6.82"/><ellipse class="cls-22" cx="1763.67" cy="345.4" rx="4.27" ry="4.8" transform="translate(-19.16 118.83) rotate(-3.84)"/></g><g class="cls-31"><circle class="cls-26" cx="1702.59" cy="345.52" r="6.82"/><ellipse class="cls-22" cx="1700.93" cy="343.3" rx="4.8" ry="4.27" transform="translate(1283.53 2027.57) rotate(-87.49)"/></g></g><g id="Cejas_D"><path class="cls-29" d="M1728.33,322.72c-1.48-1.4-2.86-3-4.85-3.46l.65-.49c-1.53-.9-3.15-1.64-4.82-2.22,.2-.2,.48-.34,.77-.37-2.35-.72-4.8-1.11-7.25-1.16,.2-.13,.35-.33,.41-.55-1.7-.07-3.4-.01-5.09,.17-.03-.2-.05-.41-.08-.61-2.7,.64-5.44,1.16-8.19,1.56-.04-.29-.08-.58-.11-.87-1.28,.7-2.46,1.49-3.61,2.32-.6,.2-1.2,.42-1.8,.65-1.97,.77-4.02,3.17-4.06,4.8v-.02c-.11,.51-.14,1.08-.11,1.76,0,.21,.67,3.32,.8,3.22,11.01-8.59,29.5-5.34,35.6,3.12,.33-.33,1.14-2.91,1.14-2.92,0,0,2.05-3.56,.61-4.91Zm-37.28-1.66s.01,0,.02-.01c-.01,.02-.03,.03-.04,.05l.02-.04Z"/><path class="cls-29" d="M1792.35,340.03c-.01-1.39-.39-2.78-1.09-3.98,.33-.13,.66-.26,.99-.39-2.31-2.11-5.03-3.78-7.96-4.88,.31-.15,.61-.3,.92-.45-2.83-1.63-6.17-2.34-9.41-2.02-.12-.14-.06-.4,.11-.48-4.48-.18-9,.46-13.26,1.86,.03-.26,.05-.53,.08-.79-2.09,.73-3.96,2.04-5.41,3.71-.1,.06-.21,.11-.31,.17-2.73,1.6-3.81,4.4-3.32,6.62-.13,1.26,.06,2.49,.81,3.39,9.87-9.87,25.86-9.87,35.74,0,.74-.88,.95-2.06,.84-3.29,.39,.26,.8,.47,1.27,.52Z"/></g></svg>