<?xml version="1.0" encoding="UTF-8"?><svg id="Capa_2" xmlns="http://www.w3.org/2000/svg" xmlns:xlink="http://www.w3.org/1999/xlink" viewBox="0 0 1940.67 1026.51"><defs><style>.cls-1,.cls-2{fill:none;}.cls-3{font-family:Helvetica, Helvetica;font-size:30px;}.cls-4{clip-path:url(#clippath);}.cls-5{fill:#693d2c;}.cls-6{fill:#683726;}.cls-7{fill:#f3d9b5;}.cls-8{fill:#fff;}.cls-9{fill:#fbfeeb;}.cls-10{fill:#efecec;}.cls-11{fill:#7d4115;}.cls-12{fill:#9f9aa1;}.cls-13{fill:#304353;}.cls-14{fill:#865038;}.cls-15{fill:#ccc;}.cls-16{fill:#c3d9cd;}.cls-17{fill:#dbdbd7;}.cls-18{fill:#424859;}.cls-19{fill:#191d29;}.cls-20{fill:#182e38;}.cls-21{fill:#0a1318;}.cls-22{fill:#1b2933;}.cls-23{fill:#9baaa1;}.cls-24{fill:#565b6f;}.cls-25{fill:#284251;}.cls-26{fill:#79757a;}.cls-27{fill:#454c60;}.cls-28{fill:#46080d;}.cls-29{clip-path:url(#clippath-1);}.cls-30{clip-path:url(#clippath-3);}.cls-31{clip-path:url(#clippath-2);}.cls-32{letter-spacing:-.07em;}.cls-33{letter-spacing:-.05em;}.cls-2{stroke:#0a1318;stroke-linecap:round;stroke-miterlimit:10;stroke-width:.47px;}</style><clipPath id="clippath"><rect class="cls-1" width="1549.86" height="1026.51"/></clipPath><clipPath id="clippath-1"><rect class="cls-1" x="1323.07" y="264.22" width="617.6" height="762.29"/></clipPath><clipPath id="clippath-2"><path class="cls-1" d="M1754.35,494.59c0,1.16,.85,2.28,6.25,4.94,5.4,2.66,8.75,4.22,14.29,1.86,5.54-2.36,12.95-5.25,14.07-8.01,1.12-2.76,.42-3.01-7.05-4.63-7.46-1.62-9.63-2.37-16-.35-6.37,2.03-11.57,4.72-11.55,6.18Z"/></clipPath><clipPath id="clippath-3"><path class="cls-1" d="M1684.1,491.37c-.12,1.15,.59,2.36,5.67,5.6,5.08,3.24,8.23,5.16,14,3.43,5.77-1.73,13.45-3.78,14.87-6.4s.75-2.95-6.49-5.38-9.31-3.42-15.87-2.12c-6.56,1.31-12.02,3.41-12.17,4.86Z"/></clipPath></defs><g id="Pantalla_de_Proyector"><g class="cls-4"><g><g><g><rect class="cls-22" x="761.85" y="892.36" width="27.03" height="603.38"/><polygon class="cls-22" points="999.53 1495.74 894.01 870.84 867.32 874.78 972.18 1495.74 999.53 1495.74"/><polygon class="cls-22" points="558.66 1495.74 663.51 874.78 636.83 870.84 531.3 1495.74 558.66 1495.74"/></g><rect class="cls-14" x="632.36" y="810.24" width="279.24" height="74.76"/><rect class="cls-5" x="632.36" y="810.24" width="279.24" height="37.39"/><rect class="cls-11" x="415.05" y="794.44" width="713.87" height="31.59"/><rect class="cls-13" x="730.32" y="866.05" width="90.08" height="52.64"/></g><polygon class="cls-15" points="77.65 84.64 77.02 78.12 771.98 19.9 1461.65 78.12 1461.02 84.64 771.98 26.48 77.65 84.64"/><rect class="cls-7" x="37.81" y="72.84" width="1468.34" height="724.84"/><rect class="cls-12" x="28.78" y="780.6" width="1486.41" height="17.08"/><rect class="cls-12" x="28.78" y="72.84" width="1486.41" height="17.08"/><g><path class="cls-26" d="M771.98,25.31h0c6.08,0,11.01,4.93,11.01,11.01v36.52h-22.02V36.32c0-6.08,4.93-11.01,11.01-11.01Z"/><path d="M771.98,23.19h0c7.48,0,13.56,6.08,13.56,13.56v8.99h-27.12v-8.99c0-7.48,6.08-13.56,13.56-13.56Z"/></g></g></g></g><g id="Texto"><g><path d="M341.21,364.73c-2.59,1.72-5.4,2.58-8.44,2.58-3.95,0-7.21-.94-9.77-2.82-2.56-1.88-3.84-4.62-3.84-8.23,0-2.24,.55-4.14,1.66-5.69,.67-.95,1.94-2.14,3.8-3.57l1.84-1.42c1-.77,1.67-1.68,1.99-2.71,.21-.65,.32-1.66,.34-3.02h6.99c-.1,2.86-.38,4.85-.84,5.98-.46,1.13-1.6,2.42-3.44,3.86l-1.88,1.47c-1.07,.84-1.79,1.74-2.17,2.69-.24,.59-.36,1.27-.36,2.04,0,1.57,.46,2.82,1.38,3.75,.92,.93,2.17,1.4,3.76,1.4,2.34,0,3.99-.95,4.96-2.85,.5-1.02,.75-2.11,.75-3.29h7.48c-.21,4.83-1.6,8.1-4.19,9.82Zm-5.25-28.48h-7.74v-7.48h7.74v7.48Z"/><path d="M377.2,319.69c1.4,.6,2.59,1.49,3.57,2.67,.81,.97,1.45,2.04,1.92,3.21,.47,1.17,.71,2.51,.71,4.01,0,1.81-.46,3.59-1.37,5.34-.92,1.75-2.42,2.99-4.53,3.71,1.76,.71,3.01,1.71,3.74,3.01,.73,1.3,1.1,3.29,1.1,5.97v2.56c0,1.74,.07,2.92,.21,3.55,.21,.98,.7,1.71,1.47,2.17v.96h-8.8c-.24-.85-.41-1.53-.52-2.04-.21-1.07-.32-2.17-.34-3.29l-.05-3.55c-.03-2.43-.45-4.05-1.26-4.87-.81-.81-2.32-1.22-4.54-1.22h-7.79v14.96h-7.79v-38.15h18.25c2.61,.05,4.61,.38,6.02,.98Zm-16.47,5.64v10.25h8.58c1.7,0,2.98-.21,3.83-.62,1.51-.72,2.26-2.16,2.26-4.3,0-2.31-.73-3.86-2.19-4.66-.82-.45-2.05-.67-3.69-.67h-8.8Z"/><path d="M408.81,329.22c1.97,.88,3.59,2.27,4.87,4.17,1.16,1.68,1.9,3.62,2.25,5.83,.2,1.3,.28,3.16,.24,5.6h-20.54c.11,2.83,1.1,4.81,2.95,5.95,1.13,.71,2.48,1.06,4.07,1.06,1.68,0,3.04-.43,4.09-1.29,.57-.47,1.08-1.11,1.52-1.94h7.53c-.2,1.67-1.11,3.37-2.73,5.1-2.53,2.74-6.06,4.11-10.61,4.11-3.75,0-7.07-1.16-9.94-3.47-2.87-2.31-4.3-6.08-4.3-11.29,0-4.89,1.29-8.63,3.89-11.24,2.59-2.61,5.95-3.91,10.09-3.91,2.45,0,4.67,.44,6.63,1.32Zm-11.03,6.37c-1.04,1.07-1.7,2.53-1.96,4.37h12.71c-.13-1.96-.79-3.44-1.96-4.46-1.18-1.01-2.63-1.52-4.38-1.52-1.89,0-3.36,.54-4.4,1.61Z"/><path d="M431.08,339.7c1.37-.17,2.35-.39,2.95-.65,1.06-.45,1.59-1.15,1.59-2.1,0-1.16-.41-1.95-1.22-2.39-.81-.44-2.01-.66-3.58-.66-1.77,0-3.02,.43-3.75,1.29-.52,.64-.87,1.5-1.05,2.59h-7.12c.16-2.47,.85-4.49,2.08-6.08,1.96-2.48,5.32-3.73,10.08-3.73,3.1,0,5.86,.61,8.27,1.84,2.41,1.23,3.61,3.54,3.61,6.94v12.94c0,.9,.02,1.98,.05,3.26,.05,.97,.2,1.62,.44,1.97,.24,.35,.6,.63,1.09,.85v1.09h-8.02c-.22-.57-.38-1.1-.47-1.6-.09-.5-.16-1.07-.21-1.71-1.02,1.1-2.2,2.04-3.54,2.82-1.6,.91-3.4,1.37-5.41,1.37-2.57,0-4.69-.73-6.36-2.19-1.67-1.46-2.51-3.52-2.51-6.2,0-3.47,1.35-5.98,4.04-7.53,1.48-.85,3.65-1.45,6.52-1.81l2.53-.31Zm4.51,3.44c-.47,.29-.95,.53-1.43,.71-.48,.18-1.14,.35-1.98,.5l-1.68,.31c-1.57,.28-2.7,.61-3.39,1.01-1.16,.67-1.74,1.72-1.74,3.13,0,1.26,.35,2.17,1.06,2.73,.71,.56,1.57,.84,2.59,.84,1.61,0,3.1-.47,4.45-1.4,1.36-.93,2.06-2.63,2.12-5.1v-2.74Z"/><path d="M456.92,356.85h-7.38v-38.15h7.38v38.15Z"/><path d="M471.69,325.28h-7.48v-6.81h7.48v6.81Zm-7.48,3.36h7.48v28.21h-7.48v-28.21Z"/><path d="M477.23,334.65v-6h22.31v6.13l-13.84,16.02h14.33v6.06h-23.78v-5.75l13.98-16.46h-13Z"/><path d="M516.51,339.7c1.37-.17,2.35-.39,2.95-.65,1.06-.45,1.59-1.15,1.59-2.1,0-1.16-.41-1.95-1.22-2.39-.81-.44-2.01-.66-3.58-.66-1.77,0-3.02,.43-3.75,1.29-.53,.64-.88,1.5-1.05,2.59h-7.12c.16-2.47,.85-4.49,2.08-6.08,1.96-2.48,5.32-3.73,10.08-3.73,3.1,0,5.86,.61,8.26,1.84,2.41,1.23,3.61,3.54,3.61,6.94v12.94c0,.9,.02,1.98,.05,3.26,.05,.97,.2,1.62,.44,1.97,.24,.35,.6,.63,1.09,.85v1.09h-8.02c-.22-.57-.38-1.1-.47-1.6-.09-.5-.16-1.07-.21-1.71-1.02,1.1-2.2,2.04-3.54,2.82-1.6,.91-3.4,1.37-5.42,1.37-2.57,0-4.69-.73-6.36-2.19-1.67-1.46-2.51-3.52-2.51-6.2,0-3.47,1.35-5.98,4.04-7.53,1.48-.85,3.65-1.45,6.52-1.81l2.53-.31Zm4.51,3.44c-.47,.29-.95,.53-1.43,.71-.48,.18-1.14,.35-1.98,.5l-1.68,.31c-1.57,.28-2.7,.61-3.39,1.01-1.16,.67-1.74,1.72-1.74,3.13,0,1.26,.35,2.17,1.06,2.73,.71,.56,1.57,.84,2.59,.84,1.61,0,3.1-.47,4.45-1.4,1.36-.93,2.06-2.63,2.12-5.1v-2.74Z"/><path d="M540.53,347.85c.16,1.31,.49,2.24,1.01,2.79,.92,.98,2.62,1.48,5.1,1.48,1.46,0,2.61-.22,3.47-.65,.86-.43,1.29-1.08,1.29-1.94s-.35-1.46-1.04-1.89c-.69-.43-3.26-1.17-7.72-2.23-3.21-.79-5.46-1.79-6.77-2.98-1.31-1.17-1.97-2.86-1.97-5.07,0-2.6,1.02-4.84,3.07-6.72s4.93-2.81,8.65-2.81c3.53,0,6.4,.7,8.62,2.11,2.22,1.41,3.5,3.83,3.83,7.29h-7.38c-.1-.95-.37-1.7-.8-2.25-.81-1-2.2-1.5-4.15-1.5-1.61,0-2.75,.25-3.44,.75-.68,.5-1.02,1.09-1.02,1.76,0,.85,.36,1.46,1.09,1.84,.73,.4,3.29,1.08,7.7,2.04,2.94,.69,5.14,1.73,6.61,3.13,1.45,1.42,2.17,3.18,2.17,5.31,0,2.79-1.04,5.08-3.12,6.84-2.08,1.77-5.3,2.65-9.66,2.65s-7.72-.94-9.84-2.81c-2.12-1.87-3.18-4.26-3.18-7.16h7.48Z"/><path d="M597.39,329.22c1.97,.88,3.59,2.27,4.88,4.17,1.16,1.68,1.9,3.62,2.25,5.83,.2,1.3,.28,3.16,.24,5.6h-20.54c.11,2.83,1.1,4.81,2.95,5.95,1.13,.71,2.48,1.06,4.07,1.06,1.68,0,3.04-.43,4.1-1.29,.57-.47,1.08-1.11,1.52-1.94h7.53c-.2,1.67-1.11,3.37-2.73,5.1-2.53,2.74-6.06,4.11-10.61,4.11-3.75,0-7.07-1.16-9.94-3.47-2.87-2.31-4.3-6.08-4.3-11.29,0-4.89,1.29-8.63,3.89-11.24,2.59-2.61,5.95-3.91,10.09-3.91,2.46,0,4.67,.44,6.63,1.32Zm-11.03,6.37c-1.04,1.07-1.7,2.53-1.96,4.37h12.71c-.13-1.96-.79-3.44-1.96-4.46-1.18-1.01-2.63-1.52-4.37-1.52-1.89,0-3.36,.54-4.4,1.61Z"/><path d="M605.28,362.26c.41,.03,.71,.06,.88,.06,.17,0,.33,.01,.47,.01,.72,0,1.27-.18,1.64-.53,.37-.35,.56-1.04,.56-2.06v-30.98h7.38v31.11c0,2.85-.56,4.95-1.68,6.31-1.12,1.36-3.32,2.04-6.6,2.04-.22,0-.56,0-1-.03-.44-.02-.99-.03-1.64-.05v-5.9Zm10.92-36.98h-7.38v-6.81h7.38v6.81Z"/><path d="M641.59,329.22c1.97,.88,3.59,2.27,4.88,4.17,1.16,1.68,1.9,3.62,2.25,5.83,.2,1.3,.28,3.16,.24,5.6h-20.54c.11,2.83,1.1,4.81,2.95,5.95,1.13,.71,2.48,1.06,4.07,1.06,1.68,0,3.04-.43,4.1-1.29,.57-.47,1.08-1.11,1.52-1.94h7.53c-.2,1.67-1.11,3.37-2.73,5.1-2.53,2.74-6.06,4.11-10.61,4.11-3.75,0-7.07-1.16-9.94-3.47-2.87-2.31-4.3-6.08-4.3-11.29,0-4.89,1.29-8.63,3.89-11.24,2.59-2.61,5.95-3.91,10.09-3.91,2.46,0,4.67,.44,6.63,1.32Zm-11.03,6.37c-1.04,1.07-1.7,2.53-1.96,4.37h12.71c-.13-1.96-.79-3.44-1.96-4.46-1.18-1.01-2.63-1.52-4.37-1.52-1.89,0-3.36,.54-4.4,1.61Z"/><path d="M668.36,327.99c.09,0,.31,.02,.63,.04v7.56c-.47-.05-.88-.09-1.24-.1-.36-.02-.66-.03-.88-.03-2.97,0-4.96,.97-5.98,2.9-.57,1.09-.85,2.76-.85,5.02v13.48h-7.43v-28.21h7.04v4.92c1.14-1.88,2.13-3.17,2.98-3.86,1.38-1.16,3.17-1.73,5.38-1.73,.14,0,.25,0,.35,.01Z"/><path d="M690.19,338.77c-.14-1.05-.49-2-1.06-2.85-.83-1.14-2.12-1.71-3.87-1.71-2.49,0-4.19,1.23-5.11,3.7-.48,1.31-.73,3.05-.73,5.21s.24,3.73,.73,4.98c.88,2.35,2.54,3.52,4.98,3.52,1.73,0,2.96-.47,3.68-1.4s1.17-2.14,1.32-3.62h7.53c-.17,2.24-.98,4.37-2.43,6.37-2.31,3.23-5.74,4.84-10.28,4.84s-7.88-1.35-10.03-4.04-3.21-6.18-3.21-10.47c0-4.84,1.18-8.6,3.55-11.3,2.37-2.69,5.63-4.04,9.79-4.04,3.54,0,6.44,.79,8.69,2.38,2.25,1.59,3.59,4.39,4,8.41h-7.56Z"/><path d="M710.37,325.28h-7.48v-6.81h7.48v6.81Zm-7.48,3.36h7.48v28.21h-7.48v-28.21Z"/><path d="M734.39,338.77c-.14-1.05-.49-2-1.06-2.85-.83-1.14-2.12-1.71-3.87-1.71-2.49,0-4.19,1.23-5.11,3.7-.48,1.31-.73,3.05-.73,5.21s.24,3.73,.73,4.98c.88,2.35,2.54,3.52,4.98,3.52,1.73,0,2.96-.47,3.68-1.4s1.17-2.14,1.32-3.62h7.53c-.17,2.24-.98,4.37-2.43,6.37-2.31,3.23-5.74,4.84-10.28,4.84s-7.88-1.35-10.03-4.04-3.21-6.18-3.21-10.47c0-4.84,1.18-8.6,3.55-11.3,2.37-2.69,5.63-4.04,9.79-4.04,3.54,0,6.44,.79,8.69,2.38,2.25,1.59,3.59,4.39,4,8.41h-7.56Z"/><path d="M754.57,325.28h-7.48v-6.81h7.48v6.81Zm-7.48,3.36h7.48v28.21h-7.48v-28.21Z"/><path d="M785.24,353.4c-2.38,2.94-6,4.41-10.84,4.41s-8.46-1.47-10.84-4.41-3.57-6.48-3.57-10.61,1.19-7.59,3.57-10.57c2.38-2.98,6-4.47,10.84-4.47s8.46,1.49,10.84,4.47c2.38,2.98,3.57,6.51,3.57,10.57s-1.19,7.68-3.57,10.61Zm-5.9-4.08c1.16-1.53,1.73-3.71,1.73-6.54s-.58-5-1.73-6.52-2.81-2.29-4.97-2.29-3.82,.76-4.98,2.29c-1.17,1.52-1.75,3.7-1.75,6.52s.58,5,1.75,6.54c1.16,1.53,2.83,2.3,4.98,2.3s3.81-.77,4.97-2.3Z"/><path d="M820.49,318.36c.38,.03,.9,.06,1.55,.12v6c-.41-.05-1.11-.09-2.08-.12-.97-.03-1.65,.19-2.02,.65s-.56,.96-.56,1.51v2.38h4.84v5.2h-4.84v22.75h-7.32v-22.75h-4.14v-5.2h4.04v-1.81c0-3.02,.51-5.1,1.53-6.24,1.07-1.69,3.65-2.54,7.74-2.54,.47,0,.89,.01,1.27,.04Z"/><path d="M842.14,327.99c.09,0,.31,.02,.63,.04v7.56c-.47-.05-.88-.09-1.24-.1-.36-.02-.66-.03-.88-.03-2.97,0-4.96,.97-5.98,2.9-.57,1.09-.85,2.76-.85,5.02v13.48h-7.43v-28.21h7.04v4.92c1.14-1.88,2.13-3.17,2.98-3.86,1.38-1.16,3.17-1.73,5.38-1.73,.14,0,.25,0,.35,.01Z"/><path d="M865.47,329.22c1.97,.88,3.59,2.27,4.87,4.17,1.16,1.68,1.9,3.62,2.25,5.83,.2,1.3,.28,3.16,.24,5.6h-20.54c.11,2.83,1.1,4.81,2.95,5.95,1.13,.71,2.48,1.06,4.07,1.06,1.68,0,3.04-.43,4.09-1.29,.57-.47,1.08-1.11,1.52-1.94h7.53c-.2,1.67-1.11,3.37-2.73,5.1-2.53,2.74-6.06,4.11-10.61,4.11-3.75,0-7.07-1.16-9.94-3.47-2.87-2.31-4.3-6.08-4.3-11.29,0-4.89,1.29-8.63,3.89-11.24,2.59-2.61,5.95-3.91,10.09-3.91,2.45,0,4.67,.44,6.63,1.32Zm-11.03,6.37c-1.04,1.07-1.7,2.53-1.96,4.37h12.71c-.13-1.96-.79-3.44-1.96-4.46-1.18-1.01-2.63-1.52-4.38-1.52-1.89,0-3.36,.54-4.4,1.61Z"/><path d="M893.44,338.77c-.14-1.05-.49-2-1.06-2.85-.83-1.14-2.12-1.71-3.87-1.71-2.49,0-4.19,1.23-5.11,3.7-.48,1.31-.73,3.05-.73,5.21s.24,3.73,.73,4.98c.88,2.35,2.54,3.52,4.98,3.52,1.73,0,2.96-.47,3.68-1.4s1.17-2.14,1.32-3.62h7.53c-.17,2.24-.98,4.37-2.43,6.37-2.31,3.23-5.74,4.84-10.28,4.84s-7.88-1.35-10.03-4.04-3.21-6.18-3.21-10.47c0-4.84,1.18-8.6,3.55-11.3,2.37-2.69,5.63-4.04,9.79-4.04,3.54,0,6.44,.79,8.69,2.38,2.25,1.59,3.59,4.39,4,8.41h-7.56Z"/><path d="M913.39,328.65v17c0,1.6,.19,2.81,.57,3.62,.67,1.43,1.98,2.15,3.94,2.15,2.51,0,4.22-1.02,5.15-3.05,.48-1.1,.72-2.56,.72-4.37v-15.35h7.48v28.21h-7.17v-3.99c-.07,.09-.24,.35-.52,.78-.28,.43-.6,.81-.98,1.14-1.15,1.04-2.27,1.74-3.34,2.12s-2.34,.57-3.78,.57c-4.16,0-6.97-1.5-8.41-4.5-.81-1.66-1.21-4.1-1.21-7.32v-17h7.56Z"/><path d="M956.8,329.22c1.97,.88,3.59,2.27,4.88,4.17,1.16,1.68,1.9,3.62,2.25,5.83,.2,1.3,.28,3.16,.24,5.6h-20.54c.11,2.83,1.1,4.81,2.95,5.95,1.13,.71,2.48,1.06,4.07,1.06,1.68,0,3.04-.43,4.1-1.29,.57-.47,1.08-1.11,1.52-1.94h7.53c-.2,1.67-1.11,3.37-2.73,5.1-2.53,2.74-6.06,4.11-10.61,4.11-3.75,0-7.07-1.16-9.94-3.47-2.87-2.31-4.3-6.08-4.3-11.29,0-4.89,1.29-8.63,3.89-11.24,2.59-2.61,5.95-3.91,10.09-3.91,2.46,0,4.67,.44,6.63,1.32Zm-11.03,6.37c-1.04,1.07-1.7,2.53-1.96,4.37h12.71c-.13-1.96-.79-3.44-1.96-4.46-1.18-1.01-2.63-1.52-4.37-1.52-1.89,0-3.36,.54-4.4,1.61Z"/><path d="M990.64,330.26c1.85,1.53,2.77,4.06,2.77,7.6v19h-7.56v-17.16c0-1.48-.2-2.62-.59-3.42-.72-1.45-2.09-2.17-4.11-2.17-2.48,0-4.19,1.06-5.11,3.18-.48,1.12-.72,2.55-.72,4.3v15.27h-7.38v-28.16h7.14v4.11c.95-1.45,1.84-2.49,2.68-3.13,1.51-1.14,3.43-1.71,5.75-1.71,2.9,0,5.28,.76,7.13,2.29Z"/><path d="M997.37,334.16v-5.25h3.93v-7.87h7.3v7.87h4.58v5.25h-4.58v14.91c0,1.16,.15,1.88,.44,2.16,.29,.29,1.19,.43,2.69,.43,.22,0,.46,0,.71-.01,.25,0,.5-.02,.74-.04v5.51l-3.49,.13c-3.49,.12-5.87-.48-7.14-1.81-.83-.85-1.24-2.15-1.24-3.91v-17.36h-3.93Z"/><path d="M1036.3,329.22c1.97,.88,3.59,2.27,4.88,4.17,1.16,1.68,1.9,3.62,2.25,5.83,.2,1.3,.28,3.16,.24,5.6h-20.54c.11,2.83,1.1,4.81,2.95,5.95,1.13,.71,2.48,1.06,4.07,1.06,1.68,0,3.04-.43,4.1-1.29,.57-.47,1.08-1.11,1.52-1.94h7.53c-.2,1.67-1.11,3.37-2.73,5.1-2.53,2.74-6.06,4.11-10.61,4.11-3.75,0-7.07-1.16-9.94-3.47-2.87-2.31-4.3-6.08-4.3-11.29,0-4.89,1.29-8.63,3.89-11.24,2.59-2.61,5.95-3.91,10.09-3.91,2.46,0,4.67,.44,6.63,1.32Zm-11.03,6.37c-1.04,1.07-1.7,2.53-1.96,4.37h12.71c-.13-1.96-.79-3.44-1.96-4.46-1.18-1.01-2.63-1.52-4.37-1.52-1.89,0-3.36,.54-4.4,1.61Z"/><path d="M1082.59,328.75c1.21,.48,2.3,1.33,3.29,2.54,.79,.98,1.33,2.19,1.6,3.62,.17,.95,.26,2.34,.26,4.17l-.05,17.78h-7.56v-17.96c0-1.07-.17-1.95-.52-2.64-.66-1.31-1.86-1.97-3.62-1.97-2.04,0-3.44,.85-4.22,2.54-.4,.9-.59,1.98-.59,3.23v16.8h-7.43v-16.8c0-1.67-.17-2.89-.52-3.65-.62-1.36-1.84-2.04-3.65-2.04-2.11,0-3.52,.68-4.24,2.04-.4,.78-.6,1.93-.6,3.47v16.98h-7.48v-28.16h7.17v4.11c.91-1.47,1.78-2.51,2.59-3.13,1.43-1.1,3.29-1.66,5.56-1.66,2.16,0,3.9,.47,5.23,1.42,1.07,.88,1.88,2.01,2.43,3.39,.97-1.66,2.17-2.87,3.6-3.65,1.52-.78,3.21-1.16,5.07-1.16,1.24,0,2.47,.24,3.67,.72Z"/><path d="M1112.9,329.22c1.97,.88,3.59,2.27,4.88,4.17,1.16,1.68,1.9,3.62,2.25,5.83,.2,1.3,.28,3.16,.24,5.6h-20.54c.11,2.83,1.1,4.81,2.95,5.95,1.13,.71,2.48,1.06,4.07,1.06,1.68,0,3.04-.43,4.1-1.29,.57-.47,1.08-1.11,1.52-1.94h7.53c-.2,1.67-1.11,3.37-2.73,5.1-2.53,2.74-6.06,4.11-10.61,4.11-3.75,0-7.07-1.16-9.94-3.47-2.87-2.31-4.3-6.08-4.3-11.29,0-4.89,1.29-8.63,3.89-11.24,2.59-2.61,5.95-3.91,10.09-3.91,2.46,0,4.67,.44,6.63,1.32Zm-11.03,6.37c-1.04,1.07-1.7,2.53-1.96,4.37h12.71c-.13-1.96-.79-3.44-1.96-4.46-1.18-1.01-2.63-1.52-4.37-1.52-1.89,0-3.36,.54-4.4,1.61Z"/><path d="M1146.74,330.26c1.85,1.53,2.77,4.06,2.77,7.6v19h-7.56v-17.16c0-1.48-.2-2.62-.59-3.42-.72-1.45-2.09-2.17-4.11-2.17-2.48,0-4.19,1.06-5.11,3.18-.48,1.12-.72,2.55-.72,4.3v15.27h-7.38v-28.16h7.14v4.11c.95-1.45,1.84-2.49,2.68-3.13,1.51-1.14,3.43-1.71,5.75-1.71,2.9,0,5.28,.76,7.13,2.29Z"/><path d="M1153.47,334.16v-5.25h3.93v-7.87h7.3v7.87h4.58v5.25h-4.58v14.91c0,1.16,.15,1.88,.44,2.16,.29,.29,1.19,.43,2.69,.43,.22,0,.46,0,.71-.01,.25,0,.5-.02,.74-.04v5.51l-3.49,.13c-3.49,.12-5.87-.48-7.14-1.81-.83-.85-1.24-2.15-1.24-3.91v-17.36h-3.93Z"/><path d="M1192.4,329.22c1.97,.88,3.59,2.27,4.88,4.17,1.16,1.68,1.9,3.62,2.25,5.83,.2,1.3,.28,3.16,.24,5.6h-20.54c.11,2.83,1.1,4.81,2.95,5.95,1.13,.71,2.48,1.06,4.07,1.06,1.68,0,3.04-.43,4.1-1.29,.57-.47,1.08-1.11,1.52-1.94h7.53c-.2,1.67-1.11,3.37-2.73,5.1-2.53,2.74-6.06,4.11-10.61,4.11-3.75,0-7.07-1.16-9.94-3.47-2.87-2.31-4.3-6.08-4.3-11.29,0-4.89,1.29-8.63,3.89-11.24,2.59-2.61,5.95-3.91,10.09-3.91,2.46,0,4.67,.44,6.63,1.32Zm-11.03,6.37c-1.04,1.07-1.7,2.53-1.96,4.37h12.71c-.13-1.96-.79-3.44-1.96-4.46-1.18-1.01-2.63-1.52-4.37-1.52-1.89,0-3.36,.54-4.4,1.61Z"/><path d="M1208.39,320.29c2.04-1.31,4.54-1.97,7.5-1.97,3.9,0,7.14,.93,9.72,2.79,2.58,1.86,3.87,4.62,3.87,8.28,0,2.24-.56,4.13-1.68,5.67-.65,.93-1.91,2.12-3.77,3.57l-1.83,1.42c-1,.78-1.66,1.68-1.99,2.72-.21,.66-.32,1.67-.33,3.05h-7.01c.1-2.92,.38-4.93,.83-6.04,.45-1.11,1.6-2.39,3.46-3.84l1.88-1.48c.62-.47,1.12-.97,1.5-1.53,.69-.95,1.03-1.99,1.03-3.13,0-1.31-.38-2.51-1.15-3.58-.77-1.08-2.17-1.62-4.2-1.62s-3.41,.66-4.25,1.99c-.83,1.33-1.25,2.71-1.25,4.14h-7.48c.21-4.92,1.92-8.4,5.15-10.46Zm4.3,29.09h7.74v7.48h-7.74v-7.48Z"/><path d="M168.51,391.94c1.36-3.17,3.36-6.59,5.98-10.25h5.56l-1.58,2.9c-2.17,3.99-3.68,8.16-4.53,12.53-.55,2.86-.83,5.99-.83,9.37,0,5.28,.77,10.14,2.3,14.57,.9,2.62,2.48,5.99,4.76,10.09h-5.46l-1.84-2.51c-1.19-1.52-2.46-3.78-3.8-6.78-2.4-5.37-3.6-10.64-3.6-15.84,0-4.73,1.01-9.42,3.03-14.08Z"/><path d="M219.46,392.35c1.21,.48,2.3,1.33,3.29,2.54,.79,.98,1.33,2.19,1.6,3.62,.17,.95,.26,2.34,.26,4.17l-.05,17.78h-7.56v-17.96c0-1.07-.17-1.95-.52-2.64-.66-1.31-1.86-1.97-3.62-1.97-2.04,0-3.44,.85-4.22,2.54-.4,.9-.6,1.98-.6,3.23v16.8h-7.43v-16.8c0-1.67-.17-2.89-.52-3.65-.62-1.36-1.84-2.04-3.65-2.04-2.1,0-3.52,.68-4.24,2.04-.4,.78-.59,1.93-.59,3.47v16.98h-7.48v-28.16h7.17v4.11c.91-1.47,1.78-2.51,2.59-3.13,1.43-1.1,3.29-1.66,5.56-1.66,2.16,0,3.9,.47,5.23,1.42,1.07,.88,1.88,2.01,2.43,3.39,.97-1.66,2.17-2.87,3.6-3.65,1.52-.78,3.21-1.16,5.07-1.16,1.24,0,2.47,.24,3.67,.72Z"/><path d="M244.2,380.7l-7.87,7.74h-5.33l4.97-7.74h8.23Zm-12.71,11.54h7.48v28.21h-7.48v-28.21Z"/><path d="M268.86,393.86c1.85,1.53,2.77,4.06,2.77,7.6v19h-7.56v-17.16c0-1.48-.2-2.62-.59-3.42-.72-1.45-2.09-2.17-4.11-2.17-2.48,0-4.19,1.06-5.11,3.18-.48,1.12-.72,2.55-.72,4.3v15.27h-7.38v-28.16h7.14v4.11c.94-1.45,1.84-2.49,2.68-3.13,1.51-1.14,3.43-1.71,5.75-1.71,2.9,0,5.28,.76,7.12,2.29Z"/><path d="M286.08,388.88h-7.48v-6.81h7.48v6.81Zm-7.48,3.36h7.48v28.21h-7.48v-28.21Z"/><path d="M328.41,392.35c1.21,.48,2.3,1.33,3.29,2.54,.79,.98,1.33,2.19,1.6,3.62,.17,.95,.26,2.34,.26,4.17l-.05,17.78h-7.56v-17.96c0-1.07-.17-1.95-.52-2.64-.66-1.31-1.86-1.97-3.62-1.97-2.04,0-3.44,.85-4.22,2.54-.4,.9-.6,1.98-.6,3.23v16.8h-7.43v-16.8c0-1.67-.17-2.89-.52-3.65-.62-1.36-1.84-2.04-3.65-2.04-2.1,0-3.52,.68-4.24,2.04-.4,.78-.59,1.93-.59,3.47v16.98h-7.48v-28.16h7.17v4.11c.91-1.47,1.78-2.51,2.59-3.13,1.43-1.1,3.29-1.66,5.56-1.66,2.16,0,3.9,.47,5.23,1.42,1.07,.88,1.88,2.01,2.43,3.39,.97-1.66,2.17-2.87,3.6-3.65,1.52-.78,3.21-1.16,5.07-1.16,1.24,0,2.47,.24,3.67,.72Z"/><path d="M363.87,417c-2.38,2.94-6,4.41-10.84,4.41s-8.46-1.47-10.84-4.41-3.57-6.48-3.57-10.61,1.19-7.59,3.57-10.57c2.38-2.98,6-4.47,10.84-4.47s8.46,1.49,10.84,4.47c2.38,2.98,3.57,6.51,3.57,10.57s-1.19,7.68-3.57,10.61Zm-5.9-4.08c1.16-1.53,1.73-3.71,1.73-6.54s-.58-5-1.73-6.52c-1.16-1.52-2.81-2.29-4.97-2.29s-3.82,.76-4.98,2.29c-1.17,1.52-1.75,3.7-1.75,6.52s.58,5,1.75,6.54c1.16,1.53,2.82,2.3,4.98,2.3s3.81-.77,4.97-2.3Z"/><path d="M387.68,394.58v-5.02c2.32-.1,3.95-.26,4.88-.47,1.48-.33,2.69-.98,3.61-1.97,.64-.67,1.12-1.57,1.45-2.69,.19-.67,.28-1.17,.28-1.5h6.16v37.52h-7.56v-25.88h-8.82Z"/><path d="M422.22,410.41c.29,1.6,.85,2.84,1.68,3.71,.83,.87,2.03,1.31,3.61,1.31,1.82,0,3.21-.64,4.17-1.93s1.43-2.9,1.43-4.85-.45-3.53-1.34-4.85c-.9-1.32-2.29-1.98-4.18-1.98-.9,0-1.67,.11-2.32,.34-1.15,.41-2.02,1.18-2.61,2.3l-6.61-.31,2.63-20.73h20.65v6.26h-15.32l-1.34,8.2c1.14-.74,2.02-1.23,2.66-1.48,1.07-.4,2.37-.6,3.9-.6,3.1,0,5.81,1.04,8.12,3.13,2.31,2.09,3.46,5.12,3.46,9.11,0,3.47-1.11,6.56-3.33,9.29-2.22,2.73-5.55,4.09-9.98,4.09-3.57,0-6.5-.96-8.79-2.87s-3.57-4.63-3.83-8.15h7.35Z"/><path d="M467.6,387.72c1.92,3.36,2.89,8.14,2.89,14.34s-.96,10.96-2.89,14.31c-1.92,3.35-5.28,5.02-10.05,5.02s-8.13-1.67-10.05-5.02c-1.92-3.35-2.89-8.12-2.89-14.31s.96-10.97,2.89-14.34c1.92-3.36,5.27-5.05,10.05-5.05s8.13,1.68,10.05,5.05Zm-14.4,24.24c.71,2.29,2.16,3.43,4.35,3.43s3.63-1.14,4.31-3.43,1.02-5.59,1.02-9.9-.34-7.87-1.02-10.04-2.12-3.26-4.31-3.26-3.64,1.09-4.35,3.26c-.71,2.17-1.06,5.52-1.06,10.04s.35,7.61,1.06,9.9Z"/><path d="M525.79,392.35c1.21,.48,2.3,1.33,3.29,2.54,.79,.98,1.33,2.19,1.6,3.62,.17,.95,.26,2.34,.26,4.17l-.05,17.78h-7.56v-17.96c0-1.07-.17-1.95-.52-2.64-.66-1.31-1.86-1.97-3.62-1.97-2.04,0-3.44,.85-4.22,2.54-.4,.9-.59,1.98-.59,3.23v16.8h-7.43v-16.8c0-1.67-.17-2.89-.52-3.65-.62-1.36-1.84-2.04-3.65-2.04-2.11,0-3.52,.68-4.24,2.04-.4,.78-.6,1.93-.6,3.47v16.98h-7.48v-28.16h7.17v4.11c.91-1.47,1.78-2.51,2.59-3.13,1.43-1.1,3.29-1.66,5.56-1.66,2.16,0,3.9,.47,5.23,1.42,1.07,.88,1.88,2.01,2.43,3.39,.97-1.66,2.17-2.87,3.6-3.65,1.52-.78,3.21-1.16,5.07-1.16,1.24,0,2.47,.24,3.67,.72Z"/><path d="M545.3,388.88h-7.48v-6.81h7.48v6.81Zm-7.48,3.36h7.48v28.21h-7.48v-28.21Z"/><path d="M575.19,393.86c1.85,1.53,2.77,4.06,2.77,7.6v19h-7.56v-17.16c0-1.48-.2-2.62-.59-3.42-.72-1.45-2.09-2.17-4.11-2.17-2.48,0-4.19,1.06-5.11,3.18-.48,1.12-.72,2.55-.72,4.3v15.27h-7.38v-28.16h7.14v4.11c.95-1.45,1.84-2.49,2.68-3.13,1.51-1.14,3.43-1.71,5.75-1.71,2.9,0,5.28,.76,7.13,2.29Z"/><path d="M614.5,392.7c1.33,.75,2.41,1.79,3.24,3.12v-13.46h7.48v38.09h-7.17v-3.91c-1.05,1.67-2.25,2.89-3.6,3.65s-3.02,1.14-5.02,1.14c-3.29,0-6.07-1.33-8.32-4-2.25-2.67-3.38-6.09-3.38-10.26,0-4.81,1.11-8.6,3.33-11.36,2.22-2.76,5.18-4.14,8.89-4.14,1.71,0,3.23,.38,4.55,1.13Zm1.81,20.09c1.09-1.55,1.63-3.56,1.63-6.03,0-3.45-.87-5.92-2.61-7.4-1.07-.9-2.31-1.35-3.73-1.35-2.16,0-3.74,.81-4.75,2.45-1.01,1.63-1.51,3.65-1.51,6.07,0,2.61,.51,4.69,1.54,6.25s2.58,2.34,4.67,2.34,3.67-.78,4.76-2.33Z"/><path d="M650.3,392.82c1.97,.88,3.59,2.27,4.88,4.17,1.16,1.68,1.9,3.62,2.25,5.83,.2,1.3,.28,3.16,.24,5.6h-20.54c.11,2.83,1.1,4.81,2.95,5.95,1.13,.71,2.48,1.06,4.07,1.06,1.68,0,3.04-.43,4.1-1.29,.57-.47,1.08-1.11,1.52-1.94h7.53c-.2,1.67-1.11,3.37-2.73,5.1-2.53,2.74-6.06,4.11-10.61,4.11-3.75,0-7.07-1.16-9.94-3.47-2.87-2.31-4.3-6.08-4.3-11.29,0-4.89,1.29-8.63,3.89-11.24,2.59-2.61,5.95-3.91,10.09-3.91,2.46,0,4.67,.44,6.63,1.32Zm-11.03,6.37c-1.04,1.07-1.7,2.53-1.96,4.37h12.71c-.13-1.96-.79-3.44-1.96-4.46-1.18-1.01-2.63-1.52-4.37-1.52-1.89,0-3.36,.54-4.4,1.61Z"/><path d="M687.29,403.3c1.37-.17,2.35-.39,2.95-.65,1.06-.45,1.59-1.15,1.59-2.1,0-1.16-.41-1.95-1.22-2.39-.81-.44-2.01-.66-3.58-.66-1.77,0-3.02,.43-3.75,1.29-.52,.64-.87,1.5-1.05,2.59h-7.12c.16-2.47,.85-4.49,2.08-6.08,1.96-2.48,5.32-3.73,10.08-3.73,3.1,0,5.86,.61,8.27,1.84,2.41,1.23,3.61,3.54,3.61,6.94v12.94c0,.9,.02,1.98,.05,3.26,.05,.97,.2,1.62,.44,1.97,.24,.35,.6,.63,1.09,.85v1.09h-8.02c-.22-.57-.38-1.1-.47-1.6-.09-.5-.16-1.07-.21-1.71-1.02,1.1-2.2,2.04-3.54,2.82-1.6,.91-3.4,1.37-5.41,1.37-2.57,0-4.69-.73-6.36-2.19-1.67-1.46-2.51-3.52-2.51-6.2,0-3.47,1.35-5.98,4.04-7.53,1.48-.85,3.65-1.45,6.52-1.81l2.53-.31Zm4.51,3.44c-.47,.29-.95,.53-1.43,.71-.48,.18-1.14,.35-1.98,.5l-1.68,.31c-1.57,.28-2.7,.61-3.39,1.01-1.16,.67-1.74,1.72-1.74,3.13,0,1.26,.35,2.17,1.06,2.73,.71,.56,1.57,.84,2.59,.84,1.61,0,3.1-.47,4.45-1.4,1.36-.93,2.06-2.63,2.12-5.1v-2.74Z"/><path d="M722.47,402.37c-.14-1.05-.49-2-1.06-2.85-.83-1.14-2.12-1.71-3.87-1.71-2.49,0-4.19,1.23-5.11,3.7-.48,1.31-.73,3.05-.73,5.21s.24,3.73,.73,4.98c.88,2.35,2.54,3.52,4.98,3.52,1.73,0,2.96-.47,3.68-1.4,.73-.93,1.17-2.14,1.32-3.62h7.53c-.17,2.24-.98,4.37-2.44,6.37-2.31,3.23-5.74,4.84-10.28,4.84s-7.88-1.35-10.02-4.04c-2.14-2.69-3.21-6.18-3.21-10.47,0-4.84,1.18-8.6,3.55-11.3s5.63-4.04,9.79-4.04c3.54,0,6.44,.79,8.69,2.38,2.25,1.59,3.59,4.39,4,8.41h-7.56Z"/><path d="M732.18,397.76v-5.25h3.93v-7.87h7.3v7.87h4.58v5.25h-4.58v14.91c0,1.16,.15,1.88,.44,2.16,.29,.29,1.19,.43,2.69,.43,.22,0,.46,0,.71-.01,.25,0,.5-.02,.74-.04v5.51l-3.49,.13c-3.49,.12-5.87-.48-7.14-1.81-.83-.85-1.24-2.15-1.24-3.91v-17.36h-3.93Z"/><path d="M760.31,388.88h-7.48v-6.81h7.48v6.81Zm-7.48,3.36h7.48v28.21h-7.48v-28.21Z"/><path d="M784.83,392.25h7.92l-10.19,28.21h-7.78l-10.12-28.21h8.28l5.87,20.81,6-20.81Z"/><path d="M804.51,388.88h-7.48v-6.81h7.48v6.81Zm-7.48,3.36h7.48v28.21h-7.48v-28.21Z"/><path d="M826.61,392.7c1.33,.75,2.41,1.79,3.24,3.12v-13.46h7.48v38.09h-7.17v-3.91c-1.05,1.67-2.25,2.89-3.6,3.65s-3.02,1.14-5.02,1.14c-3.29,0-6.07-1.33-8.32-4-2.25-2.67-3.38-6.09-3.38-10.26,0-4.81,1.11-8.6,3.33-11.36,2.22-2.76,5.18-4.14,8.89-4.14,1.71,0,3.23,.38,4.55,1.13Zm1.81,20.09c1.09-1.55,1.63-3.56,1.63-6.03,0-3.45-.87-5.92-2.61-7.4-1.07-.9-2.31-1.35-3.73-1.35-2.16,0-3.74,.81-4.75,2.45-1.01,1.63-1.51,3.65-1.51,6.07,0,2.61,.51,4.69,1.54,6.25s2.58,2.34,4.67,2.34,3.67-.78,4.76-2.33Z"/><path d="M855.2,403.3c1.37-.17,2.35-.39,2.95-.65,1.06-.45,1.59-1.15,1.59-2.1,0-1.16-.41-1.95-1.22-2.39-.81-.44-2.01-.66-3.58-.66-1.77,0-3.02,.43-3.75,1.29-.52,.64-.87,1.5-1.05,2.59h-7.12c.16-2.47,.85-4.49,2.08-6.08,1.96-2.48,5.32-3.73,10.08-3.73,3.1,0,5.86,.61,8.27,1.84,2.41,1.23,3.61,3.54,3.61,6.94v12.94c0,.9,.02,1.98,.05,3.26,.05,.97,.2,1.62,.44,1.97,.24,.35,.6,.63,1.09,.85v1.09h-8.02c-.22-.57-.38-1.1-.47-1.6-.09-.5-.16-1.07-.21-1.71-1.02,1.1-2.2,2.04-3.54,2.82-1.6,.91-3.4,1.37-5.41,1.37-2.57,0-4.69-.73-6.36-2.19-1.67-1.46-2.51-3.52-2.51-6.2,0-3.47,1.35-5.98,4.04-7.53,1.48-.85,3.65-1.45,6.52-1.81l2.53-.31Zm4.51,3.44c-.47,.29-.95,.53-1.43,.71-.48,.18-1.14,.35-1.98,.5l-1.68,.31c-1.57,.28-2.7,.61-3.39,1.01-1.16,.67-1.74,1.72-1.74,3.13,0,1.26,.35,2.17,1.06,2.73,.71,.56,1.57,.84,2.59,.84,1.61,0,3.1-.47,4.45-1.4,1.36-.93,2.06-2.63,2.12-5.1v-2.74Z"/><path d="M888.46,392.7c1.33,.75,2.41,1.79,3.24,3.12v-13.46h7.48v38.09h-7.17v-3.91c-1.05,1.67-2.25,2.89-3.6,3.65s-3.02,1.14-5.02,1.14c-3.29,0-6.07-1.33-8.32-4-2.25-2.67-3.38-6.09-3.38-10.26,0-4.81,1.11-8.6,3.33-11.36,2.22-2.76,5.18-4.14,8.89-4.14,1.71,0,3.23,.38,4.55,1.13Zm1.81,20.09c1.09-1.55,1.63-3.56,1.63-6.03,0-3.45-.87-5.92-2.61-7.4-1.07-.9-2.31-1.35-3.73-1.35-2.16,0-3.74,.81-4.75,2.45-1.01,1.63-1.51,3.65-1.51,6.07,0,2.61,.51,4.69,1.54,6.25s2.58,2.34,4.67,2.34,3.67-.78,4.76-2.33Z"/><path d="M932.27,381.96c.38,.03,.9,.06,1.55,.12v6c-.41-.05-1.11-.09-2.08-.12-.98-.03-1.65,.19-2.02,.65-.37,.46-.56,.96-.56,1.51v2.38h4.84v5.2h-4.84v22.75h-7.32v-22.75h-4.14v-5.2h4.04v-1.81c0-3.02,.51-5.1,1.53-6.24,1.07-1.69,3.65-2.54,7.74-2.54,.47,0,.89,.01,1.27,.04Z"/><path d="M951.06,380.7l-7.87,7.74h-5.33l4.97-7.74h8.23Zm-12.71,11.54h7.48v28.21h-7.48v-28.21Z"/><path d="M958.69,411.45c.16,1.31,.49,2.24,1.01,2.79,.92,.98,2.62,1.48,5.1,1.48,1.46,0,2.61-.22,3.47-.65,.86-.43,1.29-1.08,1.29-1.94s-.35-1.46-1.04-1.89c-.69-.43-3.26-1.17-7.72-2.23-3.21-.79-5.46-1.79-6.77-2.98-1.31-1.17-1.97-2.86-1.97-5.07,0-2.6,1.02-4.84,3.07-6.72s4.93-2.81,8.65-2.81c3.53,0,6.4,.7,8.62,2.11,2.22,1.41,3.5,3.83,3.83,7.29h-7.38c-.1-.95-.37-1.7-.8-2.25-.81-1-2.2-1.5-4.15-1.5-1.61,0-2.75,.25-3.44,.75-.68,.5-1.02,1.09-1.02,1.76,0,.85,.36,1.46,1.09,1.84,.73,.4,3.29,1.08,7.7,2.04,2.94,.69,5.14,1.73,6.61,3.13,1.45,1.42,2.17,3.18,2.17,5.31,0,2.79-1.04,5.08-3.12,6.84-2.08,1.77-5.3,2.65-9.66,2.65s-7.72-.94-9.84-2.81c-2.12-1.87-3.18-4.26-3.18-7.16h7.48Z"/><path d="M990.03,388.88h-7.48v-6.81h7.48v6.81Zm-7.48,3.36h7.48v28.21h-7.48v-28.21Z"/><path d="M1014.05,402.37c-.14-1.05-.49-2-1.06-2.85-.83-1.14-2.12-1.71-3.87-1.71-2.49,0-4.19,1.23-5.11,3.7-.48,1.31-.73,3.05-.73,5.21s.24,3.73,.73,4.98c.88,2.35,2.54,3.52,4.98,3.52,1.73,0,2.96-.47,3.68-1.4s1.17-2.14,1.32-3.62h7.53c-.17,2.24-.98,4.37-2.43,6.37-2.31,3.23-5.74,4.84-10.28,4.84s-7.88-1.35-10.03-4.04-3.21-6.18-3.21-10.47c0-4.84,1.18-8.6,3.55-11.3,2.37-2.69,5.63-4.04,9.79-4.04,3.54,0,6.44,.79,8.69,2.38,2.25,1.59,3.59,4.39,4,8.41h-7.56Z"/><path d="M1037.82,403.3c1.37-.17,2.35-.39,2.95-.65,1.06-.45,1.59-1.15,1.59-2.1,0-1.16-.41-1.95-1.22-2.39-.81-.44-2.01-.66-3.58-.66-1.77,0-3.02,.43-3.75,1.29-.53,.64-.88,1.5-1.05,2.59h-7.12c.16-2.47,.85-4.49,2.08-6.08,1.96-2.48,5.32-3.73,10.08-3.73,3.1,0,5.86,.61,8.26,1.84,2.41,1.23,3.61,3.54,3.61,6.94v12.94c0,.9,.02,1.98,.05,3.26,.05,.97,.2,1.62,.44,1.97,.24,.35,.6,.63,1.09,.85v1.09h-8.02c-.22-.57-.38-1.1-.47-1.6-.09-.5-.16-1.07-.21-1.71-1.02,1.1-2.2,2.04-3.54,2.82-1.6,.91-3.4,1.37-5.42,1.37-2.57,0-4.69-.73-6.36-2.19-1.67-1.46-2.51-3.52-2.51-6.2,0-3.47,1.35-5.98,4.04-7.53,1.48-.85,3.65-1.45,6.52-1.81l2.53-.31Zm4.51,3.44c-.47,.29-.95,.53-1.43,.71-.48,.18-1.14,.35-1.98,.5l-1.68,.31c-1.57,.28-2.7,.61-3.39,1.01-1.16,.67-1.74,1.72-1.74,3.13,0,1.26,.35,2.17,1.06,2.73,.71,.56,1.57,.84,2.59,.84,1.61,0,3.1-.47,4.45-1.4,1.36-.93,2.06-2.63,2.12-5.1v-2.74Z"/><path d="M1082.03,403.3c1.37-.17,2.35-.39,2.95-.65,1.06-.45,1.59-1.15,1.59-2.1,0-1.16-.41-1.95-1.22-2.39-.81-.44-2.01-.66-3.58-.66-1.77,0-3.02,.43-3.75,1.29-.53,.64-.88,1.5-1.05,2.59h-7.12c.16-2.47,.85-4.49,2.08-6.08,1.96-2.48,5.32-3.73,10.08-3.73,3.1,0,5.86,.61,8.26,1.84,2.41,1.23,3.61,3.54,3.61,6.94v12.94c0,.9,.02,1.98,.05,3.26,.05,.97,.2,1.62,.44,1.97,.24,.35,.6,.63,1.09,.85v1.09h-8.02c-.22-.57-.38-1.1-.47-1.6-.09-.5-.16-1.07-.21-1.71-1.02,1.1-2.2,2.04-3.54,2.82-1.6,.91-3.4,1.37-5.42,1.37-2.57,0-4.69-.73-6.36-2.19-1.67-1.46-2.51-3.52-2.51-6.2,0-3.47,1.35-5.98,4.04-7.53,1.48-.85,3.65-1.45,6.52-1.81l2.53-.31Zm4.51,3.44c-.47,.29-.95,.53-1.43,.71-.48,.18-1.14,.35-1.98,.5l-1.68,.31c-1.57,.28-2.7,.61-3.39,1.01-1.16,.67-1.74,1.72-1.74,3.13,0,1.26,.35,2.17,1.06,2.73,.71,.56,1.57,.84,2.59,.84,1.61,0,3.1-.47,4.45-1.4,1.36-.93,2.06-2.63,2.12-5.1v-2.74Z"/><path d="M1122.59,420.45h-7.38v-38.15h7.38v38.15Z"/><path d="M1140.95,403.3c1.37-.17,2.35-.39,2.95-.65,1.06-.45,1.59-1.15,1.59-2.1,0-1.16-.41-1.95-1.22-2.39-.81-.44-2.01-.66-3.58-.66-1.77,0-3.02,.43-3.75,1.29-.52,.64-.87,1.5-1.05,2.59h-7.12c.16-2.47,.85-4.49,2.08-6.08,1.96-2.48,5.32-3.73,10.08-3.73,3.1,0,5.86,.61,8.27,1.84,2.41,1.23,3.61,3.54,3.61,6.94v12.94c0,.9,.02,1.98,.05,3.26,.05,.97,.2,1.62,.44,1.97,.24,.35,.6,.63,1.09,.85v1.09h-8.02c-.22-.57-.38-1.1-.47-1.6-.09-.5-.16-1.07-.21-1.71-1.02,1.1-2.2,2.04-3.54,2.82-1.6,.91-3.4,1.37-5.41,1.37-2.57,0-4.69-.73-6.36-2.19-1.67-1.46-2.51-3.52-2.51-6.2,0-3.47,1.35-5.98,4.04-7.53,1.48-.85,3.65-1.45,6.52-1.81l2.53-.31Zm4.51,3.44c-.47,.29-.95,.53-1.43,.71-.48,.18-1.14,.35-1.98,.5l-1.68,.31c-1.57,.28-2.7,.61-3.39,1.01-1.16,.67-1.74,1.72-1.74,3.13,0,1.26,.35,2.17,1.06,2.73,.71,.56,1.57,.84,2.59,.84,1.61,0,3.1-.47,4.45-1.4,1.36-.93,2.06-2.63,2.12-5.1v-2.74Z"/><path d="M1179.7,411.45c.16,1.31,.49,2.24,1.01,2.79,.92,.98,2.62,1.48,5.1,1.48,1.46,0,2.61-.22,3.47-.65,.86-.43,1.29-1.08,1.29-1.94s-.35-1.46-1.04-1.89c-.69-.43-3.26-1.17-7.72-2.23-3.21-.79-5.46-1.79-6.77-2.98-1.31-1.17-1.97-2.86-1.97-5.07,0-2.6,1.02-4.84,3.07-6.72s4.93-2.81,8.65-2.81c3.53,0,6.4,.7,8.62,2.11,2.22,1.41,3.5,3.83,3.83,7.29h-7.38c-.1-.95-.37-1.7-.8-2.25-.81-1-2.2-1.5-4.15-1.5-1.61,0-2.75,.25-3.44,.75-.68,.5-1.02,1.09-1.02,1.76,0,.85,.36,1.46,1.09,1.84,.73,.4,3.29,1.08,7.7,2.04,2.94,.69,5.14,1.73,6.61,3.13,1.45,1.42,2.17,3.18,2.17,5.31,0,2.79-1.04,5.08-3.12,6.84-2.08,1.77-5.3,2.65-9.66,2.65s-7.72-.94-9.84-2.81c-2.12-1.87-3.18-4.26-3.18-7.16h7.48Z"/><path d="M1221.84,392.82c1.97,.88,3.59,2.27,4.87,4.17,1.16,1.68,1.9,3.62,2.25,5.83,.2,1.3,.28,3.16,.24,5.6h-20.54c.11,2.83,1.1,4.81,2.95,5.95,1.13,.71,2.48,1.06,4.07,1.06,1.68,0,3.04-.43,4.09-1.29,.57-.47,1.08-1.11,1.52-1.94h7.53c-.2,1.67-1.11,3.37-2.73,5.1-2.53,2.74-6.06,4.11-10.61,4.11-3.75,0-7.07-1.16-9.94-3.47-2.87-2.31-4.3-6.08-4.3-11.29,0-4.89,1.29-8.63,3.89-11.24,2.59-2.61,5.95-3.91,10.09-3.91,2.45,0,4.67,.44,6.63,1.32Zm-11.03,6.37c-1.04,1.07-1.7,2.53-1.96,4.37h12.71c-.13-1.96-.79-3.44-1.96-4.46-1.18-1.01-2.63-1.52-4.38-1.52-1.89,0-3.36,.54-4.4,1.61Z"/><path d="M1268.13,392.35c1.21,.48,2.3,1.33,3.29,2.54,.79,.98,1.33,2.19,1.6,3.62,.17,.95,.26,2.34,.26,4.17l-.05,17.78h-7.56v-17.96c0-1.07-.17-1.95-.52-2.64-.66-1.31-1.86-1.97-3.62-1.97-2.04,0-3.44,.85-4.22,2.54-.4,.9-.6,1.98-.6,3.23v16.8h-7.43v-16.8c0-1.67-.17-2.89-.52-3.65-.62-1.36-1.84-2.04-3.65-2.04-2.1,0-3.52,.68-4.24,2.04-.4,.78-.59,1.93-.59,3.47v16.98h-7.48v-28.16h7.17v4.11c.91-1.47,1.78-2.51,2.59-3.13,1.43-1.1,3.29-1.66,5.56-1.66,2.16,0,3.9,.47,5.23,1.42,1.07,.88,1.88,2.01,2.43,3.39,.97-1.66,2.17-2.87,3.6-3.65,1.52-.78,3.21-1.16,5.07-1.16,1.24,0,2.47,.24,3.67,.72Z"/><path d="M1291.23,403.3c1.37-.17,2.35-.39,2.95-.65,1.06-.45,1.59-1.15,1.59-2.1,0-1.16-.41-1.95-1.22-2.39-.81-.44-2.01-.66-3.58-.66-1.77,0-3.02,.43-3.75,1.29-.53,.64-.88,1.5-1.05,2.59h-7.12c.16-2.47,.85-4.49,2.08-6.08,1.96-2.48,5.32-3.73,10.08-3.73,3.1,0,5.86,.61,8.26,1.84,2.41,1.23,3.61,3.54,3.61,6.94v12.94c0,.9,.02,1.98,.05,3.26,.05,.97,.2,1.62,.44,1.97,.24,.35,.6,.63,1.09,.85v1.09h-8.02c-.22-.57-.38-1.1-.47-1.6-.09-.5-.16-1.07-.21-1.71-1.02,1.1-2.2,2.04-3.54,2.82-1.6,.91-3.4,1.37-5.42,1.37-2.57,0-4.69-.73-6.36-2.19-1.67-1.46-2.51-3.52-2.51-6.2,0-3.47,1.35-5.98,4.04-7.53,1.48-.85,3.65-1.45,6.52-1.81l2.53-.31Zm4.51,3.44c-.47,.29-.95,.53-1.43,.71-.48,.18-1.14,.35-1.98,.5l-1.68,.31c-1.57,.28-2.7,.61-3.39,1.01-1.16,.67-1.74,1.72-1.74,3.13,0,1.26,.35,2.17,1.06,2.73,.71,.56,1.57,.84,2.59,.84,1.61,0,3.1-.47,4.45-1.4,1.36-.93,2.06-2.63,2.12-5.1v-2.74Z"/><path d="M1332.28,393.86c1.85,1.53,2.77,4.06,2.77,7.6v19h-7.56v-17.16c0-1.48-.2-2.62-.59-3.42-.72-1.45-2.09-2.17-4.11-2.17-2.48,0-4.19,1.06-5.11,3.18-.48,1.12-.72,2.55-.72,4.3v15.27h-7.38v-28.16h7.14v4.11c.94-1.45,1.84-2.49,2.68-3.13,1.51-1.14,3.43-1.71,5.75-1.71,2.9,0,5.28,.76,7.12,2.29Z"/><path d="M1353.08,403.3c1.37-.17,2.35-.39,2.95-.65,1.06-.45,1.59-1.15,1.59-2.1,0-1.16-.41-1.95-1.22-2.39-.81-.44-2.01-.66-3.58-.66-1.77,0-3.02,.43-3.75,1.29-.53,.64-.88,1.5-1.05,2.59h-7.12c.16-2.47,.85-4.49,2.08-6.08,1.96-2.48,5.32-3.73,10.08-3.73,3.1,0,5.86,.61,8.26,1.84,2.41,1.23,3.61,3.54,3.61,6.94v12.94c0,.9,.02,1.98,.05,3.26,.05,.97,.2,1.62,.44,1.97,.24,.35,.6,.63,1.09,.85v1.09h-8.02c-.22-.57-.38-1.1-.47-1.6-.09-.5-.16-1.07-.21-1.71-1.02,1.1-2.2,2.04-3.54,2.82-1.6,.91-3.4,1.37-5.42,1.37-2.57,0-4.69-.73-6.36-2.19-1.67-1.46-2.51-3.52-2.51-6.2,0-3.47,1.35-5.98,4.04-7.53,1.48-.85,3.65-1.45,6.52-1.81l2.53-.31Zm4.51,3.44c-.47,.29-.95,.53-1.43,.71-.48,.18-1.14,.35-1.98,.5l-1.68,.31c-1.57,.28-2.7,.61-3.39,1.01-1.16,.67-1.74,1.72-1.74,3.13,0,1.26,.35,2.17,1.06,2.73,.71,.56,1.57,.84,2.59,.84,1.61,0,3.1-.47,4.45-1.4,1.36-.93,2.06-2.63,2.12-5.1v-2.74Z"/><path d="M1380.14,391.94c2.01,4.66,3.02,9.35,3.02,14.08,0,5.19-1.2,10.47-3.59,15.84-1.34,3-2.61,5.26-3.8,6.78l-1.83,2.51h-5.45c2.27-4.11,3.85-7.47,4.74-10.09,1.53-4.43,2.29-9.29,2.29-14.57,0-3.38-.28-6.5-.83-9.37-.84-4.36-2.35-8.54-4.51-12.53l-1.57-2.9h5.55c2.62,3.66,4.61,7.07,5.97,10.25Z"/></g><text class="cls-3" transform="translate(628.12 168.67)"><tspan x="0" y="0">PREGUN</tspan><tspan class="cls-32" x="128.35" y="0">T</tspan><tspan class="cls-33" x="144.46" y="0">A</tspan><tspan x="162.83" y="0" xml:space="preserve"> 1 DE 10</tspan></text></g><g id="Detective"><g class="cls-29"><g><path class="cls-24" d="M1505.89,1293.73h476.85s5.42-68.64,41.53-159.02c36.16-90.38,99.44-187.98,68.69-214.05-30.74-26.13-103.01,0-103.01,0l65.97-287.08c5.8-25.22-13.69-49.09-39.56-48.57-50.63,1.01-119.36-.32-189.06-2.56-144.28-4.72-265.7-8.69-265.7-8.69l-39.17,304.18-9.65,242.52-6.89,173.28Z"/><path class="cls-27" d="M1805.43,587.8s-138.17-6.37-249.96-15.51c-21.23-1.74-40.33,12.84-44.19,33.79l-58.06,314.56s-72.29-26.11-103.01,0c-30.72,26.11,32.53,123.7,68.68,214.07,36.15,90.36,41.57,159.04,41.57,159.04h367.73s-22.75-705.95-22.75-705.95Z"/><path class="cls-19" d="M1453.19,920.66s30.9,58.88,59.59,199.79c2.25,11.03,4.51,22.58,6.72,34.66,2.41,13.16,13.84,22.76,27.21,22.76h265.84s0,115.86,0,115.86h170.19s5.42-68.64,41.53-159.02c36.16-90.38,99.44-187.98,68.69-214.05-30.74-26.13-103.01,0-103.01,0l65.46-284.88c6.03-26.24-14.14-51.23-41.06-50.73-50.43,.93-118.27-.39-187.06-2.6-6.24,10.68-13.39,23.04-20.87,35.95-24.83,42.78-52.92,91.52-60.45,105.83-9.65,18.33-105.62,134.57-189.11,186.62-40.01,24.94-103.67,9.81-103.67,9.81Z"/><path class="cls-21" d="M1912.7,1278c9.01,18.83,16.18,31.47,18.72,30.21,1.96-.98,32.14-38.4,55.14-66.82l4.61-2.29c2.59-3.42,19.77-25.82,19.77-27.58,0-4.52-71.39-206.93-71.39-206.93,0,0,58.51-99.85,23.76-286.72,0,0-43.42-40.17-107.58-71.8-44.14-21.76-50.74-35.84-50.74-35.84l-120.73,3.99s-2.25,14.15-27.11,30.72c-27.11,18.07-76.17,48.4-80.42,56.93-11.8,23.66-55.78,254.44,1.36,296.18,0,0-.23,123.11,52.64,138.7,52.86,15.59,94.88-6.78,94.88-6.78,0,0-37.28,241.5-32.76,241.5,1.35,0,23.32-2.47,34.19-3.7h0s-.02,0,.02,0c3.37-.38,5.67-.64,5.95-.67l.48-.24c19.72-2.81,77.83-11.21,78.64-12.56,.61-1.02,3.13-12.54,6.66-29.73m0,0l93.9-46.56m-4.63-9.87l-87.6,48.21m0,0c12.43-61.33,34.14-175.31,34.14-175.31,0,0,30.64,77.61,53.46,127.1"/><path class="cls-16" d="M1794.51,609.49s11.23,6.86,10.45,15.67c-.78,8.81-4.39,31.52-10.54,45.53-8.03,18.3-62.57,103.47-62.57,103.47,0,0-50.46-138.95-46.31-154.87,4.15-15.92,14.8-28.11,108.97-9.8Z"/><path class="cls-20" d="M1578.1,998.05c7.45,5.35,16.73,7.81,25.91,8.56,9.26,.63,18.52-.54,27.52-2.47,18.07-3.88,35.07-11.22,51.39-19.45,16.23-8.47,31.85-18,46.72-28.55,14.9-10.51,29.33-21.68,42.75-34-7.42,5.27-14.8,10.55-22.37,15.56-7.47,5.15-15.02,10.16-22.69,14.98-15.32,9.66-30.83,18.97-46.88,27.2-16.03,8.23-32.59,15.52-49.88,20.23-8.63,2.36-17.52,3.93-26.45,3.86-8.92,.13-17.94-1.64-26.01-5.92Z"/><path class="cls-20" d="M1776.14,863.18c-18.98,3.46-37.31,9.52-55.75,14.94-18.42,5.56-36.66,11.62-54.88,17.82l-13.62,4.84-3.42,1.27c-.54-.11,.72,.41,.21,.06-.59-1.1-.81-3.63-.84-5.8-.01-9.2,1.74-18.75,3.17-28.16,1.57-9.44,3.44-18.85,5.41-28.24l5.85-28.24c-6.09,18.27-11.22,36.83-15.36,55.7-2.05,9.46-3.87,18.91-4.21,28.96,.06,2.58-.11,5.04,1.38,8.31,.48,.82,1.2,1.86,2.63,2.43,1.43,.52,2.71,.23,3.63-.09l3.34-1.21,13.59-4.7,54.41-19,27.17-9.62c9.05-3.22,18.03-6.71,27.28-9.26Z"/><path class="cls-20" d="M1731.86,646.06l-17.14,35.24s-.28,9.32,5.7,14.23l-12.65,44.96,24.09,38.18,29.68-39.99-18.2-42.47c5.95-4.97,7.6-12.93,7.6-12.93l-19.07-37.23Z"/><path class="cls-23" d="M1799.53,654.14c-4.37,2.35-8.39,5.23-12.48,8-4.01,2.89-7.93,5.9-11.74,9.03-7.67,6.22-14.97,12.86-22.04,19.72l4.28,.7-12.94-24.84c-4.24-8.32-8.97-16.39-12.75-24.98,.76,4.67,2.39,9.14,3.83,13.62,1.6,4.43,3.3,8.82,5.14,13.14,3.64,8.67,7.67,17.13,11.9,25.53l1.64,3.26,2.64-2.55,21.11-20.39c7.11-6.73,14.08-13.61,21.39-20.23Z"/><g><g><path class="cls-9" d="M1708.07,627.89c10.49,7.68,12.55,20.62,67.25,.69,7.51,0,13.66-6.15,13.66-13.66v-40.77c0-7.51-6.15-13.66-13.66-13.66h-67.25c-7.51,0-13.66,6.15-13.66,13.66v42.96c0,7.51,6.15,10.78,13.66,10.78Z"/><path class="cls-17" d="M1694.79,597.74c8.05-4.75,26.74,2.99,48.5,2.99,19.3,0,36.12-9.76,45.31-5.87v17.36c-9.19,3.9-26.01,20.05-45.31,20.05-21.76,0-40.46-13.5-48.5-18.26v-16.27Z"/></g><path class="cls-28" d="M1830.35,494.67c0,27.75-30.08,50.25-67.21,50.25h-37.8c-37.1,0-67.19-22.49-67.19-50.25v-71.18c0-27.73,30.08-50.23,67.19-50.23h37.8c37.13,0,67.21,22.5,67.21,50.23v71.18Z"/><path class="cls-9" d="M1725.1,400.19h33.19c32.57,0,58.97,28.75,58.97,64.21v2.72s0,75.1,0,75.1v1.12c0,26.32-37.86,84.13-78.09,84.13h-1.75c-41.88,0-71.29-60.17-71.29-86.49v-1.12s0-72.73,0-72.73v-2.72c0-35.46,26.41-64.21,58.98-64.21Z"/><path class="cls-21" d="M1739.48,476.63c3.56,13.15,2.11,26.99-.78,40.12-.91,4.4-1.85,8.78-2.98,13.14l-.38-.85c7.93,3.7,18.52,4.72,25.13-2.11-6.4,7.9-17.89,7.12-26.36,3.2,2.03-8.88,3.91-17.9,5.44-26.86,1.29-8.8,1.31-17.83-.07-26.63h0Z"/><path class="cls-9" d="M1842.69,489.76s1.58,38-25.43,35.8v-9.26s0-25.79,0-25.79v-10.02c1.06-.8,19.94-14.58,25.43,9.27Z"/><path class="cls-9" d="M1640.69,489.76s-1.57,38,25.44,35.8v-9.26s0-25.79,0-25.79v-10.02c-1.07-.8-19.94-14.58-25.44,9.27Z"/><path class="cls-6" d="M1683.06,419.13c41.06-18.95,82.12,18.95,123.18,0,0-3.16,0-6.31,0-9.47-41.07,18.95-82.12-18.95-123.18,0,0,3.16,0,6.32,0,9.47Z"/><path class="cls-6" d="M1682.66,411.33c41.07-18.95,82.12,18.95,123.18,0,0-3.16,0-6.32,0-9.47-41.06,18.95-82.12-18.95-123.18,0,0,3.16,0,6.32,0,9.47Z"/><path class="cls-6" d="M1683.06,404.92c41.06-18.95,82.12,18.95,123.18,0,0-3.16,0-6.32,0-9.48-41.07,18.95-82.12-18.95-123.18,0,0,3.16,0,6.32,0,9.48Z"/><path class="cls-28" d="M1811.51,432.84v19.45c0,6.13,0,12.27,0,18.4,0,1.67,.15,3.27,.16,4.87l-.16-.28v2.72c-.03,.18-.03,.36-.06,.55-.61,3.19-1.23,6.39-1.85,9.58,.63-.05,1.23-.32,1.68-.76-1.18,1.97-.71,4.46-.86,6.75-.23,3.55-2.05,6.92-1.79,10.47,.55,.03,1.06-.35,1.3-.84-.39,5.19-.92,10.37-1.61,15.53,.25-.25,.49-.49,.74-.74-.08,6.54-3.39,12.96-8.67,16.81,.6,.08,1.19,.17,1.79,.25-3.48,4.23-7.75,7.82-12.52,10.52,.52,.07,1.04,.12,1.57,.16-3.38,1.19-7.31,1.89-11.91,1.89l31.17,7.37,3.09-7.37h3.68v-115.33h-5.75Z"/><path class="cls-9" d="M1817.26,548.17c-4,27.93-40.05,79.3-78.22,79.3h-1.76c-38.67,0-66.76-50.61-71.15-79.3h151.14Z"/><path class="cls-8" d="M1754.35,494.59c0,1.16,.85,2.28,6.25,4.94,5.4,2.66,8.75,4.22,14.29,1.86,5.54-2.36,12.95-5.25,14.07-8.01,1.12-2.76,.42-3.01-7.05-4.63-7.46-1.62-9.63-2.37-16-.35-6.37,2.03-11.57,4.72-11.55,6.18Z"/><path class="cls-2" d="M1755.43,492.93s10.17-5.28,15.75-5.65c5.58-.37,17.94,3.39,17.94,3.39"/><path class="cls-2" d="M1787.17,495.48s-11.44,6.75-17.27,7.15c-4.19,.29-14.21-5.77-14.21-5.77"/><path class="cls-8" d="M1684.1,491.37c-.12,1.15,.59,2.36,5.67,5.6,5.08,3.24,8.23,5.16,14,3.43,5.77-1.73,13.45-3.78,14.87-6.4s.75-2.95-6.49-5.38-9.31-3.42-15.87-2.12c-6.56,1.31-12.02,3.41-12.17,4.86Z"/><path class="cls-2" d="M1685.35,489.84s10.69-4.12,16.28-3.88,17.45,5.35,17.45,5.35"/><path class="cls-2" d="M1716.62,495.88s-12.12,5.44-17.95,5.19c-4.19-.18-13.49-7.31-13.49-7.31"/><g><path class="cls-18" d="M1780.74,395.28c14.84,2.39,29.75,4.79,43.98,9.63,24.34,8.27,46.2,23.7,62.13,43.88,5.08,6.43,9.79,14.56,7.46,22.41-3.24,10.93-17.27,13.78-28.66,13.66-27.62-.29-54.78-6.56-81.69-12.79-44.99-10.42-90.39-20.99-132.08-40.84-16.05-7.64-32.02-17.14-41.88-31.93-2.04-3.06-3.85-6.72-2.95-10.28,5.9-23.34,54.31-13.28,69.97-10.43,34.43,6.27,69.18,11.14,103.73,16.7Z"/><path class="cls-24" d="M1666.39,381.78c8.85-14.57,17.71-29.13,26.56-43.7,4.68-7.69,9.49-15.54,16.46-21.23,6.98-5.69,16.66-8.89,25.15-5.9,8.01,2.82,14.7,10.81,23.1,9.6,7.31-1.06,11.57-8.5,15.55-14.72,3.98-6.22,10.77-12.64,17.75-10.21,2.54,.89,4.55,2.84,6.37,4.81,17.03,18.45,25.39,43.35,29.67,68.09,3.3,19.07,5.95,39.2,6.86,58.59-57.96,.48-115.13-18.17-167.48-45.33Z"/><path class="cls-21" d="M1833.87,427.11c.03,.55,.08,1.11,.11,1.66,.89,21.42-12.68,17.44-29.71,13.87-50.35-10.57-99.73-25.76-147.32-45.31,3.15-5.18,6.3-10.36,9.45-15.55,52.35,27.16,109.52,45.81,167.48,45.33Z"/></g><path class="cls-28" d="M1677.7,534.48c.24,.31,.48,.63,.73,.94,1.49,1.89,3.19,3.84,5.51,4.48-6.41-4.94-10.34-12.96-10.32-21.06l1.37,.19c-.75-4.54-1.49-9.08-2.24-13.61-.18-1.08-.34-2.26,.21-3.2,.92,.35,1.83,.7,2.75,1.05-1.45-3.89-2.52-7.91-3.19-12.01,.39,.14,.77,.29,1.16,.43-2.06-5.54-1.64-11.64-1.2-17.53,.17-2.31,.35-4.63,.52-6.94,.06-.86,.13-1.71,.11-2.57-.04-2.32-.65-4.57-1.22-6.83l-.83-18.47-4.93-1.75v110.56h3.69l3.09,7.37,31.18-7.37c-14,0-21.91-6.4-26.38-13.69Z"/></g><path class="cls-9" d="M1788.6,614.15s.59,7.37,0,9.63c-.59,2.26-45.9,17.54-55.53,20.25-9.63,2.71-12.33-5.29-38.67-20.11v-8.26c26.52,22.96,56.49,27.52,94.2-1.52Z"/><path class="cls-20" d="M1675.24,639.97c-3.59,11.16-6.83,22.38-10.24,33.53-.04,.29-.12,.04-.15,.97,.1,.91,.32,1,.41,1.2,.27,.47,.51,.74,.76,1.06l1.47,1.74,2.91,3.29c1.92,2.19,3.8,4.39,5.59,6.66,3.56,4.53,6.77,9.32,9.17,14.4l.34-2.39c-5.75,6.02-11.16,12.3-16.46,18.77-2.62,3.29-5.21,6.5-7.51,10.38l-.82,1.66c-.23,.65-.58,1.71-.5,2.5,.14,.8,.37,1.7,.62,2.39l.68,1.5c.9,2.06,1.89,3.78,2.83,5.69,7.67,14.69,15.51,29.12,22.38,44.11,6.84,14.97,13.2,30.17,18.76,45.68,5.45,15.55,10.28,31.33,14.21,47.43-2.4-16.38-6.08-32.63-10.99-48.5-4.8-15.91-10.66-31.51-17.51-46.65-6.78-15.16-14.2-30.1-22.26-44.52-.92-1.79-2-3.65-2.78-5.37-1.06-2.57-1.25-1.28-.24-3.5,1.87-3.27,4.41-6.58,6.9-9.79,5.04-6.45,10.52-12.64,15.84-18.9l.99-1.16-.65-1.23c-2.85-5.39-6.44-10.23-10.31-14.73-1.94-2.25-3.96-4.42-6-6.54l-3.05-3.15-1.44-1.56c-.21-.25-.46-.53-.56-.7-.12-.1-.11-.31-.04,.22-.18,.57-.04-.03-.02-.09,2.56-11.49,5.27-22.91,7.64-34.4Z"/><path class="cls-20" d="M1839.72,637.62c-2.01,5.74-2.51,11.99-2,18.11,.44,6.15,2.11,12.24,4.74,17.86l.48,1.06,.12,.27c-.09-.1-.14-.41-.1-.65,.05-.33,.06-.23,0-.15-.29,.42-.81,1-1.3,1.52l-3.12,3.25c-2.11,2.18-4.22,4.41-6.23,6.73-4.02,4.64-7.83,9.6-10.72,15.23l-.7,1.37,1.06,1.2c5.46,6.14,10.85,12.41,15.92,18.83,2.49,3.2,5.05,6.52,6.9,9.78,.42,.67,.81,1.9,.67,1.48,.03-.17-.48,1.22-.87,1.95-.85,1.77-1.85,3.59-2.81,5.39-7.97,14.47-15.43,29.39-22.21,44.55-6.86,15.14-12.65,30.77-17.52,46.65-4.97,15.85-8.58,32.12-10.99,48.5,3.86-16.11,8.64-31.92,14.12-47.46,5.53-15.53,11.97-30.7,18.8-45.68,6.84-15,14.72-29.42,22.46-44.07,.96-1.86,1.92-3.68,2.84-5.65,.45-1.15,.93-1.63,1.31-3.84-.05-2.51-.85-3.15-1.34-4.29-2.3-3.9-4.89-7.09-7.51-10.39-5.28-6.49-10.77-12.69-16.39-18.84l.36,2.56c2.5-5.22,5.85-10.14,9.57-14.78,1.86-2.33,3.82-4.59,5.82-6.84l3.03-3.43c.51-.61,1-1.17,1.55-2.01,.13-.25,.33-.48,.45-1.18,.03-.34-.04-.74-.18-1.04-.08-.15-.2-.39-.2-.39l-.51-.98c-2.69-5.22-4.81-10.82-5.75-16.71-.98-5.86-1.02-11.97,.24-17.89Z"/><path class="cls-20" d="M1809.52,636.53c-6.59,18.4-12.22,37.11-17.56,55.9-5.38,18.78-10.08,37.75-14.51,56.77-4.3,19.06-8.18,38.22-11.36,57.51-3.14,19.29-5.73,38.69-7.14,58.18,1.97-9.58,3.44-19.21,5.52-28.75,1.73-9.59,3.76-19.12,5.72-28.66,4.13-19.04,8.14-38.09,12.54-57.07l13.25-56.94,13.54-56.94Z"/><path class="cls-20" d="M1685.53,639.97c3.52,9.33,6.69,18.76,9.46,28.31,2.97,9.48,5.57,19.08,7.97,28.71,4.79,19.27,8.97,38.68,12.49,58.22,1.63,9.79,3.44,19.56,4.72,29.4,.7,4.91,1.52,9.82,2.13,14.75l1.85,14.79c2.47,19.73,4.01,39.56,5.85,59.44,.15-9.97,.13-19.95-.02-29.94-.56-9.96-.75-19.96-1.67-29.91-1.37-19.95-4.2-39.76-7.52-59.49-3.68-19.66-8.04-39.21-13.82-58.37-5.79-19.12-12.36-38.11-21.44-55.92Z"/><path class="cls-10" d="M1774.33,941.33s12.71-71.38,21.65-99.62c0,0,71.74-9.88,152.16,13.24l-28.92,89.54s-17.62-47.5-30.27-52.44c-12.65-4.94-114.62,49.28-114.62,49.28Z"/><path class="cls-20" d="M1854.61,1141.03l-7.2-28.87-7.42-28.8-7.36-28.79c-2.4-9.47-5.19-19.41-6.69-28.51l-.34-2.04-1.84-.24c-14.9-1.92-29.78-3.67-44.84-4.24-7.54-.28-15.06-.49-22.82,.38-1.97,.3-3.92,.57-6.05,1.38-1.06,.53-2.34,.9-3.44,2.72-.62,1.14-.48,1.35-.63,1.85l-.28,1.38-2.26,11c-5.77,29.4-11.46,58.81-16.38,88.33,7.49-28.98,14.23-58.05,20.87-87.14l2.4-10.93,.3-1.37c.07-.39,.27-1.16,.21-.79-.2,.13,.38-.28,.98-.52,1.38-.51,3.15-.78,4.88-1.01,7.12-.71,14.59-.44,21.97-.06,14.8,.94,29.68,2.22,44.44,3.99l-2.17-2.28c1.84,10.44,4.66,19.58,7.22,29.29,2.66,9.56,5.56,19.05,8.41,28.55,5.67,19.01,11.7,37.91,18.04,56.71Z"/><path class="cls-20" d="M1826.13,1026.51c.65-12.12,1.43-24.27,2.37-36.38,.48-6.06,.99-12.12,1.63-18.16,.7-6.03,1.26-12.1,2.79-17.99-1.97,5.77-2.98,11.82-4.13,17.8-1.1,6-2.05,12.02-2.98,18.04-1.84,12.05-3.52,24.11-5.08,36.21l5.4,.48Z"/><polygon class="cls-20" points="1816.43 972.39 1820.75 1024.6 1826.12 1023.87 1816.43 972.39"/></g></g></g><g id="Bigote_D"><path class="cls-28" d="M1738.29,560.36c2.2-8.49-3.44-17.26-11.04-21.59-7.88-4.6-17.73-4.85-25.5-2.32-3.96,1.23-7.54,3.09-10.67,5.38-3.24,2.36-5.62,4.97-7.2,7.22-1.67,2.31-2.62,4.32-3.98,6.48-1.47,2.25-3.21,4.5-7.36,5.97,1.32,4.38,6.1,6.76,10.55,7.59,4.63,.77,9.14-.21,12.64-1.14l14.52-4.44c3.86-1.15,6.77-2.39,10.68-3.43,4.1-.9,9.19-2.02,17.36,.27Z"/><path class="cls-28" d="M1737.23,560.36c8.13-2.29,13.19-1.18,17.23-.28,3.85,1.05,6.67,2.29,10.46,3.42l14.36,4.42c3.47,.93,7.97,1.93,12.59,1.17,4.43-.82,9.22-3.21,10.49-7.59-4.13-1.47-5.84-3.73-7.27-5.97-1.32-2.16-2.23-4.16-3.87-6.46-1.55-2.24-3.9-4.84-7.12-7.21-3.1-2.29-6.66-4.16-10.6-5.4-7.73-2.55-17.59-2.3-25.43,2.33-7.57,4.36-13.09,13.14-10.83,21.57Z"/></g><g id="Ojos_D"><g class="cls-31"><circle class="cls-25" cx="1764.26" cy="494.65" r="7.61"/><ellipse class="cls-21" cx="1762.14" cy="492.39" rx="4.77" ry="5.36" transform="translate(-29.01 119.05) rotate(-3.84)"/></g><g class="cls-30"><circle class="cls-25" cx="1693.94" cy="492.53" r="7.61"/><ellipse class="cls-21" cx="1692.08" cy="490.05" rx="5.36" ry="4.77" transform="translate(1128.46 2159.06) rotate(-87.49)"/></g></g><g id="Cejas_D"><path class="cls-28" d="M1722.68,467.07c-1.66-1.56-3.2-3.35-5.41-3.87l.73-.55c-1.71-1-3.51-1.83-5.38-2.48,.23-.23,.53-.38,.85-.42-2.62-.8-5.35-1.24-8.1-1.29,.22-.14,.39-.37,.46-.62-1.9-.07-3.8-.01-5.69,.19-.03-.23-.06-.45-.09-.68-3.02,.71-6.07,1.3-9.14,1.75-.04-.33-.08-.65-.13-.98-1.43,.78-2.75,1.66-4.03,2.59-.67,.23-1.34,.47-2.01,.73-2.19,.86-4.49,3.54-4.53,5.36v-.03c-.13,.57-.16,1.21-.12,1.96,.01,.24,.75,3.7,.89,3.59,12.3-9.59,32.93-5.96,39.75,3.49,.37-.37,1.27-3.25,1.27-3.26,0,0,2.29-3.97,.68-5.49Zm-41.62-1.86s.02,0,.02-.01c-.02,.02-.03,.04-.04,.05l.02-.04Z"/><path class="cls-28" d="M1794.16,486.4c-.01-1.55-.43-3.1-1.21-4.44,.37-.14,.74-.29,1.11-.43-2.58-2.36-5.61-4.22-8.88-5.45,.34-.17,.69-.33,1.03-.5-3.16-1.82-6.89-2.62-10.51-2.26-.14-.16-.07-.45,.12-.53-5.01-.2-10.05,.51-14.81,2.08,.03-.29,.06-.59,.09-.88-2.34,.81-4.42,2.28-6.04,4.14-.12,.07-.24,.12-.35,.19-3.05,1.79-4.26,4.91-3.71,7.39-.14,1.41,.07,2.78,.91,3.79,11.02-11.02,28.88-11.02,39.9,0,.82-.98,1.06-2.3,.94-3.67,.43,.29,.89,.52,1.41,.58Z"/></g></svg>